<svg xmlns="http://www.w3.org/2000/svg" xmlns:xlink="http://www.w3.org/1999/xlink" width="256" height="256"><style><![CDATA[.B{fill:#fc9abf}.C{fill:#ffc7df}.D{fill:#ed84cb}.E{fill-opacity:1}.F{stroke:none}]]></style><defs><clipPath id="A"><path d="M-1 695c1.246-.31 2-3 3-5 .405 2.53 1 8 3 11 2.38-3.777 3-10 3-11 .693 1.968 1.055 4.4 2 6 2.298-5 7.56-19.055 7-31 4.046 2.023 11.164-1.942 11-4-.16-2.01-7-4-10-6-1.86-1.24-11-3-13.264-1.14C3.132 655.18-2 666-1 695z" opacity="1" paint-order="stroke fill markers" class="D E F"/></clipPath><clipPath id="B"><path d="M30 806.5c-1 0 0 2 0 3v3c-7 0-9-1-10 1s5 8 17 13c12-5 18-11 17-13s-3-1-10-1v-3c0-1 1-3 0-3s-3 2-7 2-6-2-7-2z" opacity="1" fill="#4c4c4c" paint-order="stroke fill markers" class="E F"/></clipPath><clipPath id="C"><path d="M35 10c-15 0-15 8-22 9 6 10 22.36 1.335 22-9z" opacity="1" paint-order="stroke fill markers" class="B E F"/></clipPath><clipPath id="D"><path d="M35 10c-9.43 0-10 10-5 14 3.123 2.5 4 6 4 8 7.4-3.932 19-22 1-22z" opacity="1" paint-order="stroke fill markers" class="B E F"/></clipPath></defs><circle cx="128" cy="128" r="120" fill="#b0f0ff" stroke="#40b0ff" stroke-width="4" stroke-linejoin="round" paint-order="fill markers stroke"/><g transform="matrix(3.048702 0 0 3.048702 15.198022 -2273.7523)"><g transform="translate(0 -20)"><g id="E"><g clip-path="url(#A)" transform="translate(2 126.5)"><path d="M-4 653h39v50H-4z" paint-order="stroke fill markers" class="D"/><g class="B"><path d="M0 687c14-22 19-34 6-32-6 8-5 25-6 32z" paint-order="stroke fill markers"/><path d="M5 690c8-17 13-36 2-32-6 8-2 25-2 32z" paint-order="stroke fill markers"/></g><g class="C"><path d="M6 666c4 1 9.7 2.37 11 2-2.57 1.237-7.805 1.443-11 0" paint-order="stroke fill markers"/><g transform="matrix(1 0 -.14834 .988936 0 0)"><ellipse cx="103.555" cy="673.451" rx="1.5" ry="9.101" paint-order="stroke fill markers"/><ellipse ry="5.056" rx="1.532" cy="673.451" cx="106.682" paint-order="stroke fill markers"/><ellipse ry="21.235" rx="3.5" cy="673.451" cx="98.429" paint-order="stroke fill markers"/></g></g></g><ellipse cx="130.208" cy="648.629" rx="4" ry="6" transform="matrix(.986013 .166666 -.166668 .986013 2 126.5)" paint-order="stroke fill markers" class="C"/><g class="D"><path d="M37 780.5c-17 0-20.692 15-20 24 1 13 12 19 20 20" paint-order="stroke fill markers"/><path d="M25 818.5c0 3-2 6-3 7 3.275.07 6-2 7-3 .31 2.227 1 5 0 6 2.938-.864 8-3 8-5" paint-order="stroke fill markers"/></g><path d="M38 784.5c-2.765-3.318-7.324-5.488-11-8-2.97-2.03-7-2-10-2 .673 2.175 3 4 5 4 .084 5.496 8 11 16 6z" fill="#ffeaf1" paint-order="stroke fill markers"/><path d="M26 779.5c4.583 0 10.083 4.167 11 5-5.384-1.046-9.167-3.333-11-5z" fill="#ffc7d6" paint-order="stroke fill markers"/></g><use xlink:href="#E" transform="matrix(-1 0 0 1 74 0)"/></g><path d="M26 799.5c6 5 6 7 5 11s2 4 6 4 7 0 6-4-1-6 5-11H37z" fill="#f4c4af" paint-order="stroke fill markers"/><g clip-path="url(#B)"><path d="M19.616 806.49h34.77v20.01h-34.77z" fill="#4b4b4b" paint-order="stroke fill markers"/><path d="M30 812.5c1 2 4 3 7 3s6-1 7-3c-2 2-6 2-7 2s-5 0-7-2z" fill="#9b969d" paint-order="stroke fill markers"/><g fill="#f3f3f3"><path d="M21.678 812.32c-.615 3.03 5.102 7.54 15.322 12.725 10.22-5.185 15.937-9.695 15.322-12.725.094-.253-1.218-.253-1.277-.06.537 2.926-9.487 8.884-14.045 10.64-4.558-1.757-14.582-7.714-14.045-10.64-.06-.192-1.37-.192-1.277.06zm22.486-3.82c-1.252 1.256-3.7 2-7.164 2s-5.912-.734-7.164-2l.164 2.1c.874 1.03 3.295 1.9 7 1.9s6.126-.86 7-1.9z" paint-order="stroke fill markers"/></g></g><g fill="#fbe6e2"><path d="M37 805.5l1-1v-30.36h-2v30.36z" paint-order="normal"/><path d="M37 766.5c-11 0-17 5-17 17s4 20 17 22c13-2 17-10 17-22s-6-17-17-17z" paint-order="stroke fill markers"/></g><path d="M37 792.6l-1 2.8 1 .336 1-.336z" fill="#f7c2b2" paint-order="stroke fill markers"/><path d="M32 799.5c0 1.364 3.2 2 5 2s5-.636 5-2c-1 1-3.55 1-5 1s-4 0-5-1z" fill="#4f1858" paint-order="stroke fill markers"/><g id="F"><path d="M23 776.5c-2 8 .845 18-3.155 22 1-5-3.845-12 .155-22" paint-order="stroke fill markers" class="B"/><ellipse ry="3.329" rx="4.83" cy="795.697" cx="25.369" fill="#fdc7df" paint-order="stroke fill markers"/><path d="M23.568 793.796c-1.404-.914-2.74-.914-4.568-.914.914 0 2.382-2.048 2.1-2.393-.434-.112-1.242-.873-2.1-2.176 2.74.914 3.654-4.205 9-4.205 3.28 0 5.618 1.464 6.53 4.205l-.914 1.827c-7.31-1.827-10.05.26-10.05 3.654z" fill="#eb62d1" paint-order="stroke fill markers"/><path d="M23.568 793.796c-2.74-2.74 0-8.223 4.568-8.223 3.654 0 5.482 2.74 5.482 4.568 0 5.482-5.966 7.31-10.05 3.654z" fill="#ecf7f3" paint-order="stroke fill markers"/><ellipse ry="4.5" rx="4" cy="790" cx="29" fill="#1c52db" paint-order="stroke fill markers"/><ellipse cx="29" cy="790" rx="3" ry="3.5" fill="#5eb0f6" paint-order="stroke fill markers"/><path d="M27.5 787.5c-1.322 0-3.224 2.587 1.5 6 4.724-3.413 2.822-6 1.5-6-.71 0-1.194.504-1.5 1.225-.306-.72-.79-1.225-1.5-1.225z" fill="#e05993" paint-order="stroke fill markers"/><path d="M27.625 788.48c-.977 0-1.286 1.79 1.375 3.71 2.66-1.922 2.352-3.71 1.375-3.71-.666 0-1.087.632-1.375 1.486-.288-.854-.71-1.486-1.375-1.486z" fill="#f5fdfd" paint-order="stroke fill markers"/><path d="M34 783.5c-3 0-8-1-10-3 3 0 10 2 10 3z" fill="#ea62d1" paint-order="stroke fill markers"/></g><use xlink:href="#F" transform="matrix(-1 0 0 1 74 0)"/><ellipse ry="3" rx="4.5" cy="763.5" cx="37" fill="#ffeaf1" paint-order="stroke fill markers"/><g class="B"><path d="M29.5 772.5c0 5 3 6 2 11 3.248-1.463 3-8 2-10" paint-order="stroke fill markers"/><path d="M36.5 764.5c-18 0-13 13-21 19 7.44 1.178 23.018-8.134 21-19z" paint-order="stroke fill markers"/></g><g clip-path="url(#C)" transform="translate(1.5 754.5)"><path d="M12 9h27v19H12z" paint-order="stroke fill markers" class="B"/><g class="C"><path d="M23 17c5 2 4 1 7 2-4.052.308-6-1-8-1" paint-order="stroke fill markers"/><path d="M21.274 15.39c-4.557 3.528-4.227 5.6.642 2.57-.314.624-.104 2.674 1.927.642 1.927-1.927.642-3.212-.642-1.927 4.758-3.5 3.624-5.583-1.927-1.285z" paint-order="stroke fill markers"/><path d="M13 19c5 1 9-7 17-9-3.853-2.438-6-4-11-1s-8 9-6 10z" paint-order="stroke fill markers"/></g></g><g class="B"><path d="M36.5 764.5c15 0 15 8 22 9-6 10-22.36 1.335-22-9z" paint-order="stroke fill markers"/><path d="M36.5 764.5c18 0 13 13 21 19-7.44 1.178-23.018-8.134-21-19z" paint-order="stroke fill markers"/></g><g clip-path="url(#D)" transform="translate(1.5 754.5)"><path d="M26 9h20v24H26z" paint-order="stroke fill markers" class="B"/><g class="C"><path d="M32 26c-6-4-6-15 4-16 5.074-.507-12.93-8.1-15 7-.644 4.694 14.942 11.628 11 9z" paint-order="stroke fill markers"/><ellipse cx="34" cy="16.492" rx="2" ry="4.123" transform="matrix(1 0 -.242536 .970143 0 0)" paint-order="stroke fill markers"/><ellipse ry="3" rx="1.5" cy="17.062" cx="33.005" paint-order="stroke fill markers"/></g><path d="M34 32c7.02-5.11 14.694-23.588 2-22 16.087-5.29 22 6 20 11S36 37 34 32" paint-order="stroke fill markers" class="D"/><path d="M34 16c3 1 8 1 11 0-2 2-10 2-12 2" paint-order="stroke fill markers" class="C"/></g></g></svg>