<svg xmlns="http://www.w3.org/2000/svg" xmlns:xlink="http://www.w3.org/1999/xlink" viewBox="0 0 640 96" xmlns:v="https://vecta.io/nano"><style><![CDATA[.B{dominant-baseline:auto}]]></style><defs><linearGradient id="A" xlink:href="#N" gradientUnits="userSpaceOnUse"><stop stop-color="#0000d9" offset="0"/><stop stop-color="#0000d9" offset=".067"/><stop stop-color="#000fe7" offset=".819"/><stop stop-color="#332ee4" offset="1"/></linearGradient><radialGradient id="B" cx="32" cy="57.7" r="26.1" gradientTransform="matrix(1.38,1.13e-6,-1.59e-6,1.95,-12.1,72.8)" xlink:href="#N"><stop stop-color="#d9a11b" offset="0"/><stop stop-color="#ebf44a" offset="1"/></radialGradient><radialGradient id="C" cx="32" cy="57.7" r="26.1" gradientTransform="matrix(1.38,1.12e-6,-1.58e-6,1.95,-12.1,-55.2)" xlink:href="#N"><stop stop-color="#22c234" offset="0"/><stop stop-color="#6eff06" offset="1"/></radialGradient><radialGradient id="D" cx="32" cy="57.7" r="26.1" gradientTransform="matrix(1.38,1.1e-7,-1.55e-7,1.95,-12.1,-183)" xlink:href="#N"><stop stop-color="#2d44eb" offset="0"/><stop stop-color="#3996f5" offset="1"/></radialGradient><radialGradient id="E" cx="4177.946" cy="5127.446" r="946.331" gradientTransform="scale(1.0337356,0.96736538)" xlink:href="#A" fx="4177.946" fy="5127.446"/><radialGradient id="F" cx="240" cy="99.9" r="7.76" gradientTransform="matrix(2.98e-6,-1.64,2.31,0,17.3,486)" xlink:href="#N"><stop stop-color="#008d00" offset="0"/><stop stop-color="#008d00" offset=".2"/><stop stop-color="#00af00" offset="1"/></radialGradient><linearGradient id="G" x1="615" x2="615" y1="184" y2="139" xlink:href="#N"><stop stop-color="#f99" offset="0"/><stop stop-color="#ff1010" offset="1"/></linearGradient><linearGradient id="H" x1="35020" x2="35020" y1="10344" y2="7846.5" xlink:href="#A"/><radialGradient id="I" cx="32" cy="57.7" r="26.1" gradientTransform="matrix(1.38,8.19e-8,-1.16e-7,1.95,-12.1,-247)" xlink:href="#N"><stop stop-color="#d91b3a" offset="0"/><stop stop-color="#ff5873" offset="1"/></radialGradient><radialGradient id="J" cx="7.19" cy="92" r="20.8" gradientTransform="matrix(-4.41e-8,1.73,-2.45,-6.27e-8,233,79.5)" xlink:href="#N"><stop stop-color="#ff4682" offset="0"/><stop stop-color="#ff3e7c" offset=".067"/><stop stop-color="#ffa0d6" offset=".819"/><stop stop-color="#ffaada" offset="1"/></radialGradient><radialGradient id="K" cx="148" cy="103" r="4" gradientTransform="matrix(-9,-1.56e-4,1.02e-5,-12.7,1496,1379)" xlink:href="#N"><stop stop-color="#ffff68" offset="0"/><stop stop-color="#ffff6a" offset=".554"/><stop stop-color="#ffff86" offset=".819"/><stop stop-color="#ffff86" offset="1"/></radialGradient><radialGradient id="L" cx="149" cy="69" r="22.1" gradientTransform="matrix(-1.63,2.87e-5,1.44e-6,-2.3,403,226)" xlink:href="#N"><stop stop-color="#b54d00" offset="0"/><stop stop-color="#b54d00" offset=".067"/><stop stop-color="#cfc900" offset=".794"/><stop stop-color="#cfc900" offset="1"/></radialGradient><path id="M" d="M600 132v28.5L589.5 150h-5l-4.5 4.5v5l28 28 28-28v-5l-4.5-4.5h-5L616 160.5V132h-1.5l-6 6h-1l-6-6zm4 9.5l2.5 2.5h3l2.5-2.5v10l-2.5 2.5h-3l-2.5-2.5zm0 12l2.5 2.5h3l2.5-2.5v12l-2.5 2.5h-3l-2.5-2.5zm-17.5 1.5h2l11 11h3l4 4h3l4-4h3l11-11h2l1.5 1.5v2l-23 23-23-23v-2z"/><linearGradient id="N" gradientUnits="userSpaceOnUse"/><linearGradient id="O" x1="615" x2="615" y1="134" y2="184" gradientUnits="userSpaceOnUse" spreadMethod="pad"><stop stop-color="#990" offset="0"/><stop stop-color="#eae100" offset=".379"/><stop stop-color="#fdf404" offset="1"/></linearGradient><linearGradient id="P" x1="615" x2="615" y1="134" y2="184" gradientUnits="userSpaceOnUse" spreadMethod="pad"><stop stop-color="#41ff41" offset="0"/><stop stop-color="#0f0" offset="1"/></linearGradient><radialGradient id="Q" cx="224" cy="110" r="16.1" gradientTransform="matrix(1.69e-6,-2.24,3.16,-9.98e-7,-98.8,594)" xlink:href="#N"><stop stop-color="#7aff46" offset="0"/><stop stop-color="#7aff46" offset=".363"/><stop stop-color="#c6ff18" offset=".819"/><stop stop-color="#c6ff18" offset="1"/></radialGradient></defs><use xlink:href="#R" transform="rotate(180 480 64)"/><use xlink:href="#R" transform="rotate(90 448 128)"/><use xlink:href="#R" transform="rotate(270 416 32)"/><g id="R"><path d="M411.998 57.97a4.04 4.04 0 0 0-4-4h-19.2l2.6-2.6c3.53-3.53 3.53-9.3 0-12.8-3.53-3.53-9.3-3.53-12.8 0l-22.6 22.6c-.72.72-1.17 1.74-1.17 2.83a4.03 4.03 0 0 0 1.17 2.83l22.6 22.6c3.53 3.53 9.3 3.53 12.8 0 3.53-3.53 3.53-9.3 0-12.8l-2.6-2.6h19.2a4.04 4.04 0 0 0 4-4 4.01 4.01 0 0 0-1.17-2.83l-3.17-3.17 3.17-3.17c.724-.724 1.17-1.74 1.17-2.83z" fill="#080808" paint-order="stroke fill markers" class="B"/><path d="M410 58a2 2 0 0 0-2-2h-24l6-6c2.77-2.77 2.77-7.23 0-10s-7.23-2.77-10 0l-22.6 22.6a1.99 1.99 0 0 0 0 2.82L380 88c2.77 2.77 7.23 2.77 10 0s2.775-7.235 0-10l-6-6h24a2 2 0 0 0 2-2c0-.554-.222-1.05-.584-1.42l-4.6-4.58 4.6-4.58c.362-.362.584-.862.584-1.42z" fill="#fff" paint-order="stroke fill markers"/></g><path d="M26-184l4.58 4.6c.78.78 2.05.78 2.83 0l4.582-4.588v24c.008 1.775 2.15 2.66 3.4 1.4l6-6c2-2 5.16-2 7.17 0s2 5.16 0 7.17l-22.6 22.6-22.6-22.6c-2-2-2-5.16 0-7.17s5.16-2 7.17 0l6 6c1.26 1.26 3.4.367 3.4-1.4L25.954-184z" transform="rotate(90 95.996 128.024)" fill="url(#I)" paint-order="stroke fill markers" class="B"/><path d="M26-120l4.58 4.6c.78.78 2.05.78 2.83 0l4.582-4.588v24a2 2 0 0 0 3.41 1.41l6-6c2-2 5.16-2 7.17 0s2 5.16 0 7.17l-22.6 22.6-22.6-22.6c-2-2-2-5.16 0-7.17s5.16-2 7.17 0l6 6c1.26 1.26 3.4.367 3.4-1.4L25.954-120z" transform="translate(416.028 159.98)" fill="url(#D)" paint-order="stroke fill markers" class="B"/><path d="M26 8l4.58 4.6c.78.78 2.05.78 2.83 0l4.582-4.588v24a2 2 0 0 0 3.41 1.41l6-6c2-2 5.16-2 7.17 0s2 5.16 0 7.17l-22.6 22.6-22.6-22.6c-2-2-2-5.16 0-7.17s5.16-2 7.17 0l6 6c1.26 1.26 3.4.367 3.4-1.4L25.954 8z" transform="rotate(270 319.976 -224.004)" fill="url(#C)" paint-order="stroke fill markers" class="B"/><path d="M26 136l4.58 4.6c.78.78 2.05.78 2.83 0l4.582-4.588v24a2 2 0 0 0 3.41 1.41l6-6c2-2 5.16-2 7.17 0s2 5.16 0 7.17l-22.6 22.6-22.6-22.6c-2-2-2-5.16 0-7.17s5.16-2 7.17 0l6 6c1.26 1.26 3.4.367 3.4-1.4L25.954 136z" transform="rotate(180 271.986 112.01)" fill="url(#B)" paint-order="stroke fill markers" class="B"/><path d="M33.5 69.9c-.768 0-1.54.32-2.17.955l-11.8 11.8 7.26 7.26a3.02 3.02 0 0 1 0 4.24l-7.26 7.26 11.8 11.8c1.27 1.27 3.07 1.27 4.34 0s1.27-3.07 0-4.34l-6-6c-1.2-1.2-1.43-3-.867-4.36.196-.473.5-.9.88-1.3l-.012-.012 3-3c.574-.574.9-1.35.88-2.17v-.027a3.02 3.02 0 0 0-.879-2.17l-3-3 .012-.012c-.378-.375-.683-.812-.88-1.3-.567-1.37-.332-3.16.867-4.36l6-6c.636-.636.955-1.4.955-2.17s-.32-1.54-.955-2.17c-.636-.636-1.4-.955-2.17-.955zM18.1 84.1l-7.96 7.96 7.96 7.96 7.26-7.26c.202-.202.303-.454.303-.707s-.1-.505-.303-.707zm15.6 3.96l.406.406a4.98 4.98 0 0 1 1.46 3.59 4.99 4.99 0 0 1-1.46 3.59l-.406.406h18l-1.17-1.17c-1.54-1.55-1.54-4.1 0-5.66l1.17-1.17z" transform="translate(351.516 -28.06)" fill="url(#J)" paint-order="stroke fill markers"/><path d="M92 72.2v18l.406-.406a4.98 4.98 0 0 1 3.59-1.46 4.99 4.99 0 0 1 3.59 1.46l.406.406v-18l-1.17 1.17c-1.55 1.54-4.1 1.54-5.66 0zm-15 15c-.768 0-1.54.32-2.17.955-1.27 1.27-1.27 3.07 0 4.34l11.8 11.8 7.26-7.26a3.02 3.02 0 0 1 4.24 0l7.26 7.26 11.8-11.8c1.27-1.27 1.27-3.07 0-4.34s-3.07-1.27-4.34 0l-6 6c-1.2 1.2-3 1.43-4.36.867-.473-.196-.9-.5-1.3-.88l-.012.012-3-3c-.574-.574-1.35-.9-2.17-.88H96a3.02 3.02 0 0 0-2.17.879l-3 3-.012-.012c-.375.378-.812.683-1.3.88-1.37.567-3.16.332-4.36-.867l-6-6c-.636-.636-1.4-.955-2.17-.955zm19 10.9c-.253 0-.505.1-.707.303l-7.26 7.26 7.96 7.96 7.96-7.96-7.26-7.26c-.202-.202-.454-.303-.707-.303z" transform="translate(352.007 -27.279)" fill="url(#E)" paint-order="stroke fill markers"/><g transform="translate(351.979 -29.259)"><path d="M156 93.7v18l1.17-1.17c1.55-1.54 4.1-1.54 5.66 0l1.17 1.17v-18l-.406.406a4.98 4.98 0 0 1-3.59 1.46 4.99 4.99 0 0 1-3.59-1.46z" fill="url(#K)" paint-order="stroke fill markers"/><path d="M160 70.2l-7.96 7.96 7.26 7.26c.202.202.454.303.707.303s.505-.1.707-.303l7.26-7.26zm-9.38 9.38l-11.8 11.8c-1.27 1.27-1.27 3.07 0 4.34s3.07 1.27 4.34 0l6-6c1.2-1.2 3-1.43 4.36-.867.473.196.9.5 1.3.88l.012-.012 3 3c.574.574 1.35.9 2.17.88h.027a3.02 3.02 0 0 0 2.17-.879l3-3 .012.012c.375-.378.812-.683 1.3-.88 1.37-.567 3.16-.332 4.36.867l6 6c.636.636 1.4.955 2.17.955s1.54-.32 2.17-.955c1.27-1.27 1.27-3.07 0-4.34l-11.8-11.8-7.26 7.26a3.02 3.02 0 0 1-4.24 0z" fill="url(#L)" paint-order="stroke fill markers"/></g><g transform="translate(352.384 -27.974)"><path d="M222 69.9c-.768 0-1.54.32-2.17.955-1.27 1.27-1.27 3.07 0 4.34l6 6c1.2 1.2 1.43 3 .867 4.36-.196.473-.5.9-.88 1.3l.012.012-3 3c-.574.574-.9 1.35-.88 2.17v.027a3.02 3.02 0 0 0 .879 2.17l3 3-.012.012c.378.375.683.812.88 1.3.567 1.37.332 3.16-.867 4.36l-6 6c-.636.636-.955 1.4-.955 2.17s.32 1.54.955 2.17c1.27 1.27 3.07 1.27 4.34 0l11.8-11.8-7.26-7.26a3.02 3.02 0 0 1 0-4.24l7.26-7.26-11.8-11.8c-.636-.636-1.4-.955-2.17-.955zM203.8 88l1.17 1.17c1.54 1.55 1.54 4.1 0 5.66L203.8 96h18l-.406-.406a4.98 4.98 0 0 1-1.46-3.59 4.99 4.99 0 0 1 1.46-3.59l.406-.406z" fill="url(#Q)" paint-order="stroke fill markers"/><path d="M238 84l-7.26 7.26c-.202.202-.303.454-.303.707s.1.505.303.707l7.26 7.26 7.96-7.96z" fill="url(#F)" paint-order="stroke fill markers"/></g><path d="M122 4.75v21.2h4.34v-7.4h6.14c2.3 0 4.05-.583 5.25-1.75s1.8-2.9 1.8-5.2c0-2.26-.6-3.97-1.83-5.14-1.2-1.18-2.95-1.77-5.22-1.77h-10.5zm26.9 0l-8.2 21.2h4.7l1.62-4.6h8.7l1.64 4.6h4.83L154 4.75h-5.12zm20.9 0c-2.1 0-3.66.505-4.7 1.52-1.03 1-1.55 2.56-1.55 4.66 0 4.17 2.08 6.25 6.25 6.25h3.64c1.73 0 2.6.854 2.6 2.56 0 1.7-.865 2.55-2.6 2.55h-9.38V26h10.2c2.07 0 3.65-.52 4.72-1.56 1.08-1.04 1.62-2.6 1.62-4.7s-.542-3.66-1.62-4.7c-1.07-1.05-2.66-1.58-4.75-1.58h-3.6c-1.67 0-2.5-.833-2.5-2.5 0-1.66.844-2.48 2.53-2.48h9.08V4.76h-9.94zm12.5 0v3.72h6.92v17.5h4.34V8.47h6.9V4.75h-18.2zm246 0c-5.42 0-8.12 2.7-8.12 8.1v13.2h4.34V17.9h9.9v-3.72h-9.9v-.766c0-.896.083-1.65.25-2.27.177-.625.458-1.13.844-1.52.396-.396.9-.677 1.52-.844.625-.177 1.4-.266 2.28-.266h5.34v-3.72h-6.45zm10.1 0v13.1c0 2.75.672 4.8 2.02 6.14 1.34 1.34 3.4 2.02 6.14 2.02h9.95V4.8h-4.4v17.5h-4.38c-.927 0-1.7-.088-2.34-.266s-1.15-.458-1.55-.844c-.385-.396-.667-.9-.844-1.55s-.266-1.4-.266-2.33V4.82h-4.34zm20.8 0v3.72h6.92v17.5h4.34V8.47h6.9V4.75h-18.2zm20.8 0v13.1c0 2.75.672 4.8 2.02 6.14 1.34 1.34 3.4 2.02 6.14 2.02h9.95V4.8h-4.4v17.5h-4.38c-.927 0-1.7-.088-2.34-.266s-1.15-.458-1.55-.844c-.385-.396-.667-.9-.844-1.55s-.266-1.4-.266-2.33V4.82H480zm23 0v21.2h4.34v-7.9h4.33l5.1 7.9h5.25l-5.5-8.2c.5-.125 1-.318 1.52-.578.52-.27.995-.65 1.42-1.14s.776-1.1 1.05-1.86.406-1.7.406-2.83c0-2.24-.594-3.9-1.78-5-1.2-1.1-2.9-1.66-5.14-1.66h-11zm31.5 0c-1.77 0-3.3.214-4.6.64s-2.38 1.08-3.23 1.95-1.5 1.98-1.9 3.3-.625 2.9-.625 4.72.208 3.4.625 4.72 1.05 2.44 1.9 3.3 1.93 1.53 3.23 1.95c1.3.427 2.84.64 4.6.64h6.48v-3.72h-5.62c-1.07 0-2-.094-2.78-.28-.78-.198-1.44-.5-1.97-.906a4.27 4.27 0 0 1-1.22-1.59c-.28-.646-.47-1.42-.562-2.33h11.5v-3.72h-11.5c.115-.906.318-1.68.6-2.3s.698-1.15 1.22-1.55 1.17-.682 1.94-.86 1.7-.266 2.77-.266h5.3v-3.72h-6.17zm-408 3.72h5.38c2.16 0 3.23 1.06 3.23 3.2 0 1.1-.27 1.92-.812 2.45-.542.52-1.35.78-2.42.78h-5.38V8.48zm381 0h5.86c1.04 0 1.82.23 2.34.688.53.458.797 1.22.797 2.28 0 1.03-.266 1.78-.797 2.25-.52.47-1.3.703-2.34.703h-5.86V8.47zm-356 .375l3.1 8.9h-6.23l3.14-8.9z" fill="#fff" stroke="#000" stroke-width="4" stroke-linejoin="round" paint-order="stroke fill markers" class="B"/><path d="M84 56H60l10-10v-7h-5L40 64l25 25h5v-7L60 72h24z" fill="#ff8484" paint-order="stroke fill markers"/><path d="M94 54H68.3l7.67-7.67v-6.66L70.3 34h-6.66l-29.7 29.7v.656l29.7 29.7h6.66l5.67-5.67v-6.66l-7.67-7.67H94v-4.33l-5.67-5.67 5.67-5.67zm-5.33 4L84 62.67v2.66L88.67 70h-30l13.3 13.3v3.34l-3.33 3.33H65.3l-26-26 26-26h3.34l3.33 3.33v3.34l-13.3 13.3z" paint-order="stroke fill markers" class="B"/><use transform="rotate(90 384 -160)" xlink:href="#M" fill="url(#G)" paint-order="stroke fill markers"/><path d="M118 34v25.7l-7.67-7.67h-6.66L98 57.7v6.66l29.7 29.7h.656l29.7-29.7V57.7l-5.67-5.67h-6.66l-7.67 7.67V34h-4.33l-5.67 5.67-5.67-5.67zm4 5.33l4.67 4.67h2.66l4.67-4.67v30l13.3-13.3h3.34l3.33 3.33v3.34l-26 26-26-26v-3.34l3.33-3.33h3.34l13.3 13.3z" paint-order="stroke fill markers" class="B"/><use xlink:href="#M" fill="url(#H)" paint-order="stroke fill markers" x="-480" y="-96"/><path d="M202 94V68.3l7.67 7.67h6.66L222 70.3v-6.66l-29.7-29.7h-.656l-29.7 29.7v6.66l5.67 5.67h6.66l7.67-7.67V94h4.33l5.67-5.67 5.67 5.67zm-4-5.33L193.33 84h-2.66L186 88.67v-30l-13.3 13.3h-3.34l-3.33-3.33V65.3l26-26 26 26v3.34l-3.33 3.33h-3.34l-13.3-13.3z" paint-order="stroke fill markers" class="B"/><path d="M197 73l-4-4h-2l-4 4v10h10z" fill="#990" paint-order="stroke fill markers"/><use transform="rotate(180 400 112)" xlink:href="#M" fill="url(#O)" paint-order="stroke fill markers"/><path d="M226 74h25.7l-7.67 7.67v6.66L249.7 94h6.66l29.7-29.7v-.656l-29.7-29.7h-6.66l-5.67 5.67v6.66l7.67 7.67H226v4.33l5.67 5.67-5.67 5.67zm5.33-4l4.67-4.67v-2.66L231.33 58h30l-13.3-13.3v-3.34l3.33-3.33h3.34l26 26-26 26h-3.34l-3.33-3.33v-3.34l13.3-13.3z" paint-order="stroke fill markers" class="B"/><path d="M261 69l4-4v-2l-4-4h-24v10z" fill="#83ff83" paint-order="stroke fill markers"/><use transform="rotate(270 384 288)" xlink:href="#M" fill="url(#P)" paint-order="stroke fill markers"/></svg>