<svg xmlns="http://www.w3.org/2000/svg" width="200" height="64" xmlns:v="https://vecta.io/nano"><path d="M2 0h4v56H2z" fill="#ef7741" paint-order="stroke fill markers"/><g fill="#f95dbf"><path d="M6 12h44v32H6z" paint-order="stroke fill markers"/><path d="M50 8h4v40h-4z" paint-order="stroke fill markers"/></g><g fill="#3786f3"><path d="M54 12h44v32H54z" paint-order="stroke fill markers"/><path d="M98 4h4v48h-4z" paint-order="stroke fill markers"/></g><g fill="#c737f3"><path d="M102 12h44v32h-44z" paint-order="stroke fill markers"/><path d="M146 8h4v40h-4z" paint-order="stroke fill markers"/></g><g fill="#ef7741"><path d="M150 12h44v32h-44z" paint-order="stroke fill markers"/><path d="M194 0h4v56h-4z" paint-order="stroke fill markers"/></g><path d="M18.516 51.047v2.18h2.408v-2.18zm-6.846.844v2.328h-1.31v1.828h1.31v4.273c0 .48.05.89.148 1.23s.256.617.467.834c.217.21.494.367.834.467s.754.148 1.24.148h2.61v-1.82h-1.934c-.352 0-.598-.072-.738-.22s-.21-.395-.21-.746v-4.168h2.883V54.22h-2.883V51.89zm49.262 1.398l-1.273 1.273 1.74 1.74H51.21v2.11h10.188l-1.74 1.74 1.273 1.273 3.455-3.453v-1.23zm-42.416.93V63h2.408v-8.78zm4.676 0V63H25.6v-6.89h2.777V63h2.408v-6.89h1.135c.586 0 1.004.127 1.256.38.258.252.387.67.387 1.256V63h2.408v-5.15c0-1.254-.293-2.172-.88-2.752-.58-.586-1.5-.88-2.76-.88zm18.826 0c-1.447 0-2.54.37-3.277 1.11s-1.107 1.83-1.107 3.277c0 1.453.37 2.55 1.107 3.287S40.57 63 42.018 63h3.332v-1.836h-3.023c-.398 0-.736-.04-1.012-.115-.275-.082-.5-.195-.676-.342a1.46 1.46 0 0 1-.396-.547c-.088-.21-.137-.445-.148-.703h5.115v-1.8h-5.115c.035-.27.1-.504.193-.703.1-.205.236-.375.412-.5a1.68 1.68 0 0 1 .66-.307 3.87 3.87 0 0 1 .967-.105h2.953V54.22z" fill="#fff" stroke="#070707" stroke-width="2" stroke-linejoin="round" paint-order="stroke fill markers"/></svg>