<svg xmlns="http://www.w3.org/2000/svg" xmlns:xlink="http://www.w3.org/1999/xlink" width="200" height="64" xmlns:v="https://vecta.io/nano"><defs><linearGradient id="A" gradientUnits="userSpaceOnUse"><stop offset="0" stop-color="#e7e72f"/><stop offset=".125" stop-color="#eacd98"/><stop offset=".25" stop-color="#f4b7b1"/><stop offset=".375" stop-color="#e7abeb"/><stop offset=".5" stop-color="#beb4f0"/><stop offset=".625" stop-color="#7dcdf1"/><stop offset=".75" stop-color="#7de3e2"/><stop offset=".875" stop-color="#a6ed6a"/><stop offset="1" stop-color="#e7e72f" stop-opacity=".983"/></linearGradient><linearGradient xlink:href="#A" id="B" x1="0" y1="56" x2="0" y2="8" spreadMethod="repeat"/><linearGradient xlink:href="#A" id="C" x1="-4" y1="68" x2="-4" y2="20" spreadMethod="repeat"/><linearGradient xlink:href="#A" id="D" x1="44" y1="80" x2="44" y2="32" spreadMethod="repeat"/><linearGradient xlink:href="#A" id="E" x1="44" y1="44" x2="44" y2="-4" spreadMethod="repeat"/></defs><g transform="translate(0 -762.5)"><path d="M2 762.5h4v56H2z" fill="#e7e72f" paint-order="stroke fill markers"/><path transform="matrix(1 0 0 .666667 2 769.16666)" d="M4 8h44v48H4z" fill="url(#C)" paint-order="stroke fill markers"/><path d="M50 770.5h4v40h-4z" fill="#f4b7b1" paint-order="stroke fill markers"/><path transform="matrix(1 0 0 .666667 50 769.16666)" d="M4 8h44v48H4z" fill="url(#D)" paint-order="stroke fill markers"/><path d="M98 766.5h4v48h-4z" fill="#beb4f0" paint-order="stroke fill markers"/><path transform="matrix(1 0 0 .666667 98 769.16666)" d="M4 8h44v48H4z" fill="url(#E)" paint-order="stroke fill markers"/><path d="M146 770.5h4v40h-4z" fill="#7de3e2" paint-order="stroke fill markers"/><path transform="matrix(1 0 0 .666667 146 769.16666)" d="M4 8h44v48H4z" fill="url(#B)" paint-order="stroke fill markers"/><path d="M194 762.5h4v56h-4z" fill="#e7e72f" paint-order="stroke fill markers"/><path d="M18.516 813.547v2.18h2.408v-2.18zm-6.846.844v2.328h-1.31v1.828h1.31v4.273c0 .48.05.89.148 1.23s.256.617.467.834c.217.21.494.367.834.467s.754.148 1.24.148h2.61v-1.82h-1.934c-.352 0-.598-.072-.738-.22s-.21-.395-.21-.746v-4.168h2.883v-1.828h-2.883v-2.328zm49.262 1.398l-1.273 1.273 1.74 1.74H51.21v2.11h10.188l-1.74 1.74 1.273 1.273 3.455-3.453v-1.23zm-42.416.93v8.78h2.408v-8.78zm4.676 0v8.78H25.6v-6.89h2.777v6.89h2.408v-6.89h1.135c.586 0 1.004.127 1.256.38.258.252.387.67.387 1.256v5.256h2.408v-5.15c0-1.254-.293-2.172-.88-2.752-.58-.586-1.5-.88-2.76-.88zm18.826 0c-1.447 0-2.54.37-3.277 1.11s-1.107 1.83-1.107 3.277c0 1.453.37 2.55 1.107 3.287s1.83 1.107 3.277 1.107h3.332v-1.836h-3.023c-.398 0-.736-.04-1.012-.115-.275-.082-.5-.195-.676-.342a1.46 1.46 0 0 1-.396-.547c-.088-.21-.137-.445-.148-.703h5.115v-1.8h-5.115c.035-.27.1-.504.193-.703.1-.205.236-.375.412-.5a1.68 1.68 0 0 1 .66-.307 3.87 3.87 0 0 1 .967-.105h2.953v-1.812z" fill="#fff" stroke="#070707" stroke-width="2" stroke-linejoin="round" paint-order="stroke fill markers"/></g></svg>