<!-- Created with Inkscape (http://www.inkscape.org/) --><svg xmlns:dc="http://purl.org/dc/elements/1.1/" xmlns:cc="http://creativecommons.org/ns#" xmlns:rdf="http://www.w3.org/1999/02/22-rdf-syntax-ns#" xmlns:svg="http://www.w3.org/2000/svg" xmlns="http://www.w3.org/2000/svg" xmlns:xlink="http://www.w3.org/1999/xlink" xmlns:sodipodi="http://sodipodi.sourceforge.net/DTD/sodipodi-0.dtd" xmlns:inkscape="http://www.inkscape.org/namespaces/inkscape" width="256" height="256" viewBox="0 0 256 256" version="1.1" id="svg8" inkscape:version="0.92.4 (5da689c313, 2019-01-14)" sodipodi:docname="sugar_rush_circles.svg">
  <defs id="defs2"/>
  <sodipodi:namedview id="base" pagecolor="#ffffff" bordercolor="#666666" borderopacity="1.0" inkscape:pageopacity="0.0" inkscape:pageshadow="2" inkscape:zoom="2.020979" inkscape:cx="88.75149" inkscape:cy="82.026003" inkscape:document-units="px" inkscape:current-layer="layer10" showgrid="false" units="px" inkscape:pagecheckerboard="true" borderlayer="true" gridtolerance="10" inkscape:snap-smooth-nodes="true" inkscape:snap-text-baseline="true" inkscape:snap-page="true" showguides="true" inkscape:guide-bbox="true" inkscape:snap-center="true">
    <inkscape:grid type="xygrid" id="grid4131" empspacing="4"/>
    <sodipodi:guide position="128,256" orientation="1,0" id="guide832" inkscape:locked="false"/>
    <sodipodi:guide position="0,128" orientation="0,1" id="guide834" inkscape:locked="false"/>
  </sodipodi:namedview>
  <metadata id="metadata5">
    <rdf:RDF>
      <cc:Work rdf:about="">
        <dc:format>image/svg+xml</dc:format>
        <dc:type rdf:resource="http://purl.org/dc/dcmitype/StillImage"/>
        <dc:title/>
      </cc:Work>
    </rdf:RDF>
  </metadata>
  <svg:g inkscape:groupmode="layer" id="layer3" inkscape:label="ring2" style="display:inline">
    <svg:path style="font-style:normal;font-variant:normal;font-weight:normal;font-stretch:normal;font-size:12px;line-height:1;font-family:Poppins;-inkscape-font-specification:Poppins;font-variant-ligatures:normal;font-variant-position:normal;font-variant-caps:normal;font-variant-numeric:normal;font-variant-alternates:normal;font-feature-settings:normal;text-indent:0;text-align:center;text-decoration:none;text-decoration-line:none;text-decoration-style:solid;text-decoration-color:#000000;letter-spacing:4px;word-spacing:normal;text-transform:none;writing-mode:lr-tb;direction:ltr;text-orientation:mixed;dominant-baseline:auto;baseline-shift:baseline;text-anchor:middle;white-space:normal;shape-padding:0;opacity:1;vector-effect:none;fill:#ffffff;fill-opacity:1;fill-rule:nonzero;stroke:none;stroke-width:4;stroke-linecap:round;stroke-linejoin:round;stroke-miterlimit:4;stroke-dasharray:none;stroke-dashoffset:0;stroke-opacity:0.62745098;paint-order:stroke fill markers" d="m 248.99805,133.94336 c -0.66228,-0.0478 -1.20771,0.17739 -1.63672,0.67578 -0.42104,0.49897 -0.66215,1.16804 -0.72266,2.00586 -0.0611,0.8458 0.1312,1.53321 0.57422,2.0625 0.44302,0.52929 0.9865,0.8166 1.63281,0.86328 0.4229,0.0305 0.78463,-0.027 1.08399,-0.17383 0.29935,-0.14681 0.53071,-0.34666 0.69336,-0.59961 0.16264,-0.25294 0.29875,-0.54052 0.41015,-0.86132 0.1188,-0.31226 0.22683,-0.62921 0.32227,-0.95118 0.0949,-0.31398 0.19968,-0.59907 0.31445,-0.85546 0.11477,-0.2564 0.2767,-0.46208 0.48828,-0.61524 0.21159,-0.15316 0.47023,-0.21721 0.77344,-0.19531 0.45482,0.0328 0.78602,0.20368 0.99609,0.51562 0.21806,0.31252 0.31077,0.70127 0.27735,1.16407 -0.034,0.47077 -0.17675,0.8333 -0.42774,1.08789 -0.25156,0.26256 -0.54164,0.39796 -0.87109,0.40625 l -0.0879,1.20898 c 0.65948,-0.0246 1.19018,-0.2626 1.5918,-0.71484 0.40902,-0.44369 0.64296,-1.0691 0.70117,-1.875 0.0576,-0.79792 -0.11129,-1.46424 -0.50586,-1.99805 -0.38717,-0.52525 -0.93064,-0.81257 -1.63281,-0.86328 -0.43088,-0.0311 -0.80009,0.0256 -1.10743,0.17187 -0.29935,0.14682 -0.53445,0.34725 -0.70507,0.59961 -0.16265,0.25294 -0.30308,0.53541 -0.42188,0.84766 -0.11938,0.32023 -0.2274,0.63719 -0.32226,0.95117 -0.0875,0.32254 -0.18797,0.61274 -0.30274,0.86914 -0.11477,0.2564 -0.27865,0.46013 -0.49023,0.61328 -0.20361,0.15374 -0.48843,0.21792 -0.85547,0.19141 -0.35907,-0.0259 -0.66329,-0.20437 -0.91211,-0.53516 -0.24882,-0.33078 -0.35444,-0.76048 -0.31641,-1.28711 0.038,-0.52662 0.18261,-0.91729 0.4336,-1.17187 0.25041,-0.2466 0.56407,-0.37212 0.9414,-0.37695 z m -0.94727,11.45312 c -0.65448,6.9e-4 -1.20876,0.18568 -1.66211,0.5586 -0.60446,0.49722 -0.98299,1.19675 -1.13672,2.0957 -0.15507,0.90684 -0.0299,1.6954 0.375,2.36524 0.40354,0.67771 1.0868,1.0972 2.04883,1.26171 l 5.32227,0.91016 0.18359,-1.07617 -5.32226,-0.91016 c -0.67816,-0.11597 -1.15655,-0.38397 -1.4336,-0.80468 -0.26916,-0.41938 -0.35006,-0.94338 -0.24219,-1.57422 0.10788,-0.63085 0.35873,-1.10016 0.75196,-1.40625 0.39976,-0.29687 0.93903,-0.38746 1.61718,-0.27149 l 5.32227,0.91016 0.1875,-1.08789 -5.32422,-0.91016 c -0.24051,-0.0411 -0.46934,-0.0608 -0.6875,-0.0606 z m -1.24023,11.99805 c -0.84844,-0.0815 -1.64449,0.0905 -2.38867,0.51563 -0.99225,0.56684 -1.64303,1.40133 -1.95508,2.50195 -0.31424,1.10831 -0.23907,2.13171 0.22656,3.07031 0.46563,0.93861 1.19842,1.60765 2.19922,2.00781 l 0.83203,0.23633 1.25,-4.41015 -0.83203,-0.23633 -0.93555,3.30273 c -0.79184,-0.31597 -1.35261,-0.8002 -1.68359,-1.45117 -0.33317,-0.64327 -0.38067,-1.38774 -0.14063,-2.23437 0.23786,-0.83894 0.72612,-1.4613 1.46485,-1.86719 0.73654,-0.39819 1.5787,-0.46372 2.52539,-0.19531 0.94668,0.2684 1.6249,0.76494 2.03515,1.48828 0.41577,0.73321 0.50049,1.53457 0.25391,2.40429 -0.31641,1.11602 -0.9935,1.78399 -2.0293,2.00586 l -0.35937,1.26953 c 0.82616,-0.0984 1.52745,-0.41801 2.10547,-0.96093 0.57583,-0.53523 0.98307,-1.21955 1.21875,-2.05078 0.32514,-1.1468 0.21309,-2.22134 -0.33399,-3.22461 -0.53938,-1.00109 -1.40065,-1.66981 -2.58594,-2.00586 -0.29439,-0.0835 -0.58437,-0.13885 -0.86718,-0.16602 z m -7.08008,11.82617 -0.41797,1.03321 1.44922,1.28515 -1.38477,3.42578 -1.93359,-0.082 -0.42188,1.04688 8.8379,0.32226 0.44921,-1.11328 z m 1.71484,2.93164 3.40821,3.03321 L 240.29492,175 Z m -6.74609,8.69336 -0.50781,0.9668 3.03906,1.59375 -0.49609,0.94727 -4.05469,0.33789 -0.63477,1.21093 4.14649,-0.41211 c -0.23552,0.68955 -0.24177,1.29705 -0.0195,1.82032 0.22223,0.52327 0.6223,0.93725 1.20312,1.24218 0.5879,0.30865 1.19969,0.34829 1.83398,0.1211 0.63058,-0.22011 1.16258,-0.74353 1.59766,-1.57227 l 1.25586,-2.39062 z m 3.29687,2.96289 2.78321,1.46094 -0.74805,1.42383 c -0.55036,1.04831 -1.2889,1.32894 -2.2168,0.8418 -0.43915,-0.23056 -0.71389,-0.54137 -0.82422,-0.9336 -0.10695,-0.38143 -0.0211,-0.8379 0.25782,-1.36914 z m -13.06054,13.33594 -0.6543,0.875 2.74609,2.05664 -0.64062,0.85547 -4.05664,-0.31055 -0.82031,1.09571 4.16015,0.25195 c -0.3421,0.64336 -0.44485,1.24103 -0.30859,1.79297 0.13626,0.55194 0.4672,1.02461 0.99219,1.41797 0.53138,0.39815 1.12672,0.53562 1.78906,0.41211 0.65754,-0.11711 1.26687,-0.54977 1.82812,-1.29883 l 1.61914,-2.16211 z m 2.7832,3.45117 2.51563,1.88477 -0.96485,1.28711 c -0.70996,0.94753 -1.48357,1.10692 -2.32226,0.47851 -0.39694,-0.29741 -0.61943,-0.64991 -0.66602,-1.05468 -0.045,-0.39358 0.11288,-0.83038 0.47266,-1.31055 z m -9.92383,6.6211 c -0.77743,0.0906 -1.47373,0.47211 -2.08984,1.14453 -0.62152,0.67832 -0.94437,1.40903 -0.9668,2.1914 -0.0278,0.78827 0.31945,1.51058 1.03906,2.16993 l 3.98047,3.64843 0.73828,-0.80468 -3.98242,-3.64844 c -0.50726,-0.46479 -0.76255,-0.94941 -0.76758,-1.45313 8.8e-4,-0.49831 0.21804,-0.9832 0.65039,-1.45507 0.43236,-0.47188 0.89624,-0.7291 1.39258,-0.77344 0.49684,-0.033 0.9986,0.1817 1.50586,0.64648 l 3.98047,3.64844 0.74609,-0.81445 -3.98046,-3.64649 c -0.71961,-0.65934 -1.46867,-0.94411 -2.2461,-0.85351 z m -8.42578,8.36523 c -0.64941,0.0671 -1.28714,0.3821 -1.91211,0.94336 -0.63092,0.56661 -0.97123,1.19428 -1.01953,1.88281 -0.0483,0.68854 0.14515,1.27375 0.57812,1.75586 0.28331,0.31546 0.58297,0.52493 0.9004,0.62696 0.31742,0.10202 0.62338,0.11808 0.91601,0.0488 0.29264,-0.0693 0.58975,-0.18029 0.89258,-0.33398 0.30223,-0.14239 0.59848,-0.2973 0.89062,-0.46289 0.28619,-0.16025 0.55975,-0.29347 0.82032,-0.39844 0.26056,-0.10497 0.52067,-0.13811 0.77929,-0.10156 0.25863,0.0366 0.49024,0.16835 0.69336,0.39453 0.30469,0.33927 0.42459,0.69406 0.35938,1.06445 -0.0599,0.37634 -0.2622,0.71927 -0.60742,1.0293 -0.35117,0.31538 -0.70707,0.47719 -1.06446,0.48633 -0.36333,0.0145 -0.66523,-0.0899 -0.9082,-0.3125 l -0.90234,0.81054 c 0.49189,0.43996 1.03956,0.63482 1.64257,0.5879 0.60241,-0.0356 1.20354,-0.3234 1.80469,-0.86329 0.59521,-0.53453 0.93711,-1.13089 1.02344,-1.78906 0.0857,-0.64687 -0.10773,-1.23208 -0.57813,-1.75586 -0.28865,-0.32141 -0.59324,-0.5346 -0.91601,-0.64258 -0.31743,-0.10202 -0.62585,-0.1219 -0.92383,-0.0586 -0.29263,0.0693 -0.59035,0.17402 -0.89258,0.31641 -0.30818,0.14773 -0.60443,0.30264 -0.89062,0.46289 -0.2868,0.17154 -0.56171,0.30909 -0.82227,0.41406 -0.26056,0.10497 -0.51871,0.14006 -0.77734,0.10352 -0.25328,-0.0306 -0.50411,-0.18324 -0.75,-0.45704 -0.24054,-0.26784 -0.33554,-0.60673 -0.28516,-1.01757 0.0504,-0.41084 0.27318,-0.79369 0.66602,-1.14649 0.39283,-0.35279 0.76761,-0.53188 1.125,-0.54101 0.35143,-0.004 0.66441,0.12249 0.93945,0.38086 l 0.86523,-0.77735 c -0.44366,-0.49402 -0.99172,-0.71153 -1.64648,-0.65039 z m -8.26758,6.41992 -0.8789,0.64649 2.22461,3.02539 -3.375,2.48242 -2.22461,-3.02734 -0.88868,0.65429 4.92579,6.69922 0.88867,-0.65234 -2.18946,-2.97852 3.375,-2.48047 2.18946,2.97657 0.8789,-0.64649 z" id="text869" inkscape:connector-curvature="0" inkscape:transform-center-x="-97.540653" inkscape:transform-center-y="55.209748"/>
    <svg:use x="0" y="0" xlink:href="#text869" inkscape:transform-center-x="97.540655" inkscape:transform-center-y="-55.209754" id="use875" transform="rotate(180,127.99999,128)" width="100%" height="100%"/>
    <svg:use height="100%" width="100%" transform="rotate(-120,127.99999,128)" id="use877" inkscape:transform-center-y="-116.94348" inkscape:transform-center-x="1.6487492" xlink:href="#text869" y="0" x="0"/>
    <svg:use x="0" y="0" xlink:href="#text869" inkscape:transform-center-x="-96.109961" inkscape:transform-center-y="-58.037661" id="use879" transform="rotate(-60,128,128)" width="100%" height="100%"/>
    <svg:use x="0" y="0" xlink:href="#text869" inkscape:transform-center-x="-1.6487504" inkscape:transform-center-y="116.94348" id="use881" transform="rotate(60,127.99998,128.00001)" width="100%" height="100%"/>
    <svg:use height="100%" width="100%" transform="rotate(120,127.99999,128)" id="use883" inkscape:transform-center-y="58.037655" inkscape:transform-center-x="96.109958" xlink:href="#text869" y="0" x="0"/>
  </svg:g>
  </svg>