<!-- Created with Inkscape (http://www.inkscape.org/) --><svg xmlns:dc="http://purl.org/dc/elements/1.1/" xmlns:cc="http://creativecommons.org/ns#" xmlns:rdf="http://www.w3.org/1999/02/22-rdf-syntax-ns#" xmlns:svg="http://www.w3.org/2000/svg" xmlns="http://www.w3.org/2000/svg" xmlns:xlink="http://www.w3.org/1999/xlink" xmlns:sodipodi="http://sodipodi.sourceforge.net/DTD/sodipodi-0.dtd" xmlns:inkscape="http://www.inkscape.org/namespaces/inkscape" width="256" height="256" viewBox="0 0 256 256" version="1.1" id="svg8" inkscape:version="0.92.4 (5da689c313, 2019-01-14)" sodipodi:docname="sugar_rush_circles.svg">
  <defs id="defs2"/>
  <sodipodi:namedview id="base" pagecolor="#ffffff" bordercolor="#666666" borderopacity="1.0" inkscape:pageopacity="0.0" inkscape:pageshadow="2" inkscape:zoom="2.020979" inkscape:cx="88.75149" inkscape:cy="82.026003" inkscape:document-units="px" inkscape:current-layer="layer10" showgrid="false" units="px" inkscape:pagecheckerboard="true" borderlayer="true" gridtolerance="10" inkscape:snap-smooth-nodes="true" inkscape:snap-text-baseline="true" inkscape:snap-page="true" showguides="true" inkscape:guide-bbox="true" inkscape:snap-center="true">
    <inkscape:grid type="xygrid" id="grid4131" empspacing="4"/>
    <sodipodi:guide position="128,256" orientation="1,0" id="guide832" inkscape:locked="false"/>
    <sodipodi:guide position="0,128" orientation="0,1" id="guide834" inkscape:locked="false"/>
  </sodipodi:namedview>
  <metadata id="metadata5">
    <rdf:RDF>
      <cc:Work rdf:about="">
        <dc:format>image/svg+xml</dc:format>
        <dc:type rdf:resource="http://purl.org/dc/dcmitype/StillImage"/>
        <dc:title/>
      </cc:Work>
    </rdf:RDF>
  </metadata>
  <svg:g inkscape:label="ring0" inkscape:groupmode="layer" id="layer1" transform="translate(0,-570.49999)" style="display:inline">
    <svg:path style="opacity:1;vector-effect:none;fill:#ffffff;fill-opacity:1;fill-rule:nonzero;stroke:none;stroke-width:4;stroke-linecap:round;stroke-linejoin:round;stroke-miterlimit:4;stroke-dasharray:none;stroke-dashoffset:0;stroke-opacity:0.62745098;paint-order:stroke fill markers" d="M 132.88867,0.09375 A 128,128 0 0 0 94.871094,4.3613281 128,128 0 0 0 17.148438,64 l 13.943359,8.050781 A 112.00001,112.00001 0 0 1 128,16 112.00001,112.00001 0 0 1 183.94922,31.091797 L 192,17.148438 A 128,128 0 0 0 132.88867,0.09375 Z M 240,128 a 112.00001,112.00001 0 0 1 -56.07031,96.87305 L 192,238.85156 A 128,128 0 0 0 256,128 Z M 19.861328,156.97656 4.3613281,161.12891 A 128,128 0 0 0 128,256 V 240 A 112.00001,112.00001 0 0 1 19.861328,156.97656 Z" transform="translate(0,570.49999)" id="path816" inkscape:connector-curvature="0"/>
  </svg:g>
  </svg>