<!-- Created with Inkscape (http://www.inkscape.org/) --><svg xmlns:dc="http://purl.org/dc/elements/1.1/" xmlns:cc="http://creativecommons.org/ns#" xmlns:rdf="http://www.w3.org/1999/02/22-rdf-syntax-ns#" xmlns:svg="http://www.w3.org/2000/svg" xmlns="http://www.w3.org/2000/svg" xmlns:xlink="http://www.w3.org/1999/xlink" xmlns:sodipodi="http://sodipodi.sourceforge.net/DTD/sodipodi-0.dtd" xmlns:inkscape="http://www.inkscape.org/namespaces/inkscape" width="256" height="256" viewBox="0 0 256 256" version="1.1" id="svg8" inkscape:version="0.92.4 (5da689c313, 2019-01-14)" sodipodi:docname="sugar_rush_circles.svg">
  <defs id="defs2"/>
  <sodipodi:namedview id="base" pagecolor="#ffffff" bordercolor="#666666" borderopacity="1.0" inkscape:pageopacity="0.0" inkscape:pageshadow="2" inkscape:zoom="2.020979" inkscape:cx="88.75149" inkscape:cy="82.026003" inkscape:document-units="px" inkscape:current-layer="layer10" showgrid="false" units="px" inkscape:pagecheckerboard="true" borderlayer="true" gridtolerance="10" inkscape:snap-smooth-nodes="true" inkscape:snap-text-baseline="true" inkscape:snap-page="true" showguides="true" inkscape:guide-bbox="true" inkscape:snap-center="true">
    <inkscape:grid type="xygrid" id="grid4131" empspacing="4"/>
    <sodipodi:guide position="128,256" orientation="1,0" id="guide832" inkscape:locked="false"/>
    <sodipodi:guide position="0,128" orientation="0,1" id="guide834" inkscape:locked="false"/>
  </sodipodi:namedview>
  <metadata id="metadata5">
    <rdf:RDF>
      <cc:Work rdf:about="">
        <dc:format>image/svg+xml</dc:format>
        <dc:type rdf:resource="http://purl.org/dc/dcmitype/StillImage"/>
        <dc:title/>
      </cc:Work>
    </rdf:RDF>
  </metadata>
  <svg:g inkscape:groupmode="layer" id="layer6" inkscape:label="ring5" style="display:inline">
    <svg:path style="opacity:1;vector-effect:none;fill:#ffffff;fill-opacity:1;fill-rule:nonzero;stroke:none;stroke-width:1.94094396;stroke-linecap:butt;stroke-linejoin:round;stroke-miterlimit:4;stroke-dasharray:0.24261801, 1.21309003000000004;stroke-dashoffset:0;stroke-opacity:1;paint-order:stroke fill markers" d="m 129.92773,2.9609375 -0.0957,7.5800785 0.94727,0.01172 0.0957,-7.5820309 z m -4.83203,0.011719 -1.04492,0.03125 0.28711,7.5761715 0.85156,-0.02734 z m 10.70508,0.2148438 -0.47851,7.5664057 0.94531,0.05859 0.47851,-7.5664059 z m -16.57812,0.058594 -1.04102,0.070312 0.66992,7.5527347 0.85156,-0.05664 z m 22.43554,0.4375 -0.86132,7.5332037 0.93945,0.107422 0.86133,-7.5332039 z m -28.28711,0.1054687 -0.9414,0.1074219 0.86133,7.5351571 0.93945,-0.109375 z m 34.11133,0.6640625 -1.23828,7.4785165 0.93555,0.15625 1.23828,-7.4804696 z m -39.93164,0.1523438 -0.93555,0.15625 1.24024,7.4804687 0.93555,-0.15625 z m 45.71484,0.8886718 -1.61328,7.4101559 0.92578,0.201172 1.61524,-7.4082029 z m -51.48828,0.2011719 -0.92578,0.2011719 1.61133,7.4082041 0.92578,-0.203126 z m 57.12305,1.0976563 -1.75195,7.1738277 0.77734,0.410156 1.98047,-7.3203119 z m -62.839843,0.2597656 -0.914063,0.2480468 1.980469,7.3203123 0.914063,-0.248047 z m 68.496093,1.3242187 -2.16211,7.2675774 0.81641,0.25 2.33984,-7.2109367 z m -74.138671,0.3027344 -0.902344,0.2929687 2.341797,7.2109373 0.902344,-0.291016 z m 79.712891,1.548828 -2.51953,7.148437 0.80469,0.285156 2.69531,-7.085937 z m -85.273438,0.34375 -0.884766,0.33789 2.69336,7.083985 0.886718,-0.333985 z m 90.753908,1.765625 -2.86914,7.017578 0.87695,0.359375 2.86914,-7.019532 z m -96.128908,0.353515 -0.955078,0.41211 3.037109,6.945312 0.785156,-0.339844 z m 101.501958,2.011719 -3.20704,6.869141 0.85938,0.402343 3.20508,-6.871093 z m -106.857427,0.394531 -0.9375,0.455078 3.375,6.789063 0.767578,-0.373047 z m 112.113277,2.220703 -3.53906,6.705079 0.83789,0.441406 3.53711,-6.703125 z m -117.347652,0.4375 -0.916016,0.494141 3.699219,6.617188 0.753907,-0.40625 z m 122.470702,2.423829 -3.85742,6.523437 0.81641,0.484375 3.85742,-6.527344 z m -127.574218,0.474609 -0.892578,0.535156 4.015625,6.431641 0.734375,-0.439453 z m 132.560548,2.619141 -4.16797,6.333984 0.79102,0.521484 4.16796,-6.333984 z m -137.523438,0.515624 -0.867188,0.574219 4.306641,6.238281 0.728516,-0.478515 z m 142.357418,2.810547 -4.46875,6.125 0.76563,0.560547 4.46875,-6.125 z m -147.164059,0.552735 -0.767578,0.558594 4.46875,6.125 0.765625,-0.558594 z m 151.835939,2.996094 -4.75586,5.904296 0.73828,0.59375 4.75586,-5.904296 z m -156.482423,0.585937 -0.738281,0.595703 4.755859,5.904297 0.738281,-0.59375 z m 160.984373,3.175781 -5.03125,5.671875 0.70899,0.628907 5.03125,-5.671876 z m -165.457029,0.621094 -0.708985,0.628906 5.03125,5.669922 0.708985,-0.628906 z m 169.779299,3.347656 -5.29883,5.423828 0.67969,0.66211 5.29687,-5.425782 z m -174.072268,0.652344 -0.675781,0.662109 5.296875,5.423829 0.677734,-0.66211 z m 178.203128,3.511719 -5.54883,5.166015 0.64453,0.69336 5.55078,-5.166016 z m -182.300784,0.685547 -0.646485,0.691406 5.550781,5.166016 0.644532,-0.69336 z m 186.234374,3.666015 -5.79102,4.896485 0.61329,0.724609 5.79101,-4.896484 z m -190.134765,0.714844 -0.611328,0.724609 5.789062,4.894532 0.611329,-0.722657 z m 193.861325,3.818359 -6.01562,4.613282 0.57422,0.751953 6.01758,-4.613281 z m -197.554684,0.742188 -0.574219,0.751953 6.015625,4.613281 0.578125,-0.751953 z m 201.015624,3.888672 -5.85742,4.169922 0.21484,0.998046 6.23242,-4.318359 z m -204.488281,0.839844 -0.541015,0.777343 6.232422,4.320313 0.539062,-0.779297 z m 207.773441,4.015624 -6.0293,3.96875 0.15234,0.925782 6.42969,-4.013672 z m -211.023441,0.869141 -0.501953,0.802735 6.431641,4.015624 0.501953,-0.804687 z m 214.082031,4.140625 -6.31055,3.730469 0.20704,0.873047 6.61718,-3.701172 z m -217.101562,0.892578 -0.460937,0.826172 6.617187,3.701172 0.462891,-0.828125 z m 219.919922,4.25586 -6.70703,3.539062 0.39062,0.759766 6.79102,-3.375 z m -222.699219,0.914062 -0.421875,0.84961 6.789063,3.373046 0.421875,-0.849609 z m 225.271489,4.361328 -6.86914,3.207032 0.35742,0.777343 6.94726,-3.039062 z m -227.804692,0.933594 -0.380859,0.869141 6.947265,3.039062 0.38086,-0.869141 z m 230.128902,4.457031 -7.01757,2.869141 0.34765,0.851562 7.0625,-2.755859 z m -232.412105,0.953125 -0.335937,0.886719 7.08789,2.693359 0.335938,-0.884765 z m 234.478515,4.544922 -7.15234,2.519531 0.3164,0.894532 7.15235,-2.519532 z m -236.4667962,0.882813 -0.328125,0.986328 7.2109372,2.341797 0.267578,-0.810547 z m 238.2714862,4.705078 -7.26563,2.162109 0.26953,0.910156 7.26758,-2.162109 z m -240.033205,0.898437 -0.2851562,1.001953 7.3183592,1.980469 0.234375,-0.820312 z m 241.572265,4.771485 -7.36523,1.796875 0.22461,0.919924 7.36523,-1.796878 z M 6.3339844,98.902344 6.0917969,99.917969 13.5,101.5293 l 0.199219,-0.82813 z m 244.3359356,4.828126 -7.44531,1.42773 0.17773,0.92969 7.44727,-1.42578 z m -245.5585919,0.91797 -0.1796875,0.93164 7.4472654,1.42773 0.177735,-0.93164 z m 246.5605519,4.87304 -7.50977,1.05079 0.13086,0.9375 7.50781,-1.05079 z m -247.51563,0.92579 -0.1289062,0.93945 7.5058592,1.04883 0.132813,-0.9375 z m 248.24219,4.90625 -7.55078,0.66992 0.082,0.94336 7.55273,-0.66992 z m -248.9238306,0.93164 -0.083984,0.94336 7.5527336,0.66992 0.08399,-0.94336 z m 249.3671906,4.83203 -7.45508,0.47265 -0.0879,0.39844 0.0176,0.45899 7.57617,-0.28711 z m -249.7753938,1.03125 -0.035156,0.94531 7.5761718,0.28906 0.03516,-0.94726 z m 249.9531238,4.84375 -7.58203,0.0957 0.0137,0.94922 2.83985,-0.0352 0.94921,-0.0137 3.79102,-0.0488 z m -242.470702,0.9707 -2.8398436,0.0352 -0.9492188,0.0137 -3.7910156,0.0488 0.011719,0.94726 7.582031,-0.0957 z m 234.843752,4.6543 -0.0352,0.94726 7.57617,0.28711 0.0352,-0.94531 z m -234.708986,0.93554 -7.5761721,0.28711 0.050781,1.04297 7.4550781,-0.47265 0.08789,-0.39844 z m 234.373046,4.54883 -0.084,0.94336 7.55273,0.66992 0.084,-0.94336 z m -233.986328,0.93164 -7.5527339,0.66992 0.083984,0.94336 7.5507819,-0.66992 z m 233.396488,4.53125 -0.13282,0.9375 7.50977,1.05078 0.12891,-0.93945 z m -232.759769,0.92578 -7.5078122,1.05079 0.1289062,0.9375 7.509766,-1.05079 z m 231.914059,4.50196 -0.17773,0.93164 7.44531,1.42773 0.17969,-0.93164 z m -231.023434,0.91992 -7.4472654,1.42578 0.1796875,0.93164 7.4453129,-1.42773 z M 242.5,154.4707 l -0.19922,0.82813 7.36524,1.79883 0.24218,-1.01563 z m -228.759766,0.81836 -7.365234,1.79688 0.2246094,0.91992 7.3652346,-1.79688 z m 227.398436,4.50586 -0.23437,0.82031 7.26758,2.16211 0.28515,-1.00195 z m -226.003904,0.8086 -7.2675785,2.1621 0.2714844,0.91016 7.2656251,-2.16211 z m 224.392574,4.44921 -0.26757,0.81055 7.15039,2.51758 0.32812,-0.98633 z m -222.748043,0.79688 -7.1523439,2.51953 0.3164063,0.89453 7.1523436,-2.51953 z m 220.890623,4.37891 -0.33594,0.88476 7.0879,2.69531 0.33593,-0.88671 z m -218.990232,0.8125 -7.0625,2.75586 0.392578,0.96484 7.017578,-2.86914 z m 216.892582,4.26953 -0.38086,0.86914 6.94726,3.03906 0.38086,-0.86914 z m -214.726567,0.85742 -6.947265,3.03906 0.435546,0.94531 6.869141,-3.20703 z m 212.392577,4.12305 -0.42187,0.8496 6.78906,3.37305 0.42187,-0.84961 z m -210.015624,0.83789 -6.791015,3.375 0.474609,0.92382 6.707031,-3.53906 z m 207.447264,4.02734 -0.46289,0.82813 6.61914,3.69921 0.46094,-0.82617 z m -204.841795,0.81641 -6.617187,3.70117 0.513671,0.90234 6.310547,-3.73047 z m 202.048825,3.92578 -0.50195,0.80468 6.43164,4.01368 0.50195,-0.80274 z m -199.216794,0.79297 -6.429687,4.01367 0.552734,0.88086 6.029297,-3.96875 z m 196.205074,3.8125 -0.53906,0.77929 6.23047,4.31836 0.54102,-0.77734 z m -193.154292,0.76953 -6.232422,4.31836 0.589843,0.84961 5.857422,-4.16993 z m 189.931642,3.6914 -0.57813,0.75196 6.01953,4.61328 0.57422,-0.75196 z m -186.671877,0.74219 -6.017578,4.61328 0.576172,0.75196 6.015625,-4.61329 z m 183.242187,3.56445 -0.61133,0.72266 5.78906,4.89648 0.61133,-0.7246 z m -179.779296,0.7129 -5.791016,4.89648 0.613281,0.72461 5.791016,-4.89649 z m 176.152346,3.42968 -0.64453,0.69336 5.54882,5.16406 0.64649,-0.6914 z m -172.49219,0.6836 -5.550781,5.16601 0.646484,0.69336 5.548828,-5.16601 z m 168.67773,3.28515 -0.67773,0.66211 5.29883,5.42383 0.67578,-0.66211 z m -164.832027,0.65235 -5.296875,5.42578 0.677734,0.66015 5.298829,-5.42382 z m 160.837887,3.13476 -0.70898,0.62891 5.03125,5.66992 0.70898,-0.62891 z m -156.812496,0.61914 -5.03125,5.67188 0.708984,0.6289 5.03125,-5.67187 z m 152.644536,2.97656 -0.73829,0.59376 4.75586,5.90624 0.73828,-0.5957 z m -148.447271,0.5879 -4.755859,5.90429 0.738281,0.59375 4.75586,-5.90429 z m 144.117191,2.81054 -0.76563,0.5586 4.4668,6.125 0.76758,-0.5586 z m -139.759769,0.55078 -4.46875,6.125 0.765625,0.56055 4.46875,-6.125 z m 135.214849,2.6836 -0.72852,0.47851 4.16797,6.33399 0.86719,-0.57422 z m -130.707036,0.47265 -4.167969,6.33399 0.791016,0.52148 4.167968,-6.33398 z m 126.060546,2.50782 -0.73437,0.43945 3.85742,6.52734 0.89258,-0.53515 z m -121.410156,0.43359 -3.857422,6.52734 0.816407,0.48047 3.857422,-6.52343 z m 116.646486,2.32031 -0.75391,0.40625 3.53711,6.70508 0.91602,-0.49414 z m -111.863282,0.40235 -3.53711,6.70312 0.835938,0.44336 3.539062,-6.70508 z m 106.974612,2.12304 -0.76758,0.37305 3.20508,6.87109 0.9375,-0.45507 z m -102.072269,0.36719 -3.205078,6.87109 0.857422,0.4004 3.207031,-6.86915 z m 97.072269,1.92578 -0.78516,0.33985 2.86719,7.01757 0.95508,-0.41211 z m -92.054691,0.33399 -2.86914,7.01953 0.876953,0.35742 2.86914,-7.01758 z m 86.953121,1.7207 -0.88671,0.33398 2.69531,7.08789 0.88476,-0.33789 z m -81.749996,0.33203 -2.695312,7.08594 0.980469,0.34765 2.519531,-7.14843 z m 76.558596,1.47852 -0.90235,0.29101 2.3418,7.21289 0.90235,-0.29297 z m -71.353518,0.28906 -2.339843,7.21094 0.99414,0.30664 2.16211,-7.26758 z m 66.083988,1.27344 -0.91407,0.24804 1.98047,7.32032 0.91407,-0.24805 z m -60.798831,0.24414 -1.980469,7.32031 1.005859,0.26367 1.751953,-7.17383 z m 55.462891,1.07226 -0.92578,0.20313 1.61133,7.40625 0.92578,-0.20117 z m -50.11523,0.19922 -1.61524,7.4082 0.92774,0.20313 1.61328,-7.41016 z m 44.72265,0.86328 -0.93555,0.15625 1.24024,7.48047 0.93555,-0.15625 z m -39.32422,0.1543 -1.23828,7.48047 0.93555,0.1543 1.23828,-7.47852 z m 33.88867,0.65625 -0.93945,0.10937 0.85938,7.53321 0.9414,-0.10742 z m -28.44531,0.10742 -0.86133,7.5332 0.93946,0.10743 0.86132,-7.53321 z m 22.88477,0.45508 -0.85156,0.0566 0.48046,7.56641 1.04102,-0.0703 z m -17.41602,0.0566 -0.47851,7.56641 0.94531,0.0586 0.47851,-7.56641 z m 11.92969,0.23242 -0.85156,0.0274 0.0937,7.58203 1.04492,-0.0332 z m -6.44141,0.0274 -0.0957,7.58203 0.94727,0.01 0.0957,-7.58008 z" id="path1423" inkscape:connector-curvature="0"/>
  </svg:g>
  </svg>