<!-- Created with Inkscape (http://www.inkscape.org/) --><svg xmlns:dc="http://purl.org/dc/elements/1.1/" xmlns:cc="http://creativecommons.org/ns#" xmlns:rdf="http://www.w3.org/1999/02/22-rdf-syntax-ns#" xmlns:svg="http://www.w3.org/2000/svg" xmlns="http://www.w3.org/2000/svg" xmlns:xlink="http://www.w3.org/1999/xlink" xmlns:sodipodi="http://sodipodi.sourceforge.net/DTD/sodipodi-0.dtd" xmlns:inkscape="http://www.inkscape.org/namespaces/inkscape" width="256" height="256" viewBox="0 0 256 256" version="1.1" id="svg8" inkscape:version="0.92.4 (5da689c313, 2019-01-14)" sodipodi:docname="sugar_rush_circles.svg">
  <defs id="defs2"/>
  <sodipodi:namedview id="base" pagecolor="#ffffff" bordercolor="#666666" borderopacity="1.0" inkscape:pageopacity="0.0" inkscape:pageshadow="2" inkscape:zoom="2.020979" inkscape:cx="88.75149" inkscape:cy="82.026003" inkscape:document-units="px" inkscape:current-layer="layer10" showgrid="false" units="px" inkscape:pagecheckerboard="true" borderlayer="true" gridtolerance="10" inkscape:snap-smooth-nodes="true" inkscape:snap-text-baseline="true" inkscape:snap-page="true" showguides="true" inkscape:guide-bbox="true" inkscape:snap-center="true">
    <inkscape:grid type="xygrid" id="grid4131" empspacing="4"/>
    <sodipodi:guide position="128,256" orientation="1,0" id="guide832" inkscape:locked="false"/>
    <sodipodi:guide position="0,128" orientation="0,1" id="guide834" inkscape:locked="false"/>
  </sodipodi:namedview>
  <metadata id="metadata5">
    <rdf:RDF>
      <cc:Work rdf:about="">
        <dc:format>image/svg+xml</dc:format>
        <dc:type rdf:resource="http://purl.org/dc/dcmitype/StillImage"/>
        <dc:title/>
      </cc:Work>
    </rdf:RDF>
  </metadata>
  <svg:g inkscape:groupmode="layer" id="layer5" inkscape:label="ring4" style="display:inline">
    <svg:path style="opacity:1;vector-effect:none;fill:#ffffff;fill-opacity:1;fill-rule:nonzero;stroke:none;stroke-width:4;stroke-linecap:round;stroke-linejoin:round;stroke-miterlimit:4;stroke-dasharray:none;stroke-dashoffset:0;stroke-opacity:0.62745098;paint-order:stroke fill markers" d="M 37.546875,37.546875 A 128,128 0 0 0 0,128 128,128 0 0 0 128,256 128,128 0 0 0 256,128 h -4 A 124,124 0 0 1 128,252 124,124 0 0 1 4,128 124,124 0 0 1 40.373047,40.373047 Z" id="path914" inkscape:connector-curvature="0"/>
    <svg:path style="color:#000000;font-style:normal;font-variant:normal;font-weight:normal;font-stretch:normal;font-size:medium;line-height:normal;font-family:sans-serif;font-variant-ligatures:normal;font-variant-position:normal;font-variant-caps:normal;font-variant-numeric:normal;font-variant-alternates:normal;font-feature-settings:normal;text-indent:0;text-align:start;text-decoration:none;text-decoration-line:none;text-decoration-style:solid;text-decoration-color:#000000;letter-spacing:normal;word-spacing:normal;text-transform:none;writing-mode:lr-tb;direction:ltr;text-orientation:mixed;dominant-baseline:auto;baseline-shift:baseline;text-anchor:start;white-space:normal;shape-padding:0;clip-rule:nonzero;display:inline;overflow:visible;visibility:visible;opacity:1;isolation:auto;mix-blend-mode:normal;color-interpolation:sRGB;color-interpolation-filters:linearRGB;solid-color:#000000;solid-opacity:1;vector-effect:none;fill:#ffffff;fill-opacity:1;fill-rule:nonzero;stroke:none;stroke-width:4;stroke-linecap:butt;stroke-linejoin:round;stroke-miterlimit:4;stroke-dasharray:4, 4;stroke-dashoffset:7.19999981;stroke-opacity:1;paint-order:stroke fill markers;color-rendering:auto;image-rendering:auto;shape-rendering:auto;text-rendering:auto;enable-background:accumulate" d="m 127.29297,6.0136719 -4.07422,0.082031 1.03125,24.8398441 0.0977,-0.0059 h 0.01 l 3.12305,-0.05664 z m -8.06641,0.3066406 -4.05859,0.3671875 2.57812,24.726562 3.2168,-0.292968 z M 111.125,7.1875 107.09961,7.8183594 111.3457,32.3125 l 3.19141,-0.501953 z m -8.02539,1.3964844 -3.97461,0.8964844 5.89648,24.1503902 3.1504,-0.710937 z m -7.916016,1.9238276 -3.904297,1.158204 7.515625,23.699218 3.099608,-0.919922 z m -7.769532,2.445313 -3.818359,1.414063 9.099609,23.136718 0.08008,-0.0332 0.01563,-0.0059 2.9375,-1.082032 z m -7.519531,2.931641 -3.71289,1.673828 10.521484,22.52539 2.847656,-1.291015 h 0.0039 l 0.09375,-0.03906 z m -7.367187,3.470703 -3.59375,1.914062 12.017578,21.761719 2.851562,-1.519531 z m -7.123047,3.947265 -3.458985,2.148438 13.458985,20.902344 2.746094,-1.705078 z m -6.84375,4.410157 -3.310547,2.373047 14.837891,19.947265 2.626953,-1.884765 z m -6.539063,4.853515 -3.144531,2.585938 16.150391,18.90039 L 67.523438,52 Z m -6.203125,5.275391 -2.96875,2.789062 17.390625,17.767579 2.357422,-2.212891 z m -5.787109,5.626953 -2.769531,2.986328 18.46289,16.652344 2.195313,-2.373047 z m -5.4375,6.064453 -2.564453,3.164063 19.542969,15.363281 2.035156,-2.511719 z m -5.023438,6.410156 -2.351562,3.328125 20.541016,14.00586 1.863281,-2.640625 z m -4.589843,6.730469 -2.125,3.476563 21.539062,12.46875 1.587891,-2.642579 z m -4.134766,7.019531 -1.892578,3.609375 22.246094,11.09961 1.503906,-2.859375 z m -3.628906,7.212891 -1.636719,3.732422 22.894531,9.689453 1.294922,-2.958984 z m -3.150391,7.515625 -1.388672,3.830078 23.496094,8.115235 1.101563,-3.03711 z m -2.652344,7.703125 -1.134765,3.912109 23.994141,6.503911 0.90039,-3.10352 z m -2.1406245,7.859375 -0.875,3.978515 24.3808595,4.86328 0.693359,-3.15625 z m -1.6171875,7.984375 -0.5976562,3.95508 24.6386722,3.33594 0.492187,-3.25586 z m -1.0605469,8.00195 -0.328125,4.06055 24.8046879,1.66211 0.259765,-3.22266 z m -0.5214843,8.12891 -0.058594,4.07227 24.8593752,-0.0195 0.04492,-3.23046 z m 24.8613282,7.28516 -24.8437501,0.85937 0.2089843,4.06641 24.8007808,-1.69727 z m 0.441406,6.44921 -24.7304686,2.53321 0.4785156,4.04492 24.630859,-3.36719 z m 0.863281,6.40625 -24.5019528,4.19727 0.7441407,4.00195 24.3476561,-5.01953 z m 1.285157,6.33594 -24.166016,5.8418 0.994141,3.875 23.990234,-6.52735 z m 1.730468,6.29102 -23.753906,7.33203 1.275391,3.86719 23.49414,-8.13086 z m 2.13086,6.10351 -23.205078,8.91797 1.529297,3.77344 22.890624,-9.69727 z m 2.529297,5.94727 -22.550782,10.4668 1.777344,3.66406 22.181641,-11.22071 z m 2.914062,5.76953 -21.791016,11.96484 2.015626,3.54102 21.375,-12.69922 z m 3.289063,5.5625 -20.931641,13.41406 2.244141,3.39844 20.466797,-14.11523 z m 3.630859,5.37305 -20.003906,14.70312 2.476562,3.23438 19.546875,-15.36328 z m 4.068359,5.07422 -19.013671,16.01562 2.685546,3.06445 18.457032,-16.65039 z m 4.335938,4.78711 -17.880859,17.26757 2.878906,2.88282 17.285156,-17.86524 z m 137.005863,2.70117 -2.34571,2.16406 16.63282,18.47656 2.99023,-2.76367 z M 62.792969,199.98047 46.125,218.42188 l 3.0625,2.68945 16.033203,-19 z m 127.576171,2.48242 -2.51367,2.03125 15.3457,19.55859 3.16602,-2.56054 z m -122.652343,1.70313 -15.380859,19.53125 3.173828,2.43359 14.820312,-19.96289 z m 117.560543,2.27539 -2.64453,1.86132 13.98828,20.55079 3.33008,-2.34571 z m -112.312496,1.59961 -14.134766,20.45117 3.396484,2.25 13.433594,-20.91992 z m 106.966796,2.0332 -2.75781,1.68359 12.5625,21.45117 3.47851,-2.12109 z m -101.519531,1.4414 -12.716797,21.36133 3.53711,2.01953 11.986328,-21.77929 z m 95.951171,1.83399 -2.86328,1.49805 11.08008,22.25586 3.60937,-1.88868 z m -90.287108,1.27539 -11.242188,22.17383 3.66211,1.78125 10.486328,-22.54102 z m 84.591798,1.66797 -3.0957,1.27539 9.66992,22.9043 3.73437,-1.63282 z m -78.732423,1.0625 -9.71875,22.88281 3.771484,1.5332 8.941407,-23.19726 z m 72.634763,1.41015 -3.03711,1.09571 8.0918,23.50586 3.83203,-1.38672 z m -66.609372,0.92969 -8.152344,23.48438 3.867187,1.28125 7.353516,-23.74805 z m 60.500002,1.16407 -3.10352,0.89648 6.47852,24 3.91406,-1.13086 z m -54.21094,0.83593 -6.738281,23.89844 3.943359,1.01367 5.865232,-24.16015 z m 47.97461,0.85352 -3.1582,0.6914 4.84179,24.38477 3.97852,-0.86914 z m -41.74805,0.59765 -5.04492,24.3418 4.00195,0.75 4.22071,-24.49805 z m 35.41406,0.67969 -3.19726,0.48242 3.17969,24.65821 4.02734,-0.60352 z m -29.04101,0.40235 -3.39063,24.62695 4.04297,0.48437 2.55664,-24.72851 z m 22.57227,0.45312 -3.22266,0.25391 1.63867,24.80664 4.06055,-0.32227 z m -16.14258,0.20898 -1.72071,24.79883 4.06641,0.21485 0.88281,-24.84375 z m 9.6914,0.19336 -3.23047,0.043 -0.043,24.85938 4.07226,-0.0547 z" id="path922" inkscape:connector-curvature="0"/>
  </svg:g>
  </svg>