<!-- Created with Inkscape (http://www.inkscape.org/) --><svg xmlns:dc="http://purl.org/dc/elements/1.1/" xmlns:cc="http://creativecommons.org/ns#" xmlns:rdf="http://www.w3.org/1999/02/22-rdf-syntax-ns#" xmlns:svg="http://www.w3.org/2000/svg" xmlns="http://www.w3.org/2000/svg" xmlns:xlink="http://www.w3.org/1999/xlink" xmlns:sodipodi="http://sodipodi.sourceforge.net/DTD/sodipodi-0.dtd" xmlns:inkscape="http://www.inkscape.org/namespaces/inkscape" width="256" height="256" viewBox="0 0 256 256" version="1.1" id="svg8" inkscape:version="0.92.4 (5da689c313, 2019-01-14)" sodipodi:docname="sugar_rush_circles.svg">
  <defs id="defs2"/>
  <sodipodi:namedview id="base" pagecolor="#ffffff" bordercolor="#666666" borderopacity="1.0" inkscape:pageopacity="0.0" inkscape:pageshadow="2" inkscape:zoom="2.020979" inkscape:cx="88.75149" inkscape:cy="82.026003" inkscape:document-units="px" inkscape:current-layer="layer10" showgrid="false" units="px" inkscape:pagecheckerboard="true" borderlayer="true" gridtolerance="10" inkscape:snap-smooth-nodes="true" inkscape:snap-text-baseline="true" inkscape:snap-page="true" showguides="true" inkscape:guide-bbox="true" inkscape:snap-center="true">
    <inkscape:grid type="xygrid" id="grid4131" empspacing="4"/>
    <sodipodi:guide position="128,256" orientation="1,0" id="guide832" inkscape:locked="false"/>
    <sodipodi:guide position="0,128" orientation="0,1" id="guide834" inkscape:locked="false"/>
  </sodipodi:namedview>
  <metadata id="metadata5">
    <rdf:RDF>
      <cc:Work rdf:about="">
        <dc:format>image/svg+xml</dc:format>
        <dc:type rdf:resource="http://purl.org/dc/dcmitype/StillImage"/>
        <dc:title/>
      </cc:Work>
    </rdf:RDF>
  </metadata>
  <svg:g inkscape:groupmode="layer" id="layer8" inkscape:label="ring7" style="display:inline">
    <svg:path style="color:#000000;font-style:normal;font-variant:normal;font-weight:normal;font-stretch:normal;font-size:medium;line-height:normal;font-family:sans-serif;font-variant-ligatures:normal;font-variant-position:normal;font-variant-caps:normal;font-variant-numeric:normal;font-variant-alternates:normal;font-feature-settings:normal;text-indent:0;text-align:start;text-decoration:none;text-decoration-line:none;text-decoration-style:solid;text-decoration-color:#000000;letter-spacing:normal;word-spacing:normal;text-transform:none;writing-mode:lr-tb;direction:ltr;text-orientation:mixed;dominant-baseline:auto;baseline-shift:baseline;text-anchor:start;white-space:normal;shape-padding:0;clip-rule:nonzero;display:inline;overflow:visible;visibility:visible;opacity:1;isolation:auto;mix-blend-mode:normal;color-interpolation:sRGB;color-interpolation-filters:linearRGB;solid-color:#000000;solid-opacity:1;vector-effect:none;fill:#ffffff;fill-opacity:1;fill-rule:nonzero;stroke:none;stroke-width:16;stroke-linecap:round;stroke-linejoin:round;stroke-miterlimit:4;stroke-dasharray:none;stroke-dashoffset:0;stroke-opacity:1;paint-order:stroke fill markers;color-rendering:auto;image-rendering:auto;shape-rendering:auto;text-rendering:auto;enable-background:accumulate" d="m 127.8457,0 c -2.05808,0.00235251 -4.12053,0.05383224 -6.18554,0.15625 a 8.0008,8.0008 0 1 0 0.79101,15.980469 c 28.91531,-1.434101 57.25669,8.380639 79.0918,27.390625 A 8.0008,8.0008 0 1 0 212.04883,31.460938 C 190.21755,12.45429 162.68271,1.487464 134.00586,0.140625 131.95751,0.04442222 129.90379,-0.00235251 127.8457,0 Z M 69.375,15.486328 a 8.0008,8.0008 0 0 0 -4.365234,1.085938 C 56.539395,21.360579 48.642811,27.098243 41.472656,33.675781 A 8.0008,8.0008 0 1 0 52.289062,45.466797 C 58.562957,39.711443 65.471228,34.68978 72.882812,30.5 A 8.0008,8.0008 0 0 0 69.375,15.486328 Z m 157.11523,36.189453 a 8.0008,8.0008 0 0 0 -6.35742,12.640625 c 1.0592,1.532392 2.08105,3.092471 3.0625,4.675782 A 8.0008,8.0008 0 1 0 236.79297,60.5625 c -1.12166,-1.809498 -2.28754,-3.590492 -3.49805,-5.341797 a 8.0008,8.0008 0 0 0 -6.80469,-3.544922 z m -200.142574,5.0625 a 8.0008,8.0008 0 0 0 -7.175781,3.878907 C 6.6395532,80.857743 1.1048546e-6,104.19372 0,128 a 8.0008,8.0008 0 1 0 16,0 c 1e-6,-20.83152 5.809074,-41.249586 16.775391,-58.960938 A 8.0008,8.0008 0 0 0 26.347656,56.738281 Z M 244.59375,93.001953 a 8.0008,8.0008 0 0 0 -7.44336,9.896487 c 4.79183,20.8374 3.52071,42.61077 -3.66601,62.74804 a 8.0008,8.0008 0 1 0 15.06835,5.37696 c 8.21297,-23.01278 9.66749,-47.8961 4.19141,-71.708987 a 8.0008,8.0008 0 0 0 -8.15039,-6.3125 z M 12.244141,150.95117 a 8.0008,8.0008 0 0 0 -7.8828129,10.17774 c 1.1543851,4.30822 2.5333304,8.5525 4.1308594,12.71679 a 8.0008,8.0008 0 1 0 14.9375005,-5.73047 c -1.39784,-3.64375 -2.603195,-7.35725 -3.613282,-11.12695 a 8.0008,8.0008 0 0 0 -7.572265,-6.03711 z m 176.978519,72.36719 a 8.0008,8.0008 0 0 0 -4.34571,1.16406 c -25.91683,15.27828 -56.88071,19.48707 -85.935544,11.68164 a 8.0008,8.0008 0 1 0 -4.15039,15.45313 c 33.198764,8.91867 68.599684,4.10578 98.212894,-13.35157 a 8.0008,8.0008 0 0 0 -3.78125,-14.94726 z" id="path1438" inkscape:connector-curvature="0"/>
  </svg:g>
  </svg>