<!-- Created with Inkscape (http://www.inkscape.org/) --><svg xmlns:dc="http://purl.org/dc/elements/1.1/" xmlns:cc="http://creativecommons.org/ns#" xmlns:rdf="http://www.w3.org/1999/02/22-rdf-syntax-ns#" xmlns:svg="http://www.w3.org/2000/svg" xmlns="http://www.w3.org/2000/svg" xmlns:xlink="http://www.w3.org/1999/xlink" xmlns:sodipodi="http://sodipodi.sourceforge.net/DTD/sodipodi-0.dtd" xmlns:inkscape="http://www.inkscape.org/namespaces/inkscape" width="256" height="256" viewBox="0 0 256 256" version="1.1" id="svg8" inkscape:version="0.92.4 (5da689c313, 2019-01-14)" sodipodi:docname="sugar_rush_circles.svg">
  <defs id="defs2"/>
  <sodipodi:namedview id="base" pagecolor="#ffffff" bordercolor="#666666" borderopacity="1.0" inkscape:pageopacity="0.0" inkscape:pageshadow="2" inkscape:zoom="2.020979" inkscape:cx="88.75149" inkscape:cy="82.026003" inkscape:document-units="px" inkscape:current-layer="layer10" showgrid="false" units="px" inkscape:pagecheckerboard="true" borderlayer="true" gridtolerance="10" inkscape:snap-smooth-nodes="true" inkscape:snap-text-baseline="true" inkscape:snap-page="true" showguides="true" inkscape:guide-bbox="true" inkscape:snap-center="true">
    <inkscape:grid type="xygrid" id="grid4131" empspacing="4"/>
    <sodipodi:guide position="128,256" orientation="1,0" id="guide832" inkscape:locked="false"/>
    <sodipodi:guide position="0,128" orientation="0,1" id="guide834" inkscape:locked="false"/>
  </sodipodi:namedview>
  <metadata id="metadata5">
    <rdf:RDF>
      <cc:Work rdf:about="">
        <dc:format>image/svg+xml</dc:format>
        <dc:type rdf:resource="http://purl.org/dc/dcmitype/StillImage"/>
        <dc:title/>
      </cc:Work>
    </rdf:RDF>
  </metadata>
  <svg:g inkscape:groupmode="layer" id="layer9" inkscape:label="ring8" style="display:inline">
    <svg:path style="color:#000000;font-style:normal;font-variant:normal;font-weight:normal;font-stretch:normal;font-size:medium;line-height:normal;font-family:sans-serif;font-variant-ligatures:normal;font-variant-position:normal;font-variant-caps:normal;font-variant-numeric:normal;font-variant-alternates:normal;font-feature-settings:normal;text-indent:0;text-align:start;text-decoration:none;text-decoration-line:none;text-decoration-style:solid;text-decoration-color:#000000;letter-spacing:normal;word-spacing:normal;text-transform:none;writing-mode:lr-tb;direction:ltr;text-orientation:mixed;dominant-baseline:auto;baseline-shift:baseline;text-anchor:start;white-space:normal;shape-padding:0;clip-rule:nonzero;display:inline;overflow:visible;visibility:visible;opacity:1;isolation:auto;mix-blend-mode:normal;color-interpolation:sRGB;color-interpolation-filters:linearRGB;solid-color:#000000;solid-opacity:1;vector-effect:none;fill:#ffffff;fill-opacity:1;fill-rule:nonzero;stroke:none;stroke-width:32;stroke-linecap:round;stroke-linejoin:round;stroke-miterlimit:4;stroke-dasharray:none;stroke-dashoffset:0;stroke-opacity:1;paint-order:stroke fill markers;color-rendering:auto;image-rendering:auto;shape-rendering:auto;text-rendering:auto;enable-background:accumulate" d="m 127.68359,0.00195313 c -9.02446,0.02149596 -18.0951,0.99795425 -27.06054,2.96093747 a 16.0016,16.0016 0 1 0 6.84375,31.2578124 c 26.91169,-5.892313 55.03241,0.05156 77.25781,16.330078 a 16.0016,16.0016 0 1 0 18.9082,-25.814453 C 181.42009,8.467106 154.75697,-0.06253478 127.68359,0.00195313 Z M 35.623047,48.371094 A 16.0016,16.0016 0 0 0 22.515625,55.494141 C 14.369199,67.345932 8.2774174,80.487202 4.4980469,94.363281 A 16.0016,16.0016 0 1 0 35.375,102.77148 C 38.209569,92.364278 42.776811,82.510066 48.886719,73.621094 a 16.0016,16.0016 0 0 0 -13.263672,-25.25 z M 239.75977,111.77344 A 16.0016,16.0016 0 0 0 224,128 c 0,16.85234 -4.43516,33.40545 -12.86133,48 a 16.0016,16.0016 0 1 0 27.71289,16 C 250.0855,172.54225 256,150.46788 256,128 A 16.0016,16.0016 0 0 0 239.75977,111.77344 Z M 17.853516,131.9707 A 16.0016,16.0016 0 0 0 2.0976562,151.07812 c 0.823127,4.49044 1.8857352,8.93367 3.1835938,13.31055 a 16.0016,16.0016 0 1 0 30.679688,-9.09765 c -0.973395,-3.28266 -1.769374,-6.6146 -2.386719,-9.98243 A 16.0016,16.0016 0 0 0 17.853516,131.9707 Z m 179.494144,67.82422 a 16.0016,16.0016 0 0 0 -9.89258,3.57813 C 156.56387,227.73989 114.07356,230.81105 80,211.13867 a 16.0016,16.0016 0 1 0 -16,27.71289 c 45.33323,26.17315 102.17418,22.0654 143.27344,-10.35351 a 16.0016,16.0016 0 0 0 -9.92578,-28.70313 z" id="path1487" inkscape:connector-curvature="0"/>
  </svg:g>
  </svg>