<svg width="36" height="36" version="1.1" xmlns="http://www.w3.org/2000/svg">
<path d="m18 1c-.027153 0-.054146.018138-.072266.054688-1.3397 2.192-4.8515 6.5403-8.1465 9.7188-2.7157 2.6304-7.0254 6.5396-7.0254 11.91 0 4.9686 3.4406 8.8047 7.5684 8.8047 3.4036 0 6.4079-1.7904 7.4941-5.8457.036211-.1096.073013-.25586.18164-.25586.10862 0 .1454.14626.18164.25586 1.0501 4.0553 4.0905 5.8457 7.4941 5.8457 4.1278 0 7.5684-3.836 7.5684-8.8047 0-5.407-4.3097-9.2797-7.0254-11.91-3.295-3.1785-6.8068-7.5267-8.1465-9.7188-.018103-.03655-.045113-.054688-.072266-.054688z" fill="#f00" stroke="#000" stroke-width="2" paint-order="stroke fill markers"/>
</svg>
