<svg xmlns="http://www.w3.org/2000/svg" height="112" width="720">
<path
d="M367.5 15.037c-1.15.052-2.262.417-3.328 1.094-1.7 1.06-2.914 2.946-3.64 5.658l-2.096 7.822 24.096 6.457.848-3.164-9.943-2.666.828-3.094 11.64-3.664 1.063-3.963-11.86 3.94c.234-2.173-.147-3.95-1.143-5.336s-2.443-2.333-4.344-2.842c-.72-.193-1.426-.274-2.117-.242zm-.574 3.293c.627-.062 1.32.01 2.078.213 1.437.385 2.446 1.114 3.027 2.19.565 1.046.614 2.44.148 4.178l-1.248 4.658-9.11-2.44 1.248-4.658c.69-2.573 1.975-3.953 3.855-4.14zm-85.553.39a16 16 0 0 0-15.996 15.996 4 4 0 0 0 3.998 4 16 16 0 0 0 15.998-15.998 4 4 0 0 0-4-3.998zm173 3.473c-2.433-.114-4.354 1.722-5.156 4.717-1.176 4.39 3.506 13.33 5.938 14.914 2.9-.157 11.425-5.558 12.602-9.947.917-3.422-.192-6.265-3.125-7.05-2.337-.626-4.646 1.335-5.926 3.732.1-2.717-.923-5.57-3.26-6.195-.367-.098-.725-.154-1.072-.17zm-173.346.17l.707.71-1.395 1.39-.707-.707 1.395-1.395zm-65.437 1.14c-4.4 0-9.36 2.4-9.36 8.158 0 3.76 2.88 6.8 2.88 10.24 0 4.48-1.44 16.237-2.56 21.756l-13.838.96c-12.478 1.04-16.717 5.118-16.717 12.477 0 8.56 6.478 15.12 14.877 15.12 11.358 0 19.998-9.998 25.117-22.316 3.2-.4 6.64-.96 8.318-1.44-1.28 6.32-2.08 12.16-2.08 14.398 0 4.4 2 6.16 5.68 6.16 5.758 0 12.93-5.232 17.947-10.652a20.39 20.39 0 0 0-.102 1.934c0 4.4 1.6 6.48 6.318 6.48 4.008 0 9.595-4.013 13.86-8.48.323 4 3.667 7.92 8.127 7.92 1.84 0 3.362-.56 4.242-1.52.08-6.8.24-10.238.56-13.838l3.6-1.44a44.65 44.65 0 0 0-.402 5.84c0 8.96 2.002 12.396 7.12 12.396 4.154 0 9.885-4.765 14.092-9.75 1.226 5.5 4.76 8.55 10.936 8.55 10.4 0 23.758-12.718 23.758-18.637 0-1.28-1.12-2.56-3.04-2.64-4.56 6.96-11.598 11.6-17.037 11.6-3.12 0-3.84-2-3.84-5.6 10.958-2.48 14.88-7.68 14.88-14.398 0-5.6-3.04-8.238-8.56-8.238-6.983 0-15.647 9.98-17.31 20.78-3.972 5.377-6.48 7.775-8.2 7.775-1.92 0-2.717-2.96-2.717-11.6 8.24-4.08 9.197-4.877 9.197-8.557 0-3.04-1.838-6.238-5.758-6.238-2.16 0-4.48 1.6-8.08 6.56-1.04 1.44-2 3.197-2.8 4.877l-5.357 2.242c.48-3.44 2.238-8.64 3.998-12.158 5.84-11.358 7.602-15.836 7.602-19.355 0-3.477-1.58-5.143-4.172-5.562-.805 3.053-2.4 5.873-4.66 8.143-2.422 2.422-5.467 4.067-8.756 4.813-1.747 5.998-3.088 14.35-4.375 25.148-5.33 7.54-8.91 10.1-10.027 10.1-.72 0-1.12-.32-1.12-1.2 0-1.84 1.04-4.4 3.28-9.918 1.44-3.36 2.8-6.72 2.8-8.8 0-3.12-.32-5.12-3.998-5.12-4.96 0-12.08 8.398-12.08 13.117a16.97 16.97 0 0 0 .266 3.047c-6.06 8.177-11.122 11.432-12.35 11.432-.8 0-1.12-.4-1.12-2.08 0-1.44.72-5.68 1.6-10.48 2.24-1.6 4.88-4.56 4.88-8.158 0-1.52-.8-3.44-2.72-4.32 3.28-12.958 4.32-14.077 10.96-14.717.88-.88 1.6-2.48 1.6-3.84 0-4.24-3.28-6.8-7.76-6.8-8.4 0-12.958 7.118-17.357 32.395-2.08.8-4.96 1.36-7.12 1.84 1.68-6.32 3.44-18.078 3.44-24.717 0-10.08-2.64-13.678-6.56-13.678zm63.338.963l.705.707-1.412 1.414-.707-.707 1.414-1.414zm138.512.717c-4 0-7.68 1.68-10.48 6.16-2.16 3.52-5.918 12.798-9.357 22.316-2.48-.48-5.36-1.84-7.68-3.6-2.08 1.28-3.36 3.12-3.36 5.52 0 3.2 3.36 5.76 7.918 6.398-1.36 3.28-2.88 6.398-4.72 9.918-1.76-.16-3.28-.238-4.64-.238-6 0-8.16 1.758-8.16 5.518 0 4.4 3.68 10.72 7.68 10.72 2.48 0 4.88-1.68 7.76-4.398 15.838 3.6 23.436 7.758 29.275 12.797 2.88-.8 5.28-4 5.28-7.998 0-5.6-4.56-12.078-25.996-15.678 2.32-3.36 5.118-8.16 6.078-10.96 17.838-5.6 25.996-15.198 25.996-23.197 0-6.88-6.24-13.277-15.598-13.277zm-140.633 1.404l.707.707-1.414 1.414-.707-.707 1.414-1.414zm192.87.645c.508 1.6.493 3.37.012 5.164-.848 3.163-3.588 5.6-6.412 7.662a28.77 28.77 0 0 1-4.219 2.563c-1.1.535-2.072.936-3.1 1.11-1.323 5.596-2.417 12.816-3.475 21.686-5.326 7.534-8.906 10.08-10.02 10.08-.72 0-1.12-.32-1.12-1.2 0-1.84 1.04-4.4 3.28-9.918 1.44-3.36 2.8-6.72 2.8-8.8 0-3.12-.32-5.12-3.998-5.12-4.96 0-12.08 8.398-12.08 13.117 0 1.6.16 3.44.8 4.96-2 4.96-2.88 8.24-2.88 11.76 0 4.4 1.6 6.48 6.318 6.48 4.008 0 9.596-4.014 13.863-8.48.322 4 3.664 7.922 8.125 7.922 1.84 0 3.362-.56 4.242-1.52.08-6.8.24-10.238.56-13.838l3.6-1.44a44.65 44.65 0 0 0-.402 5.84c0 8.96 2.002 12.396 7.12 12.396 4.154 0 9.885-4.765 14.092-9.75 1.226 5.5 4.76 8.55 10.936 8.55 5.418 0 11.623-3.46 16.34-7.604 1.26 5.594 5.513 8.564 10.727 8.564 7.2 0 15.438-3.76 15.438-13.44 0-5.84-4.56-12.48-4.56-16.078 0-1.44.88-1.92 2.56-1.92 1.28 0 2.72.32 4.24.96.96-.96 1.68-2.64 1.68-4.32 0-3.84-2.72-5.838-7.36-5.838-7.28 0-12.717 4.638-12.717 11.357 0 4.96 4.64 14.64 4.64 18.72 0 1.36-.88 1.838-1.68 1.838-1.84 0-4.56-2.398-5.2-5.918 1.36-1.52 2.08-2.72 2.08-4.4 0-2-2.24-5.598-5.04-5.598-2.736 0-4.165 3.785-4.79 7.674-4.044 3.924-8.77 6.324-12.676 6.324-3.12 0-3.84-2-3.84-5.6 10.958-2.48 14.88-7.68 14.88-14.398 0-5.6-3.04-8.238-8.56-8.238-6.983 0-15.647 9.98-17.31 20.78-3.972 5.377-6.48 7.775-8.2 7.775-1.92 0-2.717-2.96-2.717-11.6 8.24-4.08 9.197-4.877 9.197-8.557 0-3.04-1.838-6.238-5.758-6.238-2.16 0-4.48 1.6-8.08 6.56-1.04 1.44-2 3.197-2.8 4.877l-5.357 2.242c.48-3.44 2.238-8.64 3.998-12.158 5.84-11.358 7.602-15.836 7.602-19.355 0-3.74-1.83-5.384-4.785-5.633zm-194.992 1.477l.707.707-1.414 1.414-.707-.707 1.414-1.414zm-2.12 2.12l.707.707-1.414 1.414-.707-.707 1.414-1.414zm85.012 2.025l-.848 3.164 15.646 4.193c1.993.534 3.346 1.467 4.057 2.8.688 1.327.784 2.917.287 4.77s-1.376 3.185-2.635 4c-1.276.776-2.91.897-4.904.363l-15.646-4.193-.857 3.2 15.646 4.19c2.828.758 5.213.478 7.156-.84s3.27-3.297 3.977-5.94c.714-2.666.56-5.055-.465-7.168-1.018-2.136-2.94-3.582-5.768-4.34l-15.646-4.193zm-87.133.096l.707.705-1.414 1.418-.707-.71 1.414-1.412zM417.02 35.9c3.2 0 5.998 2 5.998 4.48 0 4.64-5.28 9.76-13.678 13.12l4.48-13.357c1.04-3.52 2.16-4.24 3.2-4.24zm-56.734 19.896c-2.08.036-4.035.602-5.865 1.695-2.945 1.72-4.88 4.306-5.807 7.76s-.546 6.673 1.14 9.658c1.66 2.98 4.276 4.948 7.846 5.904 3.546.95 6.807.557 9.78-1.18 2.95-1.743 4.89-4.343 5.816-7.797s.542-6.66-1.148-9.623c-1.684-2.985-4.31-4.956-7.88-5.912-1.34-.36-2.632-.528-3.88-.506zm-41.94 1.14c.96 0 1.6.96 1.6 2.64 0 2.4-.96 4.88-5.44 5.68.56-5.6 2.72-8.318 3.84-8.318zm183.52 0c.96 0 1.6.96 1.6 2.64 0 2.4-.96 4.88-5.44 5.68.56-5.6 2.72-8.318 3.84-8.318zm-141.63 2.16c.973.006 1.993.15 3.063.438 2.85.764 4.92 2.225 6.205 4.383s1.577 4.547.875 7.166-2.152 4.553-4.35 5.803-4.723 1.492-7.574.73-4.908-2.22-6.17-4.373c-1.28-2.18-1.567-4.582-.865-7.2.708-2.642 2.158-4.576 4.35-5.803 1.355-.77 2.845-1.15 4.467-1.14zM204.29 71.734c-2.16 5.76-5.358 10.24-9.117 10.24-3.28 0-6.96-3.28-6.96-6.48 0-1.68 1.438-2.72 5.758-2.96 3.84-.24 6.24-.4 10.318-.8zm141.29 5.81l-.94 3.512 10.482 9.145-13.658 2.713-.932 3.477 17.1-3.842 9.11 2.44.848-3.164-9.11-2.44-12.89-11.84z"
fill="#fff" paint-order="stroke fill markers"/></svg>