<svg xmlns="http://www.w3.org/2000/svg" width="720" height="64">
<path d="M533 10a2 2 0 0 0-2 2v4h4v-2h20v28h-2v4h4a2 2 0 0 0 2-2V12a2 2 0 0 0-2-2h-24zm-338.824 2c-.283.01-.56.087-.807.23l-31.676 18.29c-1.142.66-1.142 2.306 0 2.965l31.676 18.29c1.142.66 2.568-.166 2.568-1.484V13.713c0-.966-.797-1.74-1.762-1.713zM360 12c-11.046 0-20 8.954-20 20s8.954 20 20 20 20-8.954 20-20-8.954-20-20-20zm0 4c8.837 0 16 7.163 16 16s-7.163 16-16 16-16-7.163-16-16 7.163-16 16-16zm-168 1.566v28.867L167 32l25-14.434zM525 18a2 2 0 0 0-2 2v32a2 2 0 0 0 2 2h24a2 2 0 0 0 2-2V20a2 2 0 0 0-2-2h-24zm2 4h20v28h-20V22z"fill="#fff"/>
</svg>