<svg height="36" width="36">
<path
d="M 18 1 C 17.972847 1 17.945854 1.0181375 17.927734 1.0546875 C 16.588011 3.2467275 13.076238 7.5949775 9.78125 10.773438 C 7.065599 13.403887 2.7558594 17.313084 2.7558594 22.683594 C 2.7558594 27.652234 6.1964277 31.488281 10.324219 31.488281 C 13.727827 31.488281 16.732102 29.697858 17.818359 25.642578 C 17.85457 25.532978 17.891372 25.386719 18 25.386719 C 18.108623 25.386719 18.145401 25.532978 18.181641 25.642578 C 19.231693 29.697858 22.272165 31.488281 25.675781 31.488281 C 29.803565 31.488281 33.244141 27.652234 33.244141 22.683594 C 33.244141 17.276554 28.934402 13.403887 26.21875 10.773438 C 22.923762 7.5949775 19.411989 3.2467275 18.072266 1.0546875 C 18.054163 1.0181375 18.027153 1 18 1 z "
fill="#f00"
stroke="#000"
stroke-width="2"
paint-order="stroke fill markers"/></svg>
