<svg width="44" height="32" version="1.1" viewBox="0 0 44 32" xmlns="http://www.w3.org/2000/svg">
<g transform="translate(0 -794.5)">
<path transform="translate(0 794.5)" d="m8 2c-3.324 0-6 2.676-6 6v16c0 3.324 2.676 6 6 6h28c3.324 0 6-2.676 6-6v-16c0-3.324-2.676-6-6-6z" style="paint-order:fill markers stroke"/>
<path transform="translate(0 794.5)" d="m8 4c-2.216 0-4 1.784-4 4v16c0 2.216 1.784 4 4 4h28c2.216 0 4-1.784 4-4v-16c0-2.216-1.784-4-4-4zm0 4h4v4h-4zm6 0h4v4h-4zm6 0h4v4h-4zm6 0h4v4h-4zm6 0h4v4h-4zm-24 6h4v4h-4zm6 0h4v4h-4zm6 0h4v4h-4zm6 0h4v4h-4zm6 0h4v4h-4zm-18 6h16v4h-16z" fill="#fff" style="paint-order:fill markers stroke"/>
</g>
</svg>
