<svg width="44" height="32" version="1.1" viewBox="0 0 44 32" xmlns="http://www.w3.org/2000/svg">
<g>
<path d="m17.074 23.787c.99217 0 2.6975.18359 4.9336.18359 2.2361 0 3.9414-.18359 4.9336-.18359.72649 0 1.2563.10477 1.541.24024.28467.13546.41409.22174.61133.71484.77179 1.9295 1.5764 3.6489 2.9336 5.0059s3.3186 2.1523 5.5625 2.1523c2.1416 0 4.0543-1.2815 5.0566-3.0352 1.0024-1.7537 1.3691-3.9048 1.3691-6.3398 0-4.7466-1.0169-12.449-3.9316-17.137-.57343-2.5562-3.1769-5.3887-8.3945-5.3887-1.5254 0-2.6731.020508-3.8281.43555-.64609.23216-1.2167.73775-1.6777 1.3281-1.2212.16521-2.3571.33984-4.1758.33984-1.8186 0-2.9546-.17464-4.1758-.33984z" color="#000000" color-rendering="auto" dominant-baseline="auto" fill-opacity=".50196" image-rendering="auto" shape-rendering="auto" solid-color="#000000" style="font-feature-settings:normal;font-variant-alternates:normal;font-variant-caps:normal;font-variant-ligatures:normal;font-variant-numeric:normal;font-variant-position:normal;isolation:auto;mix-blend-mode:normal;paint-order:stroke fill markers;shape-padding:0;text-decoration-color:#000000;text-decoration-line:none;text-decoration-style:solid;text-indent:0;text-orientation:mixed;text-transform:none;white-space:normal"/>
<g transform="matrix(.092636 0 0 .092636 -11.435 6.5204)">
<path d="m256.5-70.387c-56.324 0-84.428 30.577-90.619 58.17-31.465 50.602-42.442 133.75-42.442 184.99 0 26.287 3.9595 49.507 14.78 68.438s31.467 32.764 54.586 32.764c24.223 0 45.397-8.5865 60.047-23.234 14.65-14.648 23.337-33.21 31.668-54.038 2.1151-5.2879 2.5677-5.0456 5.1234-6.0932 2.5557-1.0476 8.6016-1.9186 17.31-1.9186h10.795c23.389 0 44.257-11.029 59.794-26.566 15.537-15.537 26.566-36.405 26.566-59.794 0-31.305-11.978-51.813-22.728-62.261-5.0982-4.9547-8.6688-7.7027-9.804-8.8131-.12237-22.557-2.339-42.08-13.515-58.466-9.0174-13.221-24.522-19.638-41.24-22.454-5.0783-7.0825-11.447-13.311-18.997-16.024-12.469-4.4803-24.858-4.7017-41.324-4.7017z" color="#000000" color-rendering="auto" dominant-baseline="auto" image-rendering="auto" shape-rendering="auto" solid-color="#000000" style="font-feature-settings:normal;font-variant-alternates:normal;font-variant-caps:normal;font-variant-ligatures:normal;font-variant-numeric:normal;font-variant-position:normal;isolation:auto;mix-blend-mode:normal;paint-order:stroke fill markers;shape-padding:0;text-decoration-color:#000000;text-decoration-line:none;text-decoration-style:solid;text-indent:0;text-orientation:mixed;text-transform:none;white-space:normal"/>
<path transform="matrix(10.795 0 0 10.795 123.44 -70.387)" d="m12.326 2c-5.0256 0-6.5449 2.7855-6.623 4.2949-.0048713.0075696-.010782.013882-.015625.021484-2.4769 3.8882-3.6875 11.783-3.6875 16.209 0 4.4257 1.4753 7.375 4.4258 7.375 3.6881 0 5.1634-2.2123 6.6387-5.9004.71714-1.7929 2.1661-2 3.9355-2h1c3 0 6-3 6-6 0-5-3-4.416-3-6.416 0-4-1-5.9141-4.3398-5.9141-.29133-1.3782-1.4165-1.6699-4.334-1.6699zm-.73633 3.4102c1.9826 0 3.5898 1.6072 3.5898 3.5898 0 1.9826-1.6072 3.5898-3.5898 3.5898s-3.5898-1.6072-3.5898-3.5898c1e-7-1.9826 1.6072-3.5898 3.5898-3.5898zm6.4102 5.6387c1.019 0 1.8443.82673 1.8438 1.8457-.000539 1.0182-.82554 1.8438-1.8438 1.8438s-1.8432-.82554-1.8438-1.8438c-.00054-1.019.82478-1.8457 1.8438-1.8457zm-2.9512 2.9512c1.019-.00054 1.8457.82478 1.8457 1.8438s-.82673 1.8443-1.8457 1.8438c-1.0182-.000539-1.8438-.82554-1.8438-1.8438s.82554-1.8432 1.8438-1.8438zm5.9023 0c1.0182.000539 1.8438.82554 1.8438 1.8438s-.82554 1.8432-1.8438 1.8438c-1.019.00054-1.8457-.82478-1.8457-1.8438s.82673-1.8443 1.8457-1.8438zm-2.9512 2.9512c1.0182 0 1.8438.82554 1.8438 1.8438s-.82554 1.8438-1.8438 1.8438-1.8438-.82554-1.8438-1.8438.82554-1.8438 1.8438-1.8438z" fill="#fff" style="paint-order:stroke fill markers"/>
</g>
</g>
</svg>
