<svg width="44" height="32" version="1.1" viewBox="0 0 44 32" xmlns="http://www.w3.org/2000/svg">
<g>
<path d="m26.184 1.7637c-1.2212.16521-2.3571.33984-4.1758.33984-1.8186 0-2.9546-.17464-4.1758-.33984-.46106-.59038-1.0316-1.096-1.6777-1.3281-1.1551-.41504-2.3027-.43555-3.8281-.43555-5.2176 0-7.8211 2.8325-8.3945 5.3887-2.9148 4.6876-3.9316 12.39-3.9316 17.137 0 2.4351.36679 4.5862 1.3691 6.3398 1.0024 1.7537 2.915 3.0352 5.0566 3.0352 2.2439 0 4.2054-.79542 5.5625-2.1523 1.3571-1.3569 2.1618-3.0764 2.9336-5.0059.19724-.4931.32666-.57938.61133-.71484.28467-.13547.81453-.24024 1.541-.24024.99217 0 2.6975.18359 4.9336.18359 2.2361 0 3.9414-.18359 4.9336-.18359z" color="#000000" color-rendering="auto" dominant-baseline="auto" fill-opacity=".50196" image-rendering="auto" shape-rendering="auto" solid-color="#000000" style="font-feature-settings:normal;font-variant-alternates:normal;font-variant-caps:normal;font-variant-ligatures:normal;font-variant-numeric:normal;font-variant-position:normal;isolation:auto;mix-blend-mode:normal;paint-order:stroke fill markers;shape-padding:0;text-decoration-color:#000000;text-decoration-line:none;text-decoration-style:solid;text-indent:0;text-orientation:mixed;text-transform:none;white-space:normal"/>
<path d="m31.674 0c-1.5254 0-2.6731.020508-3.8281.43555-.69936.2513-1.2893.82828-1.7598 1.4844-1.562.1629-2.985.85535-3.8203 2.0801-1.0353 1.5179-1.2406 3.3264-1.252 5.416-.10516.10286-.43593.35742-.9082.81641-.99586.96784-2.1055 2.8676-2.1055 5.7676 0 2.1667 1.0217 4.0998 2.4609 5.5391 1.4393 1.4393 3.3724 2.4609 5.5391 2.4609h1c.8067 0 1.3668.08069 1.6035.17773.23675.09705.27867.07461.47461.56445.77179 1.9295 1.5764 3.6489 2.9336 5.0059s3.3186 2.1523 5.5625 2.1523c2.1416 0 4.0543-1.2815 5.0566-3.0352 1.0024-1.7537 1.3691-3.9048 1.3691-6.3398 0-4.7466-1.0169-12.449-3.9316-17.137-.57344-2.5562-3.1769-5.3887-8.3945-5.3887z" color="#000000" color-rendering="auto" dominant-baseline="auto" image-rendering="auto" shape-rendering="auto" solid-color="#000000" style="font-feature-settings:normal;font-variant-alternates:normal;font-variant-caps:normal;font-variant-ligatures:normal;font-variant-numeric:normal;font-variant-position:normal;isolation:auto;mix-blend-mode:normal;paint-order:stroke fill markers;shape-padding:0;text-decoration-color:#000000;text-decoration-line:none;text-decoration-style:solid;text-indent:0;text-orientation:mixed;text-transform:none;white-space:normal"/>
<path d="m31.674 2c-2.9175 0-4.0427.29168-4.334 1.6699-3.3398 0-4.3398 1.9141-4.3398 5.9141 0 2-3 1.416-3 6.416 0 3 3 6 6 6h1c1.7695 0 3.2184.20714 3.9355 2 1.4752 3.6881 2.9506 5.9004 6.6387 5.9004 2.9505 0 4.4258-2.9493 4.4258-7.375s-1.2106-12.321-3.6875-16.209c-.0048-.0076-.01073-.013914-.01563-.021484-.078108-1.5094-1.5974-4.2949-6.623-4.2949zm.75195 3c1.0182 0 1.8438.82554 1.8438 1.8438s-.82554 1.8438-1.8438 1.8438-1.8438-.82554-1.8438-1.8438.82554-1.8438 1.8438-1.8438zm-2.9512 2.9512c1.019-.0005397 1.8457.82478 1.8457 1.8438 0 1.019-.82673 1.8443-1.8457 1.8438-1.0182-.000539-1.8438-.82554-1.8438-1.8438 0-1.0182.82554-1.8432 1.8438-1.8438zm5.9023 0c1.0182 0 1.8438.82554 1.8438 1.8438 0 1.0182-.82554 1.8438-1.8438 1.8438s-1.8438-.82554-1.8438-1.8438c0-1.0182.82554-1.8438 1.8438-1.8438zm-2.9512 2.9492c1.0182 0 1.8432.82554 1.8438 1.8438.00054 1.019-.82478 1.8457-1.8438 1.8457s-1.8443-.82673-1.8438-1.8457c.000539-1.0182.82554-1.8438 1.8438-1.8438zm-6.4258 1.3535c1.9826 0 3.5898 1.6072 3.5898 3.5898s-1.6072 3.5898-3.5898 3.5898-3.5898-1.6072-3.5898-3.5898 1.6072-3.5898 3.5898-3.5898z" fill="#fff" style="paint-order:stroke fill markers"/>
</g>
</svg>
