<svg width="44" height="32" version="1.1" viewBox="0 0 44 32" xmlns="http://www.w3.org/2000/svg">
<path d="m20 4c-2.1854 0-4 1.8146-4 4v7.5781c-.62636-.37018-1.3335-.6183-2.0898-.60351h-.002c-2.7869.0565-4.7038 3.0736-3.5742 5.6211.000554.001-.000554.003 0 .004l2.9902 6.9746c1.2539 2.9256 4.0509 4.4257 6.6758 4.4257h9.0371l.03516-.002c2.6562-.0972 4.8286-2.2696 4.9258-4.9258l.00195-.03511v-6.7578c0-1.8947-1.0831-3.71-2.875-4.5215l-.12305-.05469-5.7109-1.7031h-1.291v-6c0-2.1854-1.8146-4-4-4z" fill="#000000" />
<circle cx="20" cy="7" r="7" fill="#000000"/>
<path d="m20 5c-1.1046 0-2 .89543-2 2v16.258l-2.1621-5.0449c-.31403-.76269-1.064-1.2544-1.8887-1.2383-1.4299.02899-2.3682 1.5057-1.7871 2.8125l3 7c.94721 2.2102 2.9044 3.2129 4.8379 3.2129h9c1.64-.06 2.94-1.36 3-3v-6.7207c0-1.16-.63922-2.2192-1.6992-2.6992l-5.3008-1.5801h-3v-9c0-1.1046-.89543-2-2-2z" fill="#fff"/>
</svg>
