<svg width="44" height="32" version="1.1" viewBox="0 0 44 32" xmlns="http://www.w3.org/2000/svg">
<g>
<path d="m12.326 3.8843e-8c-5.2176 0-7.8211 2.8325-8.3945 5.3887-2.9148 4.6876-3.9316 12.39-3.9316 17.137 0 2.4351.36679 4.5862 1.3691 6.3398 1.0024 1.7537 2.915 3.0352 5.0566 3.0352 2.2439 0 4.2054-.79542 5.5625-2.1523 1.3571-1.3569 2.1618-3.0764 2.9336-5.0059.19724-.4931.32666-.57938.61133-.71484.28467-.13547.81453-.24024 1.541-.24024.99217 0 2.6975.18359 4.9336.18359 2.2361 0 3.9414-.18359 4.9336-.18359.72649 0 1.2563.10477 1.541.24024.28467.13546.41409.22174.61133.71484.77179 1.9295 1.5764 3.6489 2.9336 5.0059s3.3186 2.1523 5.5625 2.1523c2.1416 0 4.0543-1.2815 5.0566-3.0352 1.0024-1.7537 1.3691-3.9048 1.3691-6.3398 0-4.7466-1.0169-12.449-3.9316-17.137-.57343-2.5562-3.1769-5.3887-8.3945-5.3887-1.5254 0-2.6731.020508-3.8281.43555-.64609.23216-1.2167.73775-1.6777 1.3281-1.2212.16521-2.3571.33984-4.1758.33984-1.8186 0-2.9546-.17464-4.1758-.33984-.46106-.59038-1.0316-1.096-1.6777-1.3281-1.1551-.41504-2.3027-.43555-3.8281-.43555z" color="#000000" color-rendering="auto" dominant-baseline="auto" image-rendering="auto" shape-rendering="auto" solid-color="#000000" style="font-feature-settings:normal;font-variant-alternates:normal;font-variant-caps:normal;font-variant-ligatures:normal;font-variant-numeric:normal;font-variant-position:normal;isolation:auto;mix-blend-mode:normal;paint-order:stroke fill markers;shape-padding:0;text-decoration-color:#000000;text-decoration-line:none;text-decoration-style:solid;text-indent:0;text-orientation:mixed;text-transform:none;white-space:normal"/>
<path d="m12.326 2c-5.0256 0-6.5449 2.7855-6.623 4.2949-.0048713.0075696-.010782.013882-.015625.021484-2.4769 3.8882-3.6875 11.783-3.6875 16.209s1.4753 7.375 4.4258 7.375c3.6881 0 5.1634-2.2123 6.6387-5.9004.71714-1.7929 2.2403-2.2129 4.0098-2.2129 1.1967 0 2.8129.18359 4.9336.18359 2.1206 0 3.7369-.18359 4.9336-.18359 1.7695 0 3.2926.42004 4.0098 2.2129 1.4752 3.6881 2.9506 5.9004 6.6387 5.9004 2.9505 0 4.4258-2.9493 4.4258-7.375s-1.2106-12.321-3.6875-16.209c-.0048-.0076-.01075-.013915-.01563-.021484-.078103-1.5094-1.5974-4.2949-6.623-4.2949-2.9175 0-4.0427.29168-4.334 1.6699-1.4859.20462-3.0072.43359-5.3477.43359-2.3404 0-3.8618-.22897-5.3477-.43359-.29133-1.3782-1.4165-1.6699-4.334-1.6699zm20.1 3.9277a1.844 1.844 0 011.8438 1.8438 1.844 1.844 0 01-1.8438 1.8457 1.844 1.844 0 01-1.8438-1.8457 1.844 1.844 0 011.8438-1.8438zm-20.836 1.2051a3.5898 3.5898 0 013.5898 3.5898 3.5898 3.5898 0 01-3.5898 3.5898 3.5898 3.5898 0 01-3.5898-3.5898 3.5898 3.5898 0 013.5898-3.5898zm17.885 1.7461a1.844 1.844 0 011.8457 1.8437 1.844 1.844 0 01-1.8457 1.8438 1.844 1.844 0 01-1.8438-1.8438 1.844 1.844 0 011.8438-1.8437zm5.9023 0a1.844 1.844 0 011.8438 1.8437 1.844 1.844 0 01-1.8438 1.8438 1.844 1.844 0 01-1.8438-1.8438 1.844 1.844 0 011.8438-1.8437zm-2.9512 2.9512a1.844 1.844 0 011.8438 1.8438 1.844 1.844 0 01-1.8438 1.8438 1.844 1.844 0 01-1.8438-1.8438 1.844 1.844 0 011.8438-1.8438z" fill="#fff" style="paint-order:stroke fill markers"/>
</g>
</svg>
