<svg xmlns="http://www.w3.org/2000/svg" width="24" height="24">
<path d="M12 2.5a9.5 9.5 0 1 0 0 19 9.5 9.5 0 1 0 0-19zM12 9a3 3 0 1 1 0 6 3 3 0 1 1 0-6z" fill="#fff"/>
<path d="M12 2L8.273 3.002 10.758 9h2.484l2.485-6zM3 8.273L2 12l1.002 3.727L9 13.242v-2.484zm17.998 0L15 10.758v2.484l6 2.485L22 12zM10.758 15l-2.485 6L12 22l3.727-1.002L13.242 15z" fill="#fc2828"/>
<path d="M12 1.5a10.5 10.5 0 1 0 0 21 10.5 10.5 0 1 0 0-21zM12 3a9 9 0 1 1 0 18 9 9 0 1 1 0-18zm0 5a4 4 0 1 0 0 8 4 4 0 1 0 0-8zm0 1.5a2.5 2.5 0 1 1 0 5 2.5 2.5 0 1 1 0-5z"fill="#000"/></svg>