<svg xmlns="http://www.w3.org/2000/svg" width="24" height="24"><defs><linearGradient id="A" x1="9.579" y1="12" x2="14.506" y2="12" gradientUnits="userSpaceOnUse"><stop offset="0" stop-color="#deded6"/><stop offset="1" stop-color="#acb7b7"/></linearGradient></defs><g stroke="#696969" stroke-width=".5" stroke-linejoin="round"><path d="M7 3v.3L10 6h4l3-2.7V3zm7.5 4.4l-5 3.3v1l5-3.2zm0 4l-5 3.3v1l5-3.2zm0 4l-5 3.3v1l5-3.2z" fill="#696969" paint-order="stroke fill markers"/><path d="M8 2S7 2 7 3l3 2h4l3-2s0-1-1-1H8zm2.5 4v3l-1 .7v1l5-3.3V6.3l-1 .7V6h-3zm3 3l-3 2v2l-1 .7v1l5-3.3v-1.1l-1 .7V9zm0 4l-3 2v2l-1 .7v1l5-3.3v-1.1l-1 .7v-2zm0 4l-3 2 1.5 3 1.5-3v-2z" fill="url(#A)" paint-order="stroke fill markers"/></g></svg>