<svg width="24" height="24" version="1.1" xmlns="http://www.w3.org/2000/svg">
<defs>
<linearGradient id="a" x1="10" x2="14" y1="0" y2="0" gradientUnits="userSpaceOnUse">
<stop stop-color="#deded6" offset="0"/>
<stop stop-color="#acb7b7" offset="1"/>
</linearGradient>
</defs>
<path d="m8 2c-.55228 0-1 .44772-1 1v.30078l3 2.6992h.5v3l-1 .69922v1 1l1-.64062v1.9414l-1 .69922v1 1l1-.64062v1.9414l-1 .69922v1 1l1.0234-.6543 1.4766 2.9551 1.5-3v-1.8594l1-.64062v-1.0996-1.0996l-1 .69922v-1.8594l1-.64062v-1.0996-1.0996l-1 .69922v-1.8594l1-.64062v-1.0996-1.0996l-1 .69922v-1h.5l3-2.6992v-.30078c0-.55228-.44772-1-1-1h-8z" fill="#666" stroke="#666" stroke-linejoin="round" stroke-width=".5" style="paint-order:stroke fill markers"/>
<path d="m8 2c-.55228 0-1 .44772-1 1l3 2h4l3-2c0-.55228-.44772-1-1-1h-8zm2.5 4v3l-1 .69922v1l5-3.2988v-1.0996l-1 .69922v-1h-3zm3 3-3 2v2l-1 .69922v1l5-3.2988v-1.0996l-1 .69922v-2zm0 4-3 2v2l-1 .69922v1l5-3.2988v-1.0996l-1 .69922v-2zm0 4-3 2 1.5 3 1.5-3v-2z" fill="url(#a)"/>
</svg>
