<?xml version="1.0" encoding="UTF-8" standalone="no"?>
<svg
   xmlns:dc="http://purl.org/dc/elements/1.1/"
   xmlns:cc="http://creativecommons.org/ns#"
   xmlns:rdf="http://www.w3.org/1999/02/22-rdf-syntax-ns#"
   xmlns:svg="http://www.w3.org/2000/svg"
   xmlns="http://www.w3.org/2000/svg"
   id="svg8"
   version="1.1"
   viewBox="0 0 24 24"
   height="24"
   width="24">
  <defs
     id="defs2" />
  <metadata
     id="metadata5">
    <rdf:RDF>
      <cc:Work
         rdf:about="">
        <dc:format>image/svg+xml</dc:format>
        <dc:type
           rdf:resource="http://purl.org/dc/dcmitype/StillImage" />
        <dc:title></dc:title>
      </cc:Work>
    </rdf:RDF>
  </metadata>
  <g
     transform="translate(0,-802.49999)"
     id="layer1">
    <path
       id="path819"
       transform="translate(0,802.49999)"
       d="M 12 3 C 8 2.999995 4.1388556 3.2595819 3.6992188 3.6992188 C 3.2595818 4.1388556 3 7.999995 3 12 C 3 16.000005 3.2595819 19.861144 3.6992188 20.300781 C 4.1388557 20.740418 8 21 12 21 C 16 21 19.861144 20.740418 20.300781 20.300781 C 20.740418 19.861144 21 16.000005 21 12 C 21 7.999995 20.740418 4.1388556 20.300781 3.6992188 C 19.861144 3.2595818 16 3.000005 12 3 z "
       style="opacity:1;vector-effect:none;fill:#9b969d;fill-opacity:1;fill-rule:nonzero;stroke:none;stroke-width:2;stroke-linecap:butt;stroke-linejoin:round;stroke-miterlimit:4;stroke-dasharray:none;stroke-dashoffset:0;stroke-opacity:1;paint-order:fill markers stroke" />
    <path
       id="path835"
       transform="translate(0,802.49999)"
       d="M 15,0 C 13.692398,0 12.681954,0.05182126 11.90625,0.140625 11.518398,0.1850269 11.191815,0.2355439 10.873047,0.31445312 10.554278,0.39336243 10.299355,0.27291043 9.5859375,0.98632812 8.9554727,1.6167929 9.0455506,1.8436041 8.9980469,2.0488281 8.0735483,2.0803125 7.2012303,2.1271361 6.4355469,2.1875 5.6558664,2.2489674 4.9856656,2.3241861 4.4453125,2.4199219 4.1751359,2.4677898 3.9386064,2.5196867 3.7167969,2.5898438 3.4949874,2.6600006 3.2885047,2.6958702 2.9921875,2.9921875 2.6958702,3.2885047 2.6600005,3.4949874 2.5898438,3.7167969 2.5196868,3.9386064 2.4677895,4.1751361 2.4199219,4.4453125 2.3241865,4.9856653 2.2489671,5.6558669 2.1875,6.4355469 2.0645659,7.9949068 2,9.9783657 2,12 c 0,2.021634 0.064566,4.005093 0.1875,5.564453 0.061467,0.77968 0.1366865,1.449882 0.2324219,1.990235 0.047868,0.270175 0.099765,0.506706 0.1699219,0.728515 0.070157,0.22181 0.1060266,0.428292 0.4023437,0.724609 0.2963175,0.296318 0.5027998,0.332187 0.7246094,0.402344 0.2218096,0.07016 0.458339,0.122054 0.7285156,0.169922 0.5403531,0.09574 1.2105541,0.170955 1.9902344,0.232422 C 7.9949074,21.935434 9.9783682,22 12,22 c 2.021632,0 4.005093,-0.06457 5.564453,-0.1875 0.77968,-0.06147 1.449881,-0.136687 1.990235,-0.232422 0.270175,-0.04787 0.506706,-0.09977 0.728515,-0.169922 0.22181,-0.07016 0.428292,-0.106026 0.724609,-0.402344 0.296318,-0.296316 0.332187,-0.502799 0.402344,-0.724609 0.07016,-0.221809 0.122054,-0.458339 0.169922,-0.728515 0.09574,-0.540353 0.170955,-1.210555 0.232422,-1.990235 0.06036,-0.765683 0.107188,-1.638001 0.138672,-2.5625 0.205224,-0.0475 0.432035,0.04258 1.0625,-0.587891 0.713417,-0.713416 0.592966,-0.96834 0.671875,-1.287109 0.07891,-0.318768 0.129426,-0.645351 0.173828,-1.033203 C 23.948179,11.318041 24,10.307602 24,9 24,7.4757369 23.974905,6.0118818 23.863281,4.7675781 23.807469,4.1454263 23.733043,3.5806984 23.601562,3.0390625 23.470083,2.4974266 23.381978,1.9522903 22.714844,1.2851562 22.04771,0.61802227 21.502573,0.52991715 20.960938,0.3984375 20.419301,0.26695785 19.854574,0.1925305 19.232422,0.13671875 17.988118,0.02509526 16.524263,0 15,0 Z M 8.859375,4.0605469 c 0.00685,0.2002408 0.00409,0.3992185 0.027344,0.6035156 0.020171,0.1772007 0.043343,0.3526938 0.1035156,0.5800781 0.060173,0.2273843 0.03879,0.5133994 0.5957031,1.0703125 0.6376345,0.6376345 1.0514835,0.6239435 1.4003905,0.6933594 0.183816,0.036571 0.387347,0.047704 0.576172,0.068359 -0.363979,0.461676 -0.78983,0.8930074 -1.115234,1.328125 -0.5589834,0.7474492 -1.0422137,1.4250886 -1.3984379,1.9511721 -0.1781121,0.263041 -0.323185,0.485594 -0.4433593,0.683593 -0.060087,0.099 -0.1125278,0.187087 -0.1738282,0.306641 -0.03065,0.05978 -0.062924,0.1253 -0.1074218,0.238281 -0.044498,0.112981 -0.1484375,0.187243 -0.1484376,0.765625 1e-7,0.985952 0.3710331,1.318324 0.5898438,1.609375 0.2188107,0.291052 0.4208659,0.497039 0.5996094,0.675782 0.1787418,0.178741 0.3847297,0.380799 0.6757816,0.599609 0.291051,0.21881 0.623423,0.589844 1.609375,0.589844 0.578382,0 0.652644,-0.10394 0.765625,-0.148438 0.112981,-0.0445 0.178504,-0.07677 0.238281,-0.107422 0.119554,-0.0613 0.207641,-0.113741 0.306641,-0.173828 0.197998,-0.120174 0.420552,-0.265247 0.683593,-0.443359 0.526083,-0.356224 1.203723,-0.839455 1.951172,-1.398438 0.435118,-0.325404 0.866449,-0.751255 1.328125,-1.115234 0.02066,0.188825 0.03179,0.392356 0.06836,0.576172 0.06942,0.348907 0.05572,0.762757 0.693359,1.40039 0.556913,0.556915 0.842928,0.535531 1.070312,0.595704 0.227385,0.06017 0.402878,0.08334 0.580079,0.103515 0.204296,0.02325 0.403274,0.02049 0.603515,0.02734 -0.03035,0.815453 -0.06856,1.599181 -0.121094,2.265625 -0.05838,0.74056 -0.130447,1.368522 -0.207031,1.800781 -0.02673,0.150855 -0.0502,0.236349 -0.07422,0.330078 -0.09373,0.02402 -0.179223,0.04749 -0.330078,0.07422 -0.432259,0.07658 -1.060221,0.148648 -1.800781,0.207031 C 15.92513,19.935124 13.978368,20 12,20 10.021632,20 8.0748708,19.935125 6.59375,19.818359 5.8531896,19.759976 5.225228,19.687912 4.7929688,19.611328 4.6421142,19.584601 4.5566202,19.561126 4.4628906,19.537109 4.4388742,19.44338 4.415399,19.357886 4.3886719,19.207031 4.3120877,18.774772 4.2400236,18.14681 4.1816406,17.40625 4.0648746,15.92513 4,13.978371 4,12 4,10.021629 4.0648746,8.0748702 4.1816406,6.59375 4.2400236,5.8531899 4.3120877,5.2252275 4.3886719,4.7929688 4.415399,4.6421143 4.4388742,4.55662 4.4628906,4.4628906 4.5566202,4.4388741 4.6421142,4.4153992 4.7929688,4.3886719 5.225228,4.3120874 5.8531897,4.2400239 6.59375,4.1816406 7.2601939,4.1291004 8.0439212,4.0908921 8.859375,4.0605469 Z"
       style="color:#000000;font-style:normal;font-variant:normal;font-weight:normal;font-stretch:normal;font-size:medium;line-height:normal;font-family:sans-serif;font-variant-ligatures:normal;font-variant-position:normal;font-variant-caps:normal;font-variant-numeric:normal;font-variant-alternates:normal;font-feature-settings:normal;text-indent:0;text-align:start;text-decoration:none;text-decoration-line:none;text-decoration-style:solid;text-decoration-color:#000000;letter-spacing:normal;word-spacing:normal;text-transform:none;writing-mode:lr-tb;direction:ltr;text-orientation:mixed;dominant-baseline:auto;baseline-shift:baseline;text-anchor:start;white-space:normal;shape-padding:0;clip-rule:nonzero;display:inline;overflow:visible;visibility:visible;opacity:1;isolation:auto;mix-blend-mode:normal;color-interpolation:sRGB;color-interpolation-filters:linearRGB;solid-color:#000000;solid-opacity:1;vector-effect:none;fill:#545a5b;fill-opacity:1;fill-rule:nonzero;stroke:none;stroke-width:4;stroke-linecap:butt;stroke-linejoin:round;stroke-miterlimit:4;stroke-dasharray:none;stroke-dashoffset:0;stroke-opacity:1;paint-order:stroke fill markers;color-rendering:auto;image-rendering:auto;shape-rendering:auto;text-rendering:auto;enable-background:accumulate" />
    <path
       id="path828"
       transform="translate(0,802.49999)"
       d="m 15,2 c -2.505336,0 -3.806053,0.2064436 -4,0.4003906 -0.193947,0.193947 -0.235975,2.264025 0,2.5 0.235975,0.235975 1.44917,0.2905494 4.692927,0.3554217 -2.362487,2.362487 -5.517475,6.8644027 -5.517475,7.0945497 0,0.230147 0.300645,0.56519 0.604821,0.869365 0.304176,0.304176 0.639218,0.604821 0.869365,0.604821 0.230147,0 4.732062,-3.154988 7.094549,-5.5174745 C 18.80906,11.55083 18.863634,12.764025 19.099609,13 c 0.235975,0.235975 2.306053,0.193947 2.5,0 C 21.793556,12.806053 22,11.505336 22,9 22,6 21.890816,3.2892537 21.300781,2.6992188 20.710746,2.1091837 18,2 15,2 Z"
       style="opacity:1;vector-effect:none;fill:#f3f3f3;fill-opacity:1;fill-rule:nonzero;stroke:none;stroke-width:4;stroke-linecap:butt;stroke-linejoin:round;stroke-miterlimit:4;stroke-dasharray:none;stroke-dashoffset:0;stroke-opacity:1;paint-order:stroke fill markers" />
  </g>
</svg>
