<svg version="1.1" viewBox="0 0 32 32" xmlns="http://www.w3.org/2000/svg">
<g>
<path transform="matrix(.44047 -.11802 .11802 .44047 -7.281 20.907)" d="m26.112 5.339.92553 1.2917 1.5144.48109-.94243 1.2794.010446 1.589-1.508-.50096-1.508.50096.010447-1.589-.94243-1.2794 1.5144-.48109z" fill="#b2b8ba" stroke="#3e4551" stroke-width="8.7718" style="paint-order:stroke fill markers"/>
<circle cx="16" cy="16" r="10" fill="#3e4551" style="paint-order:fill markers stroke"/>
<path transform="rotate(15 31.979 .75448)" d="m26.112 5.339.92553 1.2917 1.5144.48109-.94243 1.2794.010446 1.589-1.508-.50096-1.508.50096.010447-1.589-.94243-1.2794 1.5144-.48109z" fill="#b2b8ba" stroke="#3e4551" stroke-width="4" style="paint-order:stroke fill markers"/>
<path d="m19.281 8.7109a8 8 0 01.71875 3.2891 8 8 0 01-8 8 8 8 0 01-3.2812-.71094 8 8 0 007.2812 4.7109 8 8 0 008-8 8 8 0 00-4.7188-7.2891z" fill="#b2b8ba" style="paint-order:fill markers stroke"/>
<path d="m5.8881 3.1911 1.1452 1.4238 1.708.64916-1.0002 1.5291-.08959 1.825-1.7634-.47875-1.7634.47875-.08959-1.825-1.0002-1.5291 1.708-.64916z" fill="#b2b8ba" stroke="#3e4551" stroke-width="4" style="paint-order:stroke fill markers"/>
<path transform="rotate(-30 24.085 25.984)" d="m26.112 23.991 1.1452 1.4238 1.708.64916-1.0002 1.5291-.08959 1.825-1.7634-.47875-1.7634.47875-.08959-1.825-1.0002-1.5291 1.708-.64916z" fill="#b2b8ba" stroke="#3e4551" stroke-width="4" style="paint-order:stroke fill markers"/>
<path d="m12.107 27.092.42205.589.6906.21938-.42976.5834.0048.72459-.68765-.22844-.68765.22844.0048-.72459-.42976-.5834.6906-.21938z" fill="#b2b8ba" stroke="#3e4551" stroke-width="4" style="paint-order:stroke fill markers"/>
</g>
</svg>
