<svg xmlns="http://www.w3.org/2000/svg" xmlns:xlink="http://www.w3.org/1999/xlink" height="720" width="720"><defs><filter height="2" width="2" y="-.5" x="-.5" id="A" color-interpolation-filters="sRGB"><feFlood flood-color="#fff" flood-opacity="1"/><feComposite operator="in" in2="SourceGraphic"/><feGaussianBlur stdDeviation="15"/><feOffset/><feComposite in="SourceGraphic"/></filter><linearGradient id="B" gradientUnits="userSpaceOnUse"><stop offset="0" stop-color="#82f420"/><stop offset="1" stop-color="#1cce0a"/></linearGradient><linearGradient y2="263" x2="-526.5" y1="215" x1="-526.5" id="C" xlink:href="#B" /><linearGradient y2="353" x2="190.5" y1="221" x1="190.5" id="D" gradientUnits="userSpaceOnUse"><stop offset="0" stop-color="#4b9137"/><stop offset="1" stop-color="#2f6c33"/></linearGradient><linearGradient y2="359" x2="-526.5" y1="311" x1="-526.5" id="E" xlink:href="#B" /><linearGradient y2="311" x2="-478.5" y1="263" x1="-478.5" id="F" xlink:href="#B" /><linearGradient y2="470" x2="-500.333" y1="438" x1="-500.333" id="G" xlink:href="#B" /><linearGradient y2="323" x2="190.5" y1="248" x1="190.5" id="H" xlink:href="#B" /><linearGradient y2="257" x2="196.5" y1="317" x1="196.5" id="I" xlink:href="#B" /></defs><path transform="matrix(.999999 0 0 .999999 .000002 -.00001)" d="M202.5 137c-76.557 0-103.265 39.863-107.398 65.098C116.827 168.84 155.74 155 212.027 155c23.544 0 41.697 2.217 60.033 4.732C265.882 140.934 246.84 137 202.5 137z" fill="#fff" paint-order="stroke fill markers" filter="url(#A)"/><circle r="30" cy="287" cx="-481.488" transform="scale(-1 1)" fill="url(#F)" paint-order="stroke fill markers"/><circle transform="matrix(-1.5 0 0 1.5 -173.99964 -394)" cx="-500.992" cy="454" r="20" fill="url(#G)" paint-order="stroke fill markers"/><g transform="scale(-1 1)"><circle r="30" cy="239" cx="-529.488" fill="url(#C)" paint-order="stroke fill markers"/><circle cx="-529.488" cy="335" r="30" fill="url(#E)" paint-order="stroke fill markers"/></g><path d="M190.512 215c-39.764 0-72 32.235-72 72s32.236 72 72 72 72-32.235 72-72-32.236-72-72-72z" fill="url(#D)" paint-order="stroke fill markers"/><circle cx="190.512" cy="287" r="45" fill="url(#H)" paint-order="stroke fill markers"/><circle r="36" cy="287" cx="190.512" fill="url(#I)" paint-order="stroke fill markers"/></svg>