<svg xmlns="http://www.w3.org/2000/svg" xmlns:xlink="http://www.w3.org/1999/xlink" width="720" height="720"><defs><filter id="A" x="-.5" y="-.5" width="2" height="2" color-interpolation-filters="sRGB"><feFlood flood-opacity="1" flood-color="#fff"/><feComposite in2="SourceGraphic" operator="in"/><feGaussianBlur stdDeviation="15"/><feOffset/><feComposite in="SourceGraphic"/></filter><linearGradient id="B" gradientUnits="userSpaceOnUse"><stop offset="0" stop-color="#82f420"/><stop offset="1" stop-color="#1cce0a"/></linearGradient><linearGradient xlink:href="#B" id="C" x1="-526.5" y1="215" x2="-526.5" y2="263"/><linearGradient id="D" x1="190.5" y1="221" x2="190.5" y2="353" gradientUnits="userSpaceOnUse"><stop offset="0" stop-color="#4b9137"/><stop offset="1" stop-color="#2f6c33"/></linearGradient><linearGradient xlink:href="#B" id="E" x1="-526.5" y1="311" x2="-526.5" y2="359"/><linearGradient xlink:href="#B" id="F" x1="-478.5" y1="263" x2="-478.5" y2="311"/><linearGradient xlink:href="#B" id="G" x1="-500.333" y1="438" x2="-500.333" y2="470"/><linearGradient xlink:href="#B" id="H" x1="190.5" y1="248" x2="190.5" y2="323"/><linearGradient xlink:href="#B" id="I" x1="196.5" y1="317" x2="196.5" y2="257"/></defs><path d="M202.5 137c-76.557 0-103.265 39.863-107.398 65.098C116.827 168.84 155.74 155 212.027 155c23.544 0 41.697 2.217 60.033 4.732C265.882 140.934 246.84 137 202.5 137z" transform="matrix(-.999999 0 0 .999999 720.00001 -.00001)" fill="#fff" paint-order="stroke fill markers" filter="url(#A)"/><circle transform="scale(-1 1)" cx="-481.488" cy="287" r="30" fill="url(#F)" paint-order="stroke fill markers"/><circle r="20" cy="454" cx="-500.992" transform="matrix(-1.5 0 0 1.5 -173.99964 -394)" fill="url(#G)" paint-order="stroke fill markers"/><g transform="scale(-1 1)"><circle cx="-529.488" cy="239" r="30" fill="url(#C)" paint-order="stroke fill markers"/><circle r="30" cy="335" cx="-529.488" fill="url(#E)" paint-order="stroke fill markers"/></g><path d="M190.512 215c-39.764 0-72 32.235-72 72s32.236 72 72 72 72-32.235 72-72-32.236-72-72-72z" fill="url(#D)" paint-order="stroke fill markers"/><circle r="45" cy="287" cx="190.512" fill="url(#H)" paint-order="stroke fill markers"/><circle cx="190.512" cy="287" r="36" fill="url(#I)" paint-order="stroke fill markers"/></svg>