<?xml version="1.0" encoding="UTF-8" standalone="no"?>
<svg
   xmlns:dc="http://purl.org/dc/elements/1.1/"
   xmlns:cc="http://creativecommons.org/ns#"
   xmlns:rdf="http://www.w3.org/1999/02/22-rdf-syntax-ns#"
   xmlns:svg="http://www.w3.org/2000/svg"
   xmlns="http://www.w3.org/2000/svg"
   xmlns:xlink="http://www.w3.org/1999/xlink"
   xmlns:sodipodi="http://sodipodi.sourceforge.net/DTD/sodipodi-0.dtd"
   xmlns:inkscape="http://www.inkscape.org/namespaces/inkscape"
   height="720"
   width="720"
   version="1.1"
   id="svg55"
   sodipodi:docname="16.svg"
   inkscape:version="0.92.4 (5da689c313, 2019-01-14)">
  <metadata
     id="metadata59">
    <rdf:RDF>
      <cc:Work
         rdf:about="">
        <dc:format>image/svg+xml</dc:format>
        <dc:type
           rdf:resource="http://purl.org/dc/dcmitype/StillImage" />
        <dc:title></dc:title>
      </cc:Work>
    </rdf:RDF>
  </metadata>
  <sodipodi:namedview
     pagecolor="#ffffff"
     bordercolor="#666666"
     borderopacity="1"
     objecttolerance="10"
     gridtolerance="10"
     guidetolerance="10"
     inkscape:pageopacity="0"
     inkscape:pageshadow="2"
     inkscape:window-width="640"
     inkscape:window-height="480"
     id="namedview57"
     showgrid="false"
     inkscape:zoom="1.1760975"
     inkscape:cx="189.94607"
     inkscape:cy="360"
     inkscape:current-layer="g51" />
  <defs
     id="defs31">
    <linearGradient
       id="A"
       gradientUnits="userSpaceOnUse">
      <stop
         offset="0"
         stop-color="#d6eef2"
         id="stop2" />
      <stop
         offset="1"
         stop-color="#79abb5"
         id="stop4" />
    </linearGradient>
    <linearGradient
       id="B"
       gradientUnits="userSpaceOnUse">
      <stop
         offset="0"
         stop-color="#82f420"
         id="stop7" />
      <stop
         offset="1"
         stop-color="#1cce0a"
         id="stop9" />
    </linearGradient>
    <linearGradient
       y2="-263.008"
       x2="134.64999"
       y1="-263.008"
       x1="102.65"
       id="C"
       xlink:href="#B" />
    <linearGradient
       y2="312"
       x2="-481.248"
       y1="260"
       x1="-481.248"
       id="D"
       xlink:href="#B" />
    <linearGradient
       y2="359"
       x2="-526.5"
       y1="311"
       x1="-526.5"
       id="E"
       xlink:href="#B" />
    <linearGradient
       y2="263"
       x2="-526.5"
       y1="215"
       x1="-526.5"
       id="F"
       xlink:href="#B" />
    <linearGradient
       y2="150.63499"
       x2="255.35699"
       y1="150.63499"
       x1="295.35699"
       id="G"
       xlink:href="#B" />
    <linearGradient
       y2="158.64999"
       x2="238.35699"
       y1="158.64999"
       x1="199.349"
       id="H"
       xlink:href="#B" />
    <filter
       height="3"
       width="2"
       y="-1"
       x="-0.5"
       id="I"
       color-interpolation-filters="sRGB"
       inkscape:label="I">
      <feFlood
         flood-color="#fff"
         flood-opacity="1"
         id="feFlood18" />
      <feComposite
         operator="in"
         in2="SourceGraphic"
         id="feComposite20" />
      <feGaussianBlur
         stdDeviation="15"
         id="feGaussianBlur22" />
      <feOffset
         id="feOffset24"
         result="result1" />
      <feComposite
         in="SourceGraphic"
         in2="result1"
         id="feComposite26" />
    </filter>
    <linearGradient
       y2="144.642"
       x2="239.33299"
       y1="102.65"
       x1="239.349"
       id="J"
       xlink:href="#B" />
    <linearGradient
       y2="312"
       x2="-577.248"
       y1="260"
       x1="-577.248"
       id="K"
       xlink:href="#B" />
    <linearGradient
       inkscape:collect="always"
       xlink:href="#B"
       id="linearGradient868"
       x1="199.349"
       y1="158.64999"
       x2="238.35699"
       y2="158.64999"
       gradientTransform="rotate(-90,247.179,150.821)" />
    <linearGradient
       gradientTransform="matrix(-0.66666667,0,0,-0.66666667,374.01562,342.65021)"
       y2="468.02499"
       x2="547.5"
       y1="180"
       x1="547.5"
       id="D-4"
       gradientUnits="userSpaceOnUse">
      <stop
         offset="0"
         stop-color="#5aa945"
         id="stop9-1" />
      <stop
         offset="1"
         stop-color="#348041"
         id="stop11" />
    </linearGradient>
    <linearGradient
       gradientTransform="matrix(-0.66666667,0,0,-0.66666667,374.01562,342.65021)"
       y2="192"
       x2="547.5"
       y1="144"
       x1="547.5"
       id="C-3"
       xlink:href="#B" />
    <linearGradient
       gradientTransform="translate(0,1e-5)"
       y2="192"
       x2="172.5"
       y1="144"
       x1="172.5"
       id="B-7"
       xlink:href="#B" />
  </defs>
  <g
     transform="scale(-1 1)"
     id="g39">
    <circle
       r="30"
       cy="287"
       cx="-577.488"
       fill="url(#K)"
       paint-order="stroke fill markers"
       id="circle33" />
    <circle
       cx="-529.488"
       cy="239"
       r="30"
       fill="url(#F)"
       paint-order="stroke fill markers"
       id="circle35" />
    <circle
       r="30"
       cy="335"
       cx="-529.488"
       fill="url(#E)"
       paint-order="stroke fill markers"
       id="circle37" />
  </g>
  <g
     transform="matrix(-1.5 0 0 -1.5 561.02343 513.97532)"
     id="g51">
    <path
       transform="rotate(90)"
       d="M134.65-263.008h32v32h-32z"
       fill="url(#C)"
       paint-order="stroke fill markers"
       id="path41"
       style="fill-opacity:1" />
    <path
       d="M287.35 166.65c4.432 0 8-3.568 8-8v-16c0-4.432-3.568-8-8-8h-24l-16 16 16 16z"
       fill="url(#G)"
       paint-order="stroke fill markers"
       id="path43"
       style="fill-opacity:1" />
    <path
       d="M247.35 150.65l-16-16h-24c-4.432 0-8 3.568-8 8v16c0 4.432 3.568 8 8 8h24z"
       fill="url(#H)"
       paint-order="stroke fill markers"
       id="path45"
       style="fill-opacity:1" />
    <path
       d="M247.35 150.65l16-16v-24c0-4.432-3.568-8-8-8h-16c-4.432 0-8 3.568-8 8v24z"
       fill="url(#J)"
       paint-order="stroke fill markers"
       id="path47"
       style="fill-opacity:1" />
    <path
       id="path866"
       d="m 247.008,150.65 -16,16 v 24 c 0,4.432 3.568,8 8,8 h 16 c 4.432,0 8,-3.568 8,-8 v -24 z"
       style="fill:url(#linearGradient868);paint-order:stroke fill markers;fill-opacity:1"
       inkscape:connector-curvature="0" />
    <path
       style="fill:#ffffff;stroke-width:1;paint-order:stroke fill markers;fill-opacity:1;filter:url(#I)"
       d="M 202.5,138 C 123.15879,138 97.361298,180.81286 94.742188,205.78711 120.20525,175.32185 157.88668,156 212.02734,156 c 23.54437,0 41.69663,2.21697 60.03321,4.73242 C 265.88227,141.93365 246.84092,138 202.5,138 Z"
       transform="matrix(-0.66666667,0,0,-0.66666667,374.01562,342.65021)"
       id="path900" />
    <path
       style="fill:url(#B-7);stroke-width:1;paint-order:stroke fill markers"
       d="m 517.5,138 c -44.34092,0 -63.38227,3.93365 -69.56055,22.73242 C 466.27602,158.21697 484.4283,156 507.97266,156 c 54.14191,0 91.82402,19.32259 117.28711,49.78906 C 622.64183,180.8151 596.84333,138 517.5,138 Z"
       transform="matrix(-0.66666667,0,0,-0.66666667,374.01562,342.65021)"
       id="path16" />
  </g>
  <circle
     transform="scale(-1 1)"
     cx="-481.488"
     cy="287"
     r="30"
     fill="url(#D)"
     paint-order="stroke fill markers"
     id="circle53" />
</svg>
