<svg width="720" height="720" version="1.1" xmlns="http://www.w3.org/2000/svg" xmlns:xlink="http://www.w3.org/1999/xlink">
<defs>
<linearGradient id="a" gradientUnits="userSpaceOnUse">
<stop stop-color="#82f420" offset="0"/>
<stop stop-color="#1cce0a" offset="1"/>
</linearGradient>
<linearGradient id="k" x1="102.65" x2="134.65" y1="-263.01" y2="-263.01" xlink:href="#a"/>
<linearGradient id="j" x1="-481.25" x2="-481.25" y1="260" y2="312" xlink:href="#a"/>
<linearGradient id="i" x1="-526.5" x2="-526.5" y1="311" y2="359" xlink:href="#a"/>
<linearGradient id="h" x1="-526.5" x2="-526.5" y1="215" y2="263" xlink:href="#a"/>
<linearGradient id="g" x1="295.36" x2="255.36" y1="150.63" y2="150.63" xlink:href="#a"/>
<linearGradient id="f" x1="199.35" x2="238.36" y1="158.65" y2="158.65" xlink:href="#a"/>
<filter id="e" x="-.5" y="-1" width="2" height="3" color-interpolation-filters="sRGB">
<feFlood flood-color="#fff"/>
<feComposite in2="SourceGraphic" operator="in"/>
<feGaussianBlur stdDeviation="15"/>
<feOffset result="result1"/>
<feComposite in="SourceGraphic" in2="result1"/>
</filter>
<linearGradient id="d" x1="239.35" x2="239.33" y1="102.65" y2="144.64" xlink:href="#a"/>
<linearGradient id="c" x1="-577.25" x2="-577.25" y1="260" y2="312" xlink:href="#a"/>
<linearGradient id="b" x1="199.35" x2="238.36" y1="158.65" y2="158.65" gradientTransform="rotate(-90 247.18 150.82)" xlink:href="#a"/>
<linearGradient id="l" x1="172.5" x2="172.5" y1="144" y2="192" gradientTransform="matrix(.66667 0 0 -.66667 -105.98 342.65)" xlink:href="#a"/>
</defs>
<g transform="scale(-1 1)">
<circle cx="-577.49" cy="287" r="30" fill="url(#c)" paint-order="stroke fill markers"/>
<circle cx="-529.49" cy="239" r="30" fill="url(#h)" paint-order="stroke fill markers"/>
<circle cx="-529.49" cy="335" r="30" fill="url(#i)" paint-order="stroke fill markers"/>
</g>
<g transform="matrix(-1.5 0 0 -1.5 561.02 513.98)">
<path transform="rotate(90)" d="m134.65-263.01h32v32h-32z" fill="url(#k)" paint-order="stroke fill markers"/>
<path d="m287.35 166.65c4.432 0 8-3.568 8-8v-16c0-4.432-3.568-8-8-8h-24l-16 16 16 16z" fill="url(#g)" paint-order="stroke fill markers"/>
<path d="m247.35 150.65-16-16h-24c-4.432 0-8 3.568-8 8v16c0 4.432 3.568 8 8 8h24z" fill="url(#f)" paint-order="stroke fill markers"/>
<path d="m247.35 150.65 16-16v-24c0-4.432-3.568-8-8-8h-16c-4.432 0-8 3.568-8 8v24z" fill="url(#d)" paint-order="stroke fill markers"/>
<path d="m247.01 150.65-16 16v24c0 4.432 3.568 8 8 8h16c4.432 0 8-3.568 8-8v-24z" fill="url(#b)" style="paint-order:stroke fill markers"/>
<path transform="matrix(.66667 0 0 -.66667 -105.98 342.65)" d="m202.5 138c-79.341 0-105.14 42.813-107.76 67.787 25.463-30.465 63.144-49.787 117.29-49.787 23.544 0 41.697 2.217 60.033 4.7324-6.1783-18.799-25.22-22.732-69.561-22.732z" fill="#fff" filter="url(#e)" style="paint-order:stroke fill markers"/>
<path d="m239.02 250.65c-29.561 0-42.255-2.6224-46.374-15.155 12.224 1.677 24.326 3.155 40.022 3.155 36.095 0 61.216-12.882 78.191-33.193-1.7453 16.649-18.944 45.193-71.84 45.193z" fill="url(#l)" stroke-width=".66667" style="paint-order:stroke fill markers"/>
</g>
<circle transform="scale(-1 1)" cx="-481.49" cy="287" r="30" fill="url(#j)" paint-order="stroke fill markers"/>
</svg>
