<svg xmlns="http://www.w3.org/2000/svg" xmlns:xlink="http://www.w3.org/1999/xlink" height="720" width="720"><defs><linearGradient id="A" gradientUnits="userSpaceOnUse"><stop offset="0" stop-color="#5aa945"/><stop offset="1" stop-color="#348041"/></linearGradient><filter height="2" width="2" y="-.5" x="-.5" id="B" color-interpolation-filters="sRGB"><feFlood flood-color="#fff" flood-opacity="1"/><feComposite operator="in" in2="SourceGraphic"/><feGaussianBlur stdDeviation="15"/><feOffset/><feComposite in="SourceGraphic"/></filter><linearGradient y2="530.5" x2="360" y1="242.5" x1="360" id="C" xlink:href="#A" /><linearGradient y2="430.5" x2="272" y1="342.5" x1="272" id="D" xlink:href="#F" /><linearGradient y2="434.5" x2="448" y1="338.5" x1="448" id="E" xlink:href="#F" /><linearGradient id="F" gradientUnits="userSpaceOnUse"><stop offset="0" stop-color="#82f420"/><stop offset="1" stop-color="#1cce0a"/></linearGradient><linearGradient y2="654.5" x2="360" y1="558.5" x1="360" id="G" xlink:href="#A" /><linearGradient y2="621.5" x2="389" y1="590.9" x1="389" id="H" xlink:href="#F" /><linearGradient y2="650.5" x2="360" y1="589.9" x1="360" id="I" xlink:href="#F" /><linearGradient y2="621.5" x2="331" y1="590.9" x1="331" id="J" xlink:href="#F" /><linearGradient y2="622.5" x2="360" y1="561.9" x1="360" id="K" xlink:href="#F" /><filter height="1" width="1" y="0" x="0" id="L" color-interpolation-filters="sRGB"><feColorMatrix values="0.25 0.5 0.1 0 -0.1 0.25 0.5 0.1 0 -0.1 0.25 0.5 0.1 0 -0.1 0 0 0 1 0 "/></filter><linearGradient y2="346.5" x2="352" y1="250.5" x1="352" id="M" xlink:href="#F" /></defs><g transform="translate(0 -106.5)"><circle r="160" cy="386.5" cx="360" fill="url(#C)" paint-order="stroke fill markers"/><circle r="52" cy="386.5" cx="272" fill="url(#D)" paint-order="stroke fill markers"/><circle cx="360" cy="298.5" r="52" fill="url(#M)" paint-order="stroke fill markers"/><circle r="52" cy="386.5" cx="448" fill="url(#E)" paint-order="stroke fill markers"/><circle cx="360" cy="474.5" r="52" fill="#fff" paint-order="stroke fill markers" filter="url(#B)"/><g transform="translate(-162 100)" filter="url(#L)"><circle cx="360" cy="606.5" r="52" fill="url(#G)" paint-order="stroke fill markers"/><circle r="19" cy="577.5" cx="360" fill="#fff" paint-order="stroke fill markers"/><circle cx="389" cy="606.5" r="19" fill="url(#H)" paint-order="stroke fill markers"/><circle r="19" cy="635.5" cx="360" fill="url(#I)" paint-order="stroke fill markers"/><circle cx="331" cy="606.5" r="19" fill="url(#J)" paint-order="stroke fill markers"/></g><g transform="translate(-54 100)" filter="url(#L)"><circle r="52" cy="606.5" cx="360" fill="url(#G)" paint-order="stroke fill markers"/><circle cx="360" cy="577.5" r="19" fill="url(#K)" paint-order="stroke fill markers"/><circle r="19" cy="606.5" cx="389" fill="#fff" paint-order="stroke fill markers"/><circle cx="360" cy="635.5" r="19" fill="url(#I)" paint-order="stroke fill markers"/><circle r="19" cy="606.5" cx="331" fill="url(#J)" paint-order="stroke fill markers"/></g><g transform="translate(54 100)"><circle r="52" cy="606.5" cx="360" fill="url(#G)" paint-order="stroke fill markers"/><circle cx="360" cy="577.5" r="19" fill="url(#K)" paint-order="stroke fill markers"/><circle r="19" cy="606.5" cx="389" fill="url(#H)" paint-order="stroke fill markers"/><circle cx="360" cy="635.5" r="19" fill="#fff" paint-order="stroke fill markers"/><circle r="19" cy="606.5" cx="331" fill="url(#J)" paint-order="stroke fill markers"/></g><g transform="translate(162 100)"><circle r="52" cy="606.5" cx="360" fill="url(#G)" paint-order="stroke fill markers"/><circle cx="360" cy="577.5" r="19" fill="url(#K)" paint-order="stroke fill markers"/><circle r="19" cy="606.5" cx="389" fill="url(#H)" paint-order="stroke fill markers"/><circle cx="360" cy="635.5" r="19" fill="url(#I)" paint-order="stroke fill markers"/><circle r="19" cy="606.5" cx="331" fill="#fff" paint-order="stroke fill markers"/></g></g></svg>