<svg xmlns="http://www.w3.org/2000/svg" xmlns:xlink="http://www.w3.org/1999/xlink" height="720" width="720"><defs><linearGradient id="A" gradientUnits="userSpaceOnUse"><stop offset="0" stop-color="#d6eef2"/><stop offset="1" stop-color="#79abb5"/></linearGradient><linearGradient id="B" gradientUnits="userSpaceOnUse"><stop offset="0" stop-color="#82f420"/><stop offset="1" stop-color="#1cce0a"/></linearGradient><linearGradient y2="-263.008" x2="134.65" y1="-263.008" x1="102.65" id="C" xlink:href="#A" /><linearGradient y2="312" x2="-481.248" y1="260" x1="-481.248" id="D" xlink:href="#B" /><linearGradient y2="359" x2="-526.5" y1="311" x1="-526.5" id="E" xlink:href="#B" /><linearGradient y2="263" x2="-526.5" y1="215" x1="-526.5" id="F" xlink:href="#B" /><linearGradient y2="150.635" x2="255.357" y1="150.635" x1="295.357" id="G" xlink:href="#A" /><linearGradient y2="158.65" x2="238.357" y1="158.65" x1="199.349" id="H" xlink:href="#A" /><filter height="3" width="3" y="-1" x="-1" id="I" color-interpolation-filters="sRGB"><feFlood flood-color="#fff" flood-opacity="1"/><feComposite operator="in" in2="SourceGraphic"/><feGaussianBlur stdDeviation="15"/><feOffset/><feComposite in="SourceGraphic"/></filter><linearGradient y2="144.642" x2="239.333" y1="102.65" x1="239.349" id="J" xlink:href="#A" /><linearGradient y2="312" x2="-577.248" y1="260" x1="-577.248" id="K" xlink:href="#B" /></defs><g transform="scale(-1 1)"><circle r="30" cy="287" cx="-577.488" fill="url(#K)" paint-order="stroke fill markers"/><circle cx="-529.488" cy="239" r="30" fill="url(#F)" paint-order="stroke fill markers"/><circle r="30" cy="335" cx="-529.488" fill="url(#E)" paint-order="stroke fill markers"/></g><g transform="matrix(0 1.5 -1.5 0 415.9753 -83.02347)"><path transform="rotate(90)" d="M134.65-263.008h32v32h-32z" fill="url(#C)" paint-order="stroke fill markers"/><path d="M287.35 166.65c4.432 0 8-3.568 8-8v-16c0-4.432-3.568-8-8-8h-24l-16 16 16 16z" fill="url(#G)" paint-order="stroke fill markers"/><path d="M247.35 150.65l-16-16h-24c-4.432 0-8 3.568-8 8v16c0 4.432 3.568 8 8 8h24z" fill="url(#H)" paint-order="stroke fill markers"/><path d="M247.35 150.65l16-16v-24c0-4.432-3.568-8-8-8h-16c-4.432 0-8 3.568-8 8v24z" fill="url(#J)" paint-order="stroke fill markers"/><path d="M295.008 143.984c0-4.432-3.568-8-8-8h-24l-16 16 16 16h24c4.432 0 8-3.568 8-8z" transform="rotate(90 247.845 151.488)" fill="#fff" paint-order="stroke fill markers" filter="url(#I)"/></g><circle transform="scale(-1 1)" cx="-481.488" cy="287" r="30" fill="url(#D)" paint-order="stroke fill markers"/></svg>