<svg xmlns="http://www.w3.org/2000/svg" xmlns:xlink="http://www.w3.org/1999/xlink" width="720" height="720"><defs><linearGradient id="A" gradientUnits="userSpaceOnUse"><stop offset="0" stop-color="#d6eef2"/><stop offset="1" stop-color="#79abb5"/></linearGradient><linearGradient id="B" gradientUnits="userSpaceOnUse"><stop offset="0" stop-color="#82f420"/><stop offset="1" stop-color="#1cce0a"/></linearGradient><linearGradient xlink:href="#A" id="C" x1="102.65" y1="-263.008" x2="134.65" y2="-263.008"/><linearGradient xlink:href="#B" id="D" x1="-481.248" y1="260" x2="-481.248" y2="312"/><linearGradient xlink:href="#B" id="E" x1="-526.5" y1="311" x2="-526.5" y2="359"/><filter id="F" x="-.5" y="-.5" width="2" height="2" color-interpolation-filters="sRGB"><feFlood flood-opacity="1" flood-color="#fff"/><feComposite in2="SourceGraphic" operator="in"/><feGaussianBlur stdDeviation="15"/><feOffset/><feComposite in="SourceGraphic"/></filter><linearGradient xlink:href="#B" id="G" x1="-526.5" y1="215" x2="-526.5" y2="263"/><linearGradient xlink:href="#A" id="H" x1="295.357" y1="150.635" x2="255.357" y2="150.635"/><linearGradient xlink:href="#A" id="I" x1="199.349" y1="158.65" x2="238.357" y2="158.65"/><filter id="J" x="-1" y="-1" width="3" height="3" color-interpolation-filters="sRGB"><feFlood flood-opacity="1" flood-color="#fff"/><feComposite in2="SourceGraphic" operator="in"/><feGaussianBlur stdDeviation="15"/><feOffset/><feComposite in="SourceGraphic"/></filter><linearGradient xlink:href="#A" id="K" x1="239.349" y1="102.65" x2="239.333" y2="144.642"/></defs><circle transform="matrix(-1 0 0 1 -.000005 0)" cx="-577.488" cy="287" r="30" fill="#fff" paint-order="stroke fill markers" filter="url(#F)"/><g transform="scale(-1 1)"><circle r="30" cy="239" cx="-529.488" fill="url(#G)" paint-order="stroke fill markers"/><circle cx="-529.488" cy="335" r="30" fill="url(#E)" paint-order="stroke fill markers"/></g><g transform="matrix(0 -1.5 1.5 0 -35.97534 659.02347)"><path transform="rotate(90)" d="M134.65-263.008h32v32h-32z" fill="url(#C)" paint-order="stroke fill markers"/><path d="M287.35 166.65c4.432 0 8-3.568 8-8v-16c0-4.432-3.568-8-8-8h-24l-16 16 16 16z" fill="url(#H)" paint-order="stroke fill markers"/><path d="M247.35 150.65l-16-16h-24c-4.432 0-8 3.568-8 8v16c0 4.432 3.568 8 8 8h24z" fill="url(#I)" paint-order="stroke fill markers"/><path d="M247.35 150.65l16-16v-24c0-4.432-3.568-8-8-8h-16c-4.432 0-8 3.568-8 8v24z" fill="url(#K)" paint-order="stroke fill markers"/><path transform="rotate(90 247.845 151.488)" d="M295.008 143.984c0-4.432-3.568-8-8-8h-24l-16 16 16 16h24c4.432 0 8-3.568 8-8z" fill="#fff" paint-order="stroke fill markers" filter="url(#J)"/></g><circle r="30" cy="287" cx="-481.488" transform="scale(-1 1)" fill="url(#D)" paint-order="stroke fill markers"/></svg>