<svg xmlns="http://www.w3.org/2000/svg" xmlns:xlink="http://www.w3.org/1999/xlink" width="720" height="720"><defs><linearGradient id="A" gradientUnits="userSpaceOnUse"><stop offset="0" stop-color="#d6eef2"/><stop offset="1" stop-color="#79abb5"/></linearGradient><filter id="B" x="-.5" y="-.5" width="2" height="2" color-interpolation-filters="sRGB"><feFlood flood-opacity="1" flood-color="#fff"/><feComposite in2="SourceGraphic" operator="in"/><feGaussianBlur stdDeviation="15"/><feOffset/><feComposite in="SourceGraphic"/></filter><linearGradient id="C" gradientUnits="userSpaceOnUse"><stop offset="0" stop-color="#82f420"/><stop offset="1" stop-color="#1cce0a"/></linearGradient><filter id="D" x="-1" y="-1" width="3" height="3" color-interpolation-filters="sRGB"><feFlood flood-opacity="1" flood-color="#fff"/><feComposite in2="SourceGraphic" operator="in"/><feGaussianBlur stdDeviation="15"/><feOffset/><feComposite in="SourceGraphic"/></filter><linearGradient xlink:href="#C" id="E" x1="-481.248" y1="260" x2="-481.248" y2="312"/><linearGradient xlink:href="#C" id="F" x1="-526.5" y1="311" x2="-526.5" y2="359"/><linearGradient xlink:href="#C" id="G" x1="-526.5" y1="215" x2="-526.5" y2="263"/><linearGradient xlink:href="#A" id="H" x1="103.983" y1="-263.008" x2="135.983" y2="-263.008"/><linearGradient xlink:href="#A" id="I" x1="199.008" y1="159.983" x2="239.008" y2="159.983"/><linearGradient xlink:href="#A" id="J" x1="240.682" y1="199.986" x2="240.682" y2="159.986"/></defs><g transform="scale(-1 1)"><circle cx="-577.488" cy="287" r="30" fill="#fff" paint-order="stroke fill markers" filter="url(#B)"/><circle r="30" cy="239" cx="-529.488" fill="url(#G)" paint-order="stroke fill markers"/><circle cx="-529.488" cy="335" r="30" fill="url(#F)" paint-order="stroke fill markers"/></g><g transform="matrix(0 -1.5 1.5 0 -37.977235 658.51179)"><path transform="rotate(90)" d="M135.983-263.008h32v32h-32z" fill="url(#H)" paint-order="stroke fill markers"/><path d="M207.008 135.983c-4.432 0-8 3.568-8 8v16c0 4.432 3.568 8 8 8h24l16-16-16-16z" fill="url(#I)" paint-order="stroke fill markers"/><path d="M247.008 151.985l-16 16v24c0 4.432 3.568 8 8 8h16c4.432 0 8-3.568 8-8v-24z" fill="url(#J)" paint-order="stroke fill markers"/><path transform="matrix(-.666667 0 0 -.666667 374.01574 343.98478)" d="M202.512 360.002c6.648 0 12-5.352 12-12v-36l-48-48h-36c-6.648 0-12 5.352-12 12v24c0 6.648 5.358 11.71 12 12h36v36c0 6.648 5.352 12 12 12z" fill="#fff" paint-order="stroke fill markers" filter="url(#D)"/></g><circle r="30" cy="287" cx="-481.488" transform="scale(-1 1)" fill="url(#E)" paint-order="stroke fill markers"/></svg>