<svg xmlns="http://www.w3.org/2000/svg" xmlns:xlink="http://www.w3.org/1999/xlink" height="720" width="720"><defs><linearGradient id="A" gradientUnits="userSpaceOnUse"><stop offset="0" stop-color="#d6eef2"/><stop offset="1" stop-color="#79abb5"/></linearGradient><linearGradient id="B" gradientUnits="userSpaceOnUse"><stop offset="0" stop-color="#5aa945"/><stop offset="1" stop-color="#348041"/></linearGradient><filter height="2" width="2" y="-.5" x="-.5" id="C" color-interpolation-filters="sRGB"><feFlood flood-color="#fff" flood-opacity="1"/><feComposite operator="in" in2="SourceGraphic"/><feGaussianBlur stdDeviation="15"/><feOffset/><feComposite in="SourceGraphic"/></filter><linearGradient id="D" gradientUnits="userSpaceOnUse"><stop offset="0" stop-color="#82f420"/><stop offset="1" stop-color="#1cce0a"/></linearGradient><linearGradient y2="502" x2="-471" y1="470" x1="-471" id="E" xlink:href="#D"/><linearGradient y2="438" x2="-471" y1="406" x1="-471" id="F" xlink:href="#D"/><linearGradient y2="470" x2="-439" y1="438" x1="-439" id="G" xlink:href="#D"/><linearGradient y2="434" x2="251" y1="474" x1="251" id="H" xlink:href="#A"/><linearGradient y2="478" x2="247" y1="428" x1="247" id="I" xlink:href="#A"/><linearGradient y2="87.984" x2="235" y1="55.984" x1="235" id="J" xlink:href="#D"/><linearGradient y2="135.984" x2="-471" y1="103.984" x1="-471" id="K" xlink:href="#D"/><linearGradient y2="199.984" x2="-471" y1="167.984" x1="-471" id="L" xlink:href="#D"/><linearGradient y2="498" x2="247" y1="410" x1="247" id="M" gradientUnits="userSpaceOnUse"><stop offset="0" stop-color="#4b9137"/><stop offset="1" stop-color="#2f6c33"/></linearGradient><linearGradient y2="-263.008" x2="135.983" y1="-263.008" x1="103.983" id="N" xlink:href="#A"/><linearGradient y2="160" x2="241" y1="200" x1="241" id="O" xlink:href="#A"/><linearGradient y2="144" x2="247.008" y1="103.983" x1="247.008" id="P" xlink:href="#A"/><linearGradient y2="143.984" x2="256" y1="143.984" x1="295.008" id="Q" xlink:href="#A"/><linearGradient y2="152" x2="239" y1="152" x1="199" id="R" xlink:href="#A"/><linearGradient y2="470.017" x2="-500" y1="438.017" x1="-500" id="S" xlink:href="#D"/><linearGradient y2="87.984" x2="485" y1="55.984" x1="485" id="T" xlink:href="#D"/><linearGradient y2="670" x2="485" y1="382" x1="485" id="U" xlink:href="#B"/><linearGradient y2="272" x2="485" y1="79.984" x1="485" id="V" xlink:href="#B"/><path id="W" d="M537 99.984c0-16-16-48-72-48-37.756 0-48 4.274-48 28.017"/><path id="X" d="M183 99.984c0-16 16-48 72-48 37.756 0 48 4.274 48 28.017"/></defs><use xlink:href="#W" fill="url(#T)" paint-order="stroke fill markers"/><use xlink:href="#X" fill="url(#J)" paint-order="stroke fill markers"/><use xlink:href="#X" y="302.016" fill="url(#J)" paint-order="stroke fill markers"/><use xlink:href="#W" y="302.016" fill="url(#T)" paint-order="stroke fill markers"/><path d="M261.352 366c-37.867 0-63.947 9.388-78.352 32-26.864 42.17-40 136-40 184s16 80 48 80c40 0 56-24 72-64 7.778-19.445 24.3-24 43.492-24 12.98 0 30.508 2 53.508 2s40.528-2 53.508-2c19.19 0 35.714 4.555 43.492 24 16 40 32 64 72 64 32 0 48-32 48-80s-13.136-141.83-40-184c-14.404-22.612-40.484-32-78.352-32-36.665 0-53.648 8-98.648 8s-61.983-8-98.648-8z" fill="url(#U)" paint-order="stroke fill markers"/><circle transform="scale(-1 1)" cx="-440.992" cy="454" r="20" fill="url(#G)" paint-order="stroke fill markers"/><circle r="20" cy="454" cx="-500.992" transform="matrix(-1 0 0 1 4.000277 0)" fill="#fff" paint-order="stroke fill markers" filter="url(#C)"/><g transform="scale(-1 1)"><circle cx="-472.992" cy="422" r="20" fill="url(#F)" paint-order="stroke fill markers"/><circle r="20" cy="486" cx="-472.992" fill="url(#E)" paint-order="stroke fill markers"/></g><path d="M247.008 406c-26.5 0-48 21.5-48 48s21.5 48 48 48 48-21.5 48-48-21.5-48-48-48z" fill="url(#M)" paint-order="stroke fill markers"/><circle r="30" cy="454" cx="247.008" fill="url(#I)" paint-order="stroke fill markers"/><circle cx="247.008" cy="454" r="24" fill="url(#H)" paint-order="stroke fill markers"/><path d="M261.352 63.984C176 63.984 152 136 152 208c0 50.96 28.302 80 80 80 48 0 48-32 128-32s80 32 128 32c51.698 0 80-29.04 80-80 0-72-24-144.016-109.352-144.016-36.665 0-53.648 8-98.648 8s-61.983-8-98.648-8z" fill="url(#V)" paint-order="stroke fill markers"/><circle transform="matrix(-1 0 0 1 4.000277 -302.01654)" cx="-500.992" cy="454" r="20" fill="url(#S)" paint-order="stroke fill markers"/><g transform="scale(-1 1)"><circle r="20" cy="119.983" cx="-472.992" fill="url(#K)" paint-order="stroke fill markers"/><circle cx="-472.992" cy="183.983" r="20" fill="url(#L)" paint-order="stroke fill markers"/></g><path transform="rotate(90)" d="M135.983-263.008h32v32h-32z" fill="url(#N)" paint-order="stroke fill markers"/><path d="M207.008 135.984c-4.432 0-8 3.568-8 8v16c0 4.432 3.568 8 8 8h24l16-16-16-16z" fill="url(#R)" paint-order="stroke fill markers"/><path d="M247.008 151.984l16 16h24c4.432 0 8-3.568 8-8v-16c0-4.432-3.568-8-8-8h-24z" fill="url(#Q)" paint-order="stroke fill markers"/><path d="M239.008 103.984c-4.432 0-8 3.568-8 8v24l16 16 16-16v-24c0-4.432-3.568-8-8-8z" fill="url(#P)" paint-order="stroke fill markers"/><path d="M247.008 151.984l-16 16v24c0 4.432 3.568 8 8 8h16c4.432 0 8-3.568 8-8v-24z" fill="url(#O)" paint-order="stroke fill markers"/><circle r="20" cy="454" cx="-500.992" transform="matrix(-1 0 0 1 -59.999723 -302.01654)" fill="#fff" paint-order="stroke fill markers" filter="url(#C)"/></svg>