<svg xmlns="http://www.w3.org/2000/svg" xmlns:xlink="http://www.w3.org/1999/xlink" height="720" width="720"><defs><linearGradient id="A" gradientUnits="userSpaceOnUse"><stop offset="0" stop-color="#d6eef2"/><stop offset="1" stop-color="#79abb5"/></linearGradient><linearGradient id="B" gradientUnits="userSpaceOnUse"><stop offset="0" stop-color="#82f420"/><stop offset="1" stop-color="#1cce0a"/></linearGradient><linearGradient y2="263" x2="-526.5" y1="215" x1="-526.5" id="C" xlink:href="#B" /><linearGradient y2="347" x2="190.5" y1="272" x1="190.5" id="D" xlink:href="#A" /><linearGradient y2="353" x2="190.5" y1="221" x1="190.5" id="E" gradientUnits="userSpaceOnUse"><stop offset="0" stop-color="#4b9137"/><stop offset="1" stop-color="#2f6c33"/></linearGradient><linearGradient y2="359" x2="-526.5" y1="311" x1="-526.5" id="F" xlink:href="#B" /><linearGradient y2="311" x2="-478.5" y1="263" x1="-478.5" id="G" xlink:href="#B" /><linearGradient y2="281" x2="196.5" y1="341" x1="196.5" id="H" xlink:href="#A" /><linearGradient y2="470" x2="-500.333" y1="438" x1="-500.333" id="I" xlink:href="#B" /></defs><circle transform="scale(-1 1)" cx="-481.488" cy="287" r="30" fill="url(#G)" paint-order="stroke fill markers"/><circle r="20" cy="454" cx="-500.992" transform="matrix(-1.5 0 0 1.5 -173.99964 -394)" fill="url(#I)" paint-order="stroke fill markers"/><g transform="scale(-1 1)"><circle cx="-529.488" cy="239" r="30" fill="url(#C)" paint-order="stroke fill markers"/><circle r="30" cy="335" cx="-529.488" fill="url(#F)" paint-order="stroke fill markers"/></g><path d="M190.512 215c-39.764 0-72 32.235-72 72s32.236 72 72 72 72-32.235 72-72-32.236-72-72-72z" fill="url(#E)" paint-order="stroke fill markers"/><circle r="45" cy="311" cx="190.512" fill="url(#D)" paint-order="stroke fill markers"/><circle cx="190.512" cy="311" r="36" fill="url(#H)" paint-order="stroke fill markers"/><path d="M218.406 364.594h-18.895l-9-77.594-9 77.594h-18.895l27.895 27.895z" fill="#fff" paint-order="stroke fill markers"/></svg>