<svg xmlns="http://www.w3.org/2000/svg" xmlns:xlink="http://www.w3.org/1999/xlink" height="720" width="720"><defs><linearGradient id="A" xlink:href="#g"><stop offset="0" stop-color="#8edae9"/><stop offset="1" stop-color="#4abbe4"/></linearGradient><linearGradient id="B" xlink:href="#g"><stop offset="0" stop-color="#ff9db0"/><stop offset="1" stop-color="#f35fb5"/></linearGradient><filter height="2" width="2" y="-.5" x="-.5" id="C" color-interpolation-filters="sRGB"><feFlood flood-color="#fff" flood-opacity="1"/><feComposite operator="in" in2="SourceGraphic"/><feGaussianBlur stdDeviation="15"/><feOffset/><feComposite in="SourceGraphic"/></filter><linearGradient id="D" xlink:href="#g"><stop offset="0" stop-color="#82f420"/><stop offset="1" stop-color="#1cce0a"/></linearGradient><linearGradient y2="502" x2="-471" y1="470" x1="-471" id="E" xlink:href="#D"/><linearGradient y2="438" x2="-471" y1="406" x1="-471" id="F" xlink:href="#D"/><linearGradient y2="390" x2="235" y1="358" x1="235" id="G" xlink:href="#D"/><linearGradient y2="498" x2="247" y1="410" x1="247" id="H" xlink:href="#g"><stop offset="0" stop-color="#4b9137"/><stop offset="1" stop-color="#2f6c33"/></linearGradient><linearGradient y2="154" x2="-485" y1="122" x1="-485" id="I" xlink:href="#B"/><linearGradient y2="122" x2="-517" y1="90" x1="-517" id="J" xlink:href="#B"/><linearGradient y2="186" x2="-517" y1="154" x1="-517" id="K" xlink:href="#B"/><linearGradient y2="162" x2="201" y1="112" x1="201" id="L" xlink:href="#A"/><linearGradient y2="118" x2="205" y1="158" x1="205" id="M" xlink:href="#A"/><linearGradient y2="672.5" x2="80" y1="656.5" x1="80" id="N" xlink:href="#A"/><linearGradient y2="240" x2="455.992" y1="190" x1="455.992" id="O" xlink:href="#B"/><linearGradient y2="196" x2="459.992" y1="236" x1="459.992" id="P" xlink:href="#B"/><linearGradient y2="348" x2="215" y1="60" x1="215" id="Q" xlink:href="#g"><stop offset="0" stop-color="#427ed8"/><stop offset="1" stop-color="#445788"/></linearGradient><linearGradient y2="-263.008" x2="135.983" y1="-263.008" x1="103.983" id="R" xlink:href="#A"/><linearGradient y2="152" x2="239" y1="152" x1="199" id="S" xlink:href="#A"/><linearGradient y2="143.984" x2="256" y1="143.984" x1="295.008" id="T" xlink:href="#A"/><linearGradient y2="144" x2="247.008" y1="103.983" x1="247.008" id="U" xlink:href="#A"/><linearGradient y2="160" x2="241" y1="200" x1="241" id="V" xlink:href="#A"/><linearGradient y2="672.5" x2="80" y1="656.5" x1="80" id="W" xlink:href="#B"/><linearGradient y2="348" x2="215" y1="60" x1="215" id="X" xlink:href="#g"><stop offset="0" stop-color="#bc5682"/><stop offset="1" stop-color="#80345c"/></linearGradient><linearGradient y2="470" x2="-500" y1="438" x1="-500" id="Y" xlink:href="#D"/><linearGradient y2="478" x2="247" y1="428" x1="247" id="Z" xlink:href="#D"/><linearGradient y2="434" x2="251" y1="474" x1="251" id="a" xlink:href="#D"/><linearGradient y2="390" x2="485" y1="358" x1="485" id="b" xlink:href="#D"/><linearGradient y2="670" x2="485" y1="382" x1="485" id="c" xlink:href="#g"><stop offset="0" stop-color="#5aa945"/><stop offset="1" stop-color="#348041"/></linearGradient><path id="d" d="M54 678.5c0-8 8-24 36-24 18.878 0 24 2.137 24 14.008"/><path id="e" d="M241.352 44c-37.867-.038-63.947 9.388-78.352 32-26.864 42.17-40 136-40 184s16 80 48 80c40 0 53-20 69-60 7.778-19.445 22.067-20 44-20 35.346 0 64-28.654 64-64 0-40-36-52-36-84 0-44-32-67.96-70.648-68z"/><path id="f" d="M247.008 406c-26.5 0-48 21.5-48 48s21.5 48 48 48 48-21.5 48-48-21.5-48-48-48z"/><linearGradient id="g" gradientUnits="userSpaceOnUse"/></defs><path d="M537 402c0-16-16-48-72-48-37.756 0-48 4.274-48 28.017" fill="url(#b)" paint-order="stroke fill markers"/><path d="M183 402c0-16 16-48 72-48 37.756 0 48 4.274 48 28.017" fill="url(#G)" paint-order="stroke fill markers"/><g transform="matrix(-2 0 0 2 685 -1257)"><use xlink:href="#d" fill="url(#W)" paint-order="stroke fill markers"/><use xlink:href="#e" transform="matrix(.5 0 0 .5 -27.50002 638.5)" fill="url(#X)" paint-order="stroke fill markers"/></g><path d="M261.352 366c-37.867 0-63.947 9.388-78.352 32-26.864 42.17-40 136-40 184s16 80 48 80c40 0 56-24 72-64 7.778-19.445 24.3-24 43.492-24 12.98 0 30.508 2 53.508 2s40.528-2 53.508-2c19.19 0 35.714 4.555 43.492 24 16 40 32 64 72 64 32 0 48-32 48-80s-13.136-141.83-40-184c-14.404-22.612-40.484-32-78.352-32-36.665 0-53.648 8-98.648 8s-61.983-8-98.648-8z" fill="url(#c)" paint-order="stroke fill markers"/><circle r="20" cy="454" cx="-440.992" transform="scale(-1 1)" fill="#fff" paint-order="stroke fill markers" filter="url(#C)"/><circle transform="matrix(-1 0 0 1 4.000277 0)" cx="-500.992" cy="454" r="20" fill="url(#Y)" paint-order="stroke fill markers"/><g transform="scale(-1 1)"><circle r="20" cy="422" cx="-472.992" fill="url(#F)" paint-order="stroke fill markers"/><circle cx="-472.992" cy="486" r="20" fill="url(#E)" paint-order="stroke fill markers"/></g><use xlink:href="#f" fill="url(#H)" paint-order="stroke fill markers"/><circle cx="247.008" cy="454" r="30" fill="url(#Z)" paint-order="stroke fill markers"/><circle r="24" cy="454" cx="247.008" fill="url(#a)" paint-order="stroke fill markers"/><g transform="matrix(2 0 0 2 35.00004 -1257)"><use xlink:href="#d" fill="url(#N)" paint-order="stroke fill markers"/><use xlink:href="#e" transform="matrix(.5 0 0 .5 -27.50002 638.5)" fill="url(#Q)" paint-order="stroke fill markers"/></g><circle transform="scale(-1 1)" cx="-486.992" cy="138" r="20" fill="url(#I)" paint-order="stroke fill markers"/><circle r="20" cy="454" cx="-500.992" transform="matrix(-1 0 0 1 50.000277 -316.00001)" fill="#fff" paint-order="stroke fill markers" filter="url(#C)"/><g transform="scale(-1 1)"><circle cx="-518.992" cy="106" r="20" fill="url(#J)" paint-order="stroke fill markers"/><circle r="20" cy="170" cx="-518.992" fill="url(#K)" paint-order="stroke fill markers"/></g><use xlink:href="#f" x="-46" y="-316" fill-opacity=".314" paint-order="stroke fill markers"/><circle r="30" cy="138" cx="201.008" fill="url(#L)" paint-order="stroke fill markers"/><circle cx="201.008" cy="138" r="24" fill="url(#M)" paint-order="stroke fill markers"/><use xlink:href="#f" x="208.992" y="-238" fill-opacity=".314" paint-order="stroke fill markers"/><circle cx="456" cy="216" r="30" fill="url(#O)" paint-order="stroke fill markers"/><circle r="24" cy="216" cx="456" fill="url(#P)" paint-order="stroke fill markers"/><g transform="translate(16.992 64.016)"><path transform="rotate(90)" d="M135.983-263.008h32v32h-32z" fill="url(#R)" paint-order="stroke fill markers"/><path d="M207.008 135.984c-4.432 0-8 3.568-8 8v16c0 4.432 3.568 8 8 8h24l16-16-16-16z" fill="url(#S)" paint-order="stroke fill markers"/><path d="M247.008 151.984l16 16h24c4.432 0 8-3.568 8-8v-16c0-4.432-3.568-8-8-8h-24z" fill="url(#T)" paint-order="stroke fill markers"/><path d="M239.008 103.984c-4.432 0-8 3.568-8 8v24l16 16 16-16v-24c0-4.432-3.568-8-8-8z" fill="url(#U)" paint-order="stroke fill markers"/><path d="M247.008 151.984l-16 16v24c0 4.432 3.568 8 8 8h16c4.432 0 8-3.568 8-8v-24z" fill="url(#V)" paint-order="stroke fill markers"/></g></svg>