<svg xmlns="http://www.w3.org/2000/svg" xmlns:xlink="http://www.w3.org/1999/xlink" height="720" width="720"><defs><linearGradient id="A" gradientUnits="userSpaceOnUse"><stop offset="0" stop-color="#82f420"/><stop offset="1" stop-color="#1cce0a"/></linearGradient><linearGradient y2="192" x2="172.5" y1="144" x1="172.5" id="B" xlink:href="#A" /><linearGradient y2="192" x2="547.5" y1="144" x1="547.5" id="C" xlink:href="#A" /><linearGradient y2="468.025" x2="547.5" y1="180" x1="547.5" id="D" gradientUnits="userSpaceOnUse"><stop offset="0" stop-color="#5aa945"/><stop offset="1" stop-color="#348041"/></linearGradient></defs><path d="M94.5 210c0-24 24-72 108-72 56.634 0 72 6.41 72 42.025" fill="url(#B)" paint-order="stroke fill markers"/><path d="M625.5 210c0-24-24-72-108-72-56.634 0-72 6.41-72 42.025" fill="url(#C)" paint-order="stroke fill markers"/><path d="M212.027 156C84 156 48 264.025 48 372.025c0 76.44 42.454 120 120 120 72 0 72-48 192-48s120 48 192 48c77.546 0 120-43.56 120-120C672 264.025 636 156 507.973 156 452.975 156 427.5 168 360 168s-92.975-12-147.973-12z" fill="url(#D)" paint-order="stroke fill markers"/></svg>