<svg xmlns="http://www.w3.org/2000/svg" xmlns:xlink="http://www.w3.org/1999/xlink" height="720" width="720"><defs><linearGradient id="A" gradientUnits="userSpaceOnUse"><stop offset="0" stop-color="#82f420"/><stop offset="1" stop-color="#1cce0a"/></linearGradient><linearGradient y2="191" x2="172.5" y1="143" x1="172.5" id="B" xlink:href="#A" /><linearGradient y2="191" x2="547.5" y1="143" x1="547.5" id="C" xlink:href="#A" /><linearGradient y2="611" x2="547.5" y1="179" x1="547.5" id="D" gradientUnits="userSpaceOnUse"><stop offset="0" stop-color="#5aa945"/><stop offset="1" stop-color="#348041"/></linearGradient></defs><path d="M625.5 209c0-24-24-72-108-72-56.634 0-72 6.41-72 42.025" fill="url(#C)" paint-order="stroke fill markers"/><path d="M94.5 209c0-24 24-72 108-72 56.634 0 72 6.41 72 42.025" fill="url(#B)" paint-order="stroke fill markers"/><path d="M212.027 155c-56.8 0-95.92 14.082-117.527 48-40.295 63.256-60 204-60 276s24 120 72 120c60 0 84-36 108-96 11.667-29.167 36.45-36 65.238-36 19.47 0 45.762 3 80.262 3s60.793-3 80.262-3c28.787 0 53.57 6.833 65.238 36 24 60 48 96 108 96 48 0 72-48 72-120s-19.705-212.744-60-276c-21.606-33.918-60.726-48-117.527-48-54.998 0-80.473 12-147.973 12s-92.975-12-147.973-12z" fill="url(#D)" paint-order="stroke fill markers"/></svg>