<svg xmlns="http://www.w3.org/2000/svg" xmlns:xlink="http://www.w3.org/1999/xlink" height="720" width="720"><defs><linearGradient y2="672.5" x2="80" y1="656.5" x1="80" id="A" gradientUnits="userSpaceOnUse"><stop offset="0" stop-color="#8edae9"/><stop offset="1" stop-color="#4abbe4"/></linearGradient><linearGradient y2="348" x2="215" y1="60" x1="215" id="B" gradientUnits="userSpaceOnUse"><stop offset="0" stop-color="#bc5682"/><stop offset="1" stop-color="#80345c"/></linearGradient><linearGradient y2="672.5" x2="80" y1="656.5" x1="80" id="C" gradientUnits="userSpaceOnUse"><stop offset="0" stop-color="#ff9db0"/><stop offset="1" stop-color="#f35fb5"/></linearGradient><linearGradient y2="348" x2="215" y1="60" x1="215" id="D" gradientUnits="userSpaceOnUse"><stop offset="0" stop-color="#427ed8"/><stop offset="1" stop-color="#445788"/></linearGradient><path id="E" d="M54 678.5c0-8 8-24 36-24 18.878 0 24 2.137 24 14.008"/><path id="F" d="M241.352 44c-37.867-.038-63.947 9.388-78.352 32-26.864 42.17-40 136-40 184s16 80 48 80c40 0 53-20 69-60 7.778-19.445 22.067-20 44-20 35.346 0 64-28.654 64-64 0-40-36-52-36-84 0-44-32-67.96-70.648-68z"/><path id="G" d="M169.512 114c-39.765 0-72 32.236-72 72s32.235 72 72 72 72-32.235 72-72-32.236-72-72-72z"/></defs><g transform="matrix(-3 0 0 3 799.49994 -1766.5)"><use xlink:href="#E" fill="url(#C)" paint-order="stroke fill markers"/><use xlink:href="#F" transform="matrix(.5 0 0 .5 -27.50002 638.5)" fill="url(#B)" paint-order="stroke fill markers"/></g><g transform="matrix(3 0 0 3 -79.49994 -1906.5)"><use xlink:href="#E" fill="url(#A)" paint-order="stroke fill markers"/><use xlink:href="#F" transform="matrix(.5 0 0 .5 -27.50002 638.5)" fill="url(#D)" paint-order="stroke fill markers"/></g><use xlink:href="#G" fill-opacity=".314" paint-order="stroke fill markers"/><use xlink:href="#G" x="286.488" y="257" fill-opacity=".314" paint-order="stroke fill markers"/></svg>