<svg xmlns="http://www.w3.org/2000/svg" xmlns:xlink="http://www.w3.org/1999/xlink" height="720" width="720"><defs><linearGradient id="A" gradientUnits="userSpaceOnUse"><stop offset="0" stop-color="#8edae9"/><stop offset="1" stop-color="#4abbe4"/></linearGradient><linearGradient id="B" gradientUnits="userSpaceOnUse"><stop offset="0" stop-color="#ff9db0"/><stop offset="1" stop-color="#f35fb5"/></linearGradient><linearGradient y2="579" x2="320.262" y1="168" x1="320.262" id="C" gradientUnits="userSpaceOnUse"><stop offset="0" stop-color="#427ed8"/><stop offset="1" stop-color="#445788"/></linearGradient><linearGradient y2="184" x2="172" y1="140" x1="172" id="D" xlink:href="#A" /><linearGradient y2="184" x2="172" y1="140" x1="172" id="E" xlink:href="#A" /><linearGradient y2="184" x2="-548.262" y1="140" x1="-548.262" id="F" xlink:href="#B" /><linearGradient y2="579" x2="400" y1="168" x1="400" id="G" gradientUnits="userSpaceOnUse"><stop offset="0" stop-color="#bc5682"/><stop offset="1" stop-color="#80345c"/></linearGradient><linearGradient y2="184" x2="532" y1="140" x1="532" id="H" xlink:href="#B" /></defs><rect width="52" height="64" x="249.5" y="137" rx="18.194" fill="url(#D)" paint-order="stroke fill markers"/><path d="M155.152 148.494c-10.08 0-12.593 6.506-12.593 11.145 0 8.467 9.943 9.936 17.9 7.732.356 17.29 5.323 32.596 13.676 42.24 2.535 2.926 43.8-8.804 47.66-8.804 10.08 0 18.193-8.114 18.193-18.193V155c0-10.08-8.114-18.193-18.193-18.193-6.704 0-11.6 1.784-17.63 4.04-12.672 4.744-33.717 7.647-49.026 7.647z" fill="url(#E)" paint-order="stroke fill markers"/><path d="M174.193 179C165.187 183.526 156 197.193 156 197.193c0 51.602 28 79.204 28 130.807 0 79.74-64 128-64 210.203 0 39.2 26.225 60.797 48 60.797h16c33.1 0 92.276-93.556 116-135 1.505-2.63 5.873-3 10-3 7 0 10.262-1.78 10.262-9.193V173.193c0-10.08-8.114-18.193-18.193-18.193C252 155 212 160 174.193 179z" fill="url(#C)" paint-order="stroke fill markers"/><rect rx="18.194" y="137" x="-470.762" height="64" width="52" transform="scale(-1 1)" fill="url(#F)" paint-order="stroke fill markers"/><path d="M565.1 148.494c10.08 0 12.593 6.506 12.593 11.145 0 8.467-9.943 9.936-17.9 7.732-.356 17.29-5.323 32.596-13.676 42.24-2.535 2.926-43.8-8.804-47.66-8.804-10.08 0-18.193-8.114-18.193-18.193V155c0-10.08 8.114-18.193 18.193-18.193 6.704 0 11.6 1.784 17.63 4.04 12.672 4.744 33.717 7.647 49.026 7.647z" fill="url(#H)" paint-order="stroke fill markers"/><path d="M546.068 179c9.006 4.526 18.193 18.193 18.193 18.193 0 51.602-28 79.204-28 130.807 0 79.74 64 128 64 210.203 0 39.2-26.225 60.797-48 60.797h-16c-33.1 0-92.276-93.556-116-135-1.505-2.63-5.873-3-10-3-7 0-10.262-1.78-10.262-9.193V173.193c0-10.08 8.114-18.193 18.193-18.193 50.068 0 90.068 5 127.875 24z" fill="url(#G)" paint-order="stroke fill markers"/></svg>