<svg xmlns="http://www.w3.org/2000/svg" xmlns:xlink="http://www.w3.org/1999/xlink" height="720" width="720"><defs><linearGradient id="A" gradientUnits="userSpaceOnUse"><stop offset="0" stop-color="#82f420"/><stop offset="1" stop-color="#1cce0a"/></linearGradient><linearGradient y2="280" x2="360" y1="248" x1="360" id="B" xlink:href="#A" /><linearGradient y2="312" x2="-481.248" y1="260" x1="-481.248" id="C" xlink:href="#A" /><linearGradient y2="359" x2="-526.5" y1="311" x1="-526.5" id="D" xlink:href="#A" /><linearGradient y2="263" x2="-526.5" y1="215" x1="-526.5" id="E" xlink:href="#A" /><linearGradient y2="311.025" x2="-576" y1="263.025" x1="-576" id="F" xlink:href="#A" /><linearGradient y2="-263.008" x2="135.983" y1="-263.008" x1="103.983" id="G" xlink:href="#A" /><linearGradient y2="152" x2="239" y1="152" x1="199" id="H" xlink:href="#A" /><linearGradient y2="143.984" x2="256" y1="143.984" x1="295.008" id="I" xlink:href="#A" /><linearGradient y2="144" x2="247.008" y1="103.983" x1="247.008" id="J" xlink:href="#A" /><linearGradient y2="160" x2="241" y1="200" x1="241" id="K" xlink:href="#A" /></defs><g transform="scale(-1 1)"><circle cx="-577.488" cy="287" r="30" fill="url(#F)" paint-order="stroke fill markers"/><circle r="30" cy="239" cx="-529.488" fill="url(#E)" paint-order="stroke fill markers"/><circle cx="-529.488" cy="335" r="30" fill="url(#D)" paint-order="stroke fill markers"/></g><g transform="matrix(1.5 0 0 1.5 -179.99999 60.024755)"><path transform="rotate(90)" d="M135.983-263.008h32v32h-32z" fill="url(#G)" paint-order="stroke fill markers"/><path d="M207.008 135.984c-4.432 0-8 3.568-8 8v16c0 4.432 3.568 8 8 8h24l16-16-16-16z" fill="url(#H)" paint-order="stroke fill markers"/><path d="M247.008 151.984l16 16h24c4.432 0 8-3.568 8-8v-16c0-4.432-3.568-8-8-8h-24z" fill="url(#I)" paint-order="stroke fill markers"/><path d="M239.008 103.984c-4.432 0-8 3.568-8 8v24l16 16 16-16v-24c0-4.432-3.568-8-8-8z" fill="url(#J)" paint-order="stroke fill markers"/><path d="M247.008 151.984l-16 16v24c0 4.432 3.568 8 8 8h16c4.432 0 8-3.568 8-8v-24z" fill="url(#K)" paint-order="stroke fill markers"/></g><circle r="30" cy="287" cx="-481.488" transform="scale(-1 1)" fill="url(#C)" paint-order="stroke fill markers"/><circle r="20" cy="264" cx="360" fill="url(#B)" paint-order="stroke fill markers"/></svg>