<svg xmlns="http://www.w3.org/2000/svg" xmlns:xlink="http://www.w3.org/1999/xlink" height="720" width="720"><defs><linearGradient id="A" gradientUnits="userSpaceOnUse"><stop offset="0" stop-color="#8edae9"/><stop offset="1" stop-color="#4abbe4"/></linearGradient><linearGradient id="B" gradientUnits="userSpaceOnUse"><stop offset="0" stop-color="#ff9db0"/><stop offset="1" stop-color="#f35fb5"/></linearGradient><linearGradient y2="-263.008" x2="135.983" y1="-263.008" x1="103.983" id="C" gradientUnits="userSpaceOnUse"><stop offset="0" stop-color="#d6eef2"/><stop offset="1" stop-color="#79abb5"/></linearGradient><linearGradient y2="160" x2="241" y1="200" x1="241" id="D" xlink:href="#A" /><linearGradient y2="144" x2="247.008" y1="103.983" x1="247.008" id="E" xlink:href="#A" /><linearGradient y2="143.984" x2="256" y1="143.984" x1="295.008" id="F" xlink:href="#A" /><linearGradient y2="479" x2="455.988" y1="404" x1="455.988" id="G" xlink:href="#B" /><linearGradient y2="413" x2="461.988" y1="473" x1="461.988" id="H" xlink:href="#B" /><linearGradient y2="350" x2="-499.5" y1="302" x1="-499.5" id="I" xlink:href="#B" /><linearGradient y2="398" x2="-547.5" y1="350" x1="-547.5" id="J" xlink:href="#B" /><linearGradient y2="350" x2="-499.5" y1="302" x1="-499.5" id="K" xlink:href="#B" /><linearGradient y2="302" x2="-547.5" y1="254" x1="-547.5" id="L" xlink:href="#B" /><linearGradient y2="344" x2="440" y1="312" x1="440" id="M" xlink:href="#B" /><linearGradient y2="222" x2="169.5" y1="147" x1="169.5" id="N" xlink:href="#A" /><linearGradient y2="156" x2="175.5" y1="216" x1="175.5" id="O" xlink:href="#A" /><linearGradient y2="151.984" x2="247.008" y1="151.984" x1="199.008" id="P" xlink:href="#A" /></defs><g transform="scale(-1 1)"><circle r="30" cy="326" cx="-502.488" fill="url(#I)" paint-order="stroke fill markers"/><circle r="30" cy="278" cx="-550.488" fill="url(#L)" paint-order="stroke fill markers"/><circle cx="-550.488" cy="374" r="30" fill="url(#J)" paint-order="stroke fill markers"/></g><circle cx="169.512" cy="186" r="45" fill="url(#N)" paint-order="stroke fill markers"/><circle r="36" cy="186" cx="169.512" fill="url(#O)" paint-order="stroke fill markers"/><circle r="45" cy="443" cx="456" fill="url(#G)" paint-order="stroke fill markers"/><circle cx="456" cy="443" r="36" fill="url(#H)" paint-order="stroke fill markers"/><g transform="matrix(1.5 0 0 1.5 -106.51181 75.023399)"><path transform="rotate(90)" d="M135.983-263.008h32v32h-32z" fill="url(#C)" paint-order="stroke fill markers"/><path d="M207.008 135.984c-4.432 0-8 3.568-8 8v16c0 4.432 3.568 8 8 8h24l16-16-16-16z" fill="url(#P)" paint-order="stroke fill markers"/><path d="M247.008 151.984l16 16h24c4.432 0 8-3.568 8-8v-16c0-4.432-3.568-8-8-8h-24z" fill="url(#F)" paint-order="stroke fill markers"/><path d="M239.008 103.984c-4.432 0-8 3.568-8 8v24l16 16 16-16v-24c0-4.432-3.568-8-8-8z" fill="url(#E)" paint-order="stroke fill markers"/><path d="M247.008 151.984l-16 16v24c0 4.432 3.568 8 8 8h16c4.432 0 8-3.568 8-8v-24z" fill="url(#D)" paint-order="stroke fill markers"/></g><circle r="30" cy="326" cx="-598.488" transform="scale(-1 1)" fill="url(#K)" paint-order="stroke fill markers"/><circle r="20" cy="328" cx="440" fill="url(#M)" paint-order="stroke fill markers"/></svg>