<?xml version="1.0" encoding="UTF-8" standalone="no"?>
<svg
   xmlns:dc="http://purl.org/dc/elements/1.1/"
   xmlns:cc="http://creativecommons.org/ns#"
   xmlns:rdf="http://www.w3.org/1999/02/22-rdf-syntax-ns#"
   xmlns:svg="http://www.w3.org/2000/svg"
   xmlns="http://www.w3.org/2000/svg"
   xml:space="preserve"
   id="svg2"
   style="enable-background:new 0 0 47.50000000000000000 47.50000000000000000"
   viewBox="0 0 47.5 47.5"
   version="1.1"><metadata
     id="metadata41"><rdf:RDF><cc:Work
         rdf:about=""><dc:format>image/svg+xml</dc:format><dc:type
           rdf:resource="http://purl.org/dc/dcmitype/StillImage" /><dc:title></dc:title></cc:Work></rdf:RDF></metadata><defs
     id="defs6"><clipPath
       id="clipPath18"><path
         id="path20"
         d="M 0,38 38,38 38,0 0,0 0,38 z" /></clipPath><clipPath
       id="clipPath38"><path
         id="path40"
         d="M 3,33.308 3,19.81 c 0,-4.499 11.375,0.9 14.974,4.499 l 0,0 c 3.6,3.6 -0.063,5.399 -0.063,6.299 l 0,0 c 0,0.646 -7.692,5.47 -12.027,5.471 l 0,0 C 4.183,36.079 3,35.337 3,33.308" /></clipPath><clipPath
       id="clipPath50"><path
         id="path52"
         d="M 0,38 38,38 38,0 0,0 0,38 z" /></clipPath><clipPath
       id="clipPath62"><path
         id="path64"
         d="m 20.257,30.608 c 0,-0.9 -3.495,-2.699 0.105,-6.299 l 0,0 C 23.961,20.71 35,15.311 35,19.81 l 0,0 0,13.498 c 0,2.029 -1.17,2.771 -2.852,2.771 l 0,0 C 27.862,36.078 20.257,31.254 20.257,30.608" /></clipPath><clipPath
       id="clipPath74"><path
         id="path76"
         d="M 0,38 38,38 38,0 0,0 0,38 z" /></clipPath></defs><path
     d="m 22.454041,14.628368 c 16.87375,0 23.101662,6.007622 22.711987,8.223622 -1.07648,6.121708 -5.544069,5.303602 -12.318774,1.020431 -3.375,-3.37375 -10.393213,-9.244053 -10.393213,-9.244053"
     id="path912"
     style="fill:#ff4080;fill-opacity:1;fill-rule:nonzero;stroke:#ff4080;stroke-width:1.25;stroke-opacity:1" /><path
     d="m 34.290745,38.402309 c 3.702334,1.513205 7.579905,2.325466 11.584368,2.630157 C 42.663849,38.100754 31.344261,22.52505 28.930945,18.752983 l -6.035204,1.697494 c -1.106518,3.292099 4.252901,22.397123 7.868415,26.271004 1.88111,-3.999242 2.962002,-7.599637 3.526589,-8.319172 z"
     id="path914"
     style="fill:#ffb0f0;fill-opacity:1;fill-rule:nonzero;stroke:#ff4080;stroke-width:1.25;stroke-linejoin:round;stroke-opacity:1" /><path
     d="M 26.073817,13.774481 C 31.061884,8.2282402 39.907466,-0.55938703 42.785359,4.0510325 45.82925,8.9273806 46.388824,17.154022 45.166028,22.85199 44.147695,20.570903 32.76112,18.892861 26.108432,21.081405"
     id="path916"
     style="fill:#ffb0f0;fill-opacity:1;fill-rule:nonzero;stroke:#ff4080;stroke-width:1.25;stroke-linejoin:round;stroke-opacity:1;paint-order:normal" /><path
     style="fill:#ff4080;fill-opacity:1;fill-rule:nonzero;stroke:#ff4080;stroke-width:1.25;stroke-opacity:1"
     id="path44"
     d="m 25.045958,14.628368 c -16.8737493,0 -23.101662,6.007622 -22.7119865,8.223622 1.0764802,6.121708 5.544069,5.303602 12.3187735,1.020431 3.375,-3.37375 10.393213,-9.244053 10.393213,-9.244053" /><path
     style="fill:#ffb0f0;fill-opacity:1;fill-rule:nonzero;stroke:#ff4080;stroke-width:1.25;stroke-linejoin:round;stroke-opacity:1"
     id="path28"
     d="M 13.209254,38.402309 C 9.5069202,39.915514 5.6293497,40.727775 1.6248868,41.032466 4.8361498,38.100754 16.155738,22.52505 18.569054,18.752983 l 6.035204,1.697494 c 1.106519,3.292099 -4.252901,22.397123 -7.868415,26.271004 -1.88111,-3.999242 -2.962002,-7.599637 -3.526589,-8.319172 z" /><path
     style="fill:#ffb0f0;fill-opacity:1;fill-rule:nonzero;stroke:#ff4080;stroke-width:1.25;stroke-linejoin:round;stroke-opacity:1;paint-order:normal"
     id="path32"
     d="M 21.426182,13.774481 C 16.438115,8.2282402 7.5925332,-0.55938703 4.7146398,4.0510325 1.6707496,8.9273806 1.1111755,17.154022 2.3339715,22.85199 3.3523041,20.570903 14.738879,18.892861 21.391567,21.081405" /><path
     style="fill:#ffb0f0;fill-opacity:1;fill-rule:nonzero;stroke:#ff4080;stroke-width:1.25;stroke-opacity:1"
     id="path80"
     d="m 23.125,24.0005 c -3.61125,0 -5.625,-2.264197 -5.625,-7.725941 0,-5.461744 2.01375,-7.7245363 5.625,-7.7245363 3.61125,0 5.625,2.2627923 5.625,7.7245363 0,5.461744 -2.01375,7.725941 -5.625,7.725941 z" /></svg>