<?xml version="1.0" encoding="UTF-8" standalone="no"?>
<!-- Created with Inkscape (http://www.inkscape.org/) -->

<svg
   width="32"
   height="32"
   viewBox="0 0 32 32"
   version="1.1"
   id="svg8"
   inkscape:version="1.3 (0e150ed6c4, 2023-07-21)"
   sodipodi:docname="spellbound-icon.svg"
   xml:space="preserve"
   inkscape:export-filename="spellbound_icon.png"
   inkscape:export-xdpi="1536"
   inkscape:export-ydpi="1536"
   xmlns:inkscape="http://www.inkscape.org/namespaces/inkscape"
   xmlns:sodipodi="http://sodipodi.sourceforge.net/DTD/sodipodi-0.dtd"
   xmlns="http://www.w3.org/2000/svg"
   xmlns:svg="http://www.w3.org/2000/svg"
   xmlns:rdf="http://www.w3.org/1999/02/22-rdf-syntax-ns#"
   xmlns:cc="http://creativecommons.org/ns#"
   xmlns:dc="http://purl.org/dc/elements/1.1/"><defs
     id="defs2" /><sodipodi:namedview
     id="base"
     pagecolor="#ffffff"
     bordercolor="#666666"
     borderopacity="1.0"
     inkscape:pageopacity="0.0"
     inkscape:pageshadow="2"
     inkscape:zoom="12.745824"
     inkscape:cx="19.535811"
     inkscape:cy="26.047748"
     inkscape:document-units="px"
     inkscape:current-layer="layer1"
     showgrid="true"
     units="px"
     inkscape:pagecheckerboard="true"
     borderlayer="true"
     gridtolerance="10"
     inkscape:snap-smooth-nodes="true"
     inkscape:snap-text-baseline="true"
     inkscape:snap-page="true"
     showguides="true"
     inkscape:guide-bbox="true"
     inkscape:showpageshadow="0"
     inkscape:deskcolor="#d1d1d1"
     inkscape:window-width="1858"
     inkscape:window-height="1057"
     inkscape:window-x="54"
     inkscape:window-y="-8"
     inkscape:window-maximized="1"><inkscape:grid
       type="xygrid"
       id="grid4131"
       empspacing="4"
       originx="0"
       originy="0"
       spacingy="1"
       spacingx="1"
       units="px"
       visible="true" /></sodipodi:namedview><metadata
     id="metadata5"><rdf:RDF><cc:Work
         rdf:about=""><dc:format>image/svg+xml</dc:format><dc:type
           rdf:resource="http://purl.org/dc/dcmitype/StillImage" /></cc:Work></rdf:RDF></metadata><g
     inkscape:label="ãƒ¬ã‚¤ãƒ¤ãƒ¼ 1"
     inkscape:groupmode="layer"
     id="layer1"
     transform="translate(0,-106.49999)"><rect
       style="fill:#020202;fill-opacity:1;stroke-width:2.99999;stroke-linecap:round;stroke-linejoin:round;paint-order:fill markers stroke"
       id="rect1"
       width="31.999998"
       height="31.999998"
       x="1.4613737e-06"
       y="106.5" /><g
       id="text1"
       style="font-weight:bold;font-size:12px;line-height:0.7;font-family:'Space Mono Shavian';-inkscape-font-specification:'Space Mono Shavian Bold';text-align:center;letter-spacing:0px;text-anchor:middle;white-space:pre;fill:#ffffff;stroke-width:4.0176;stroke-linecap:round;stroke-linejoin:round;paint-order:fill markers stroke"
       aria-label="x&#10;ð‘•ð‘ð‘§ð‘¤&#10;ð‘šð‘¬ð‘¯ð‘›&#10;x"
       transform="matrix(0.74671455,0,0,0.74671455,4.0525673,31.027466)"><path
         d="m 6.4600117,115.44399 v 0.288 h 1.584 v -0.432 c 0,-0.336 -0.072,-0.672 -0.204,-0.984 -0.132,-0.312 -0.324,-0.588 -0.588,-0.828 -0.264,-0.24 -0.576,-0.42 -0.96,-0.564 -0.384,-0.144 -0.828,-0.216 -1.32,-0.216 -0.444,0 -0.84,0.06 -1.2,0.18 -0.36,0.12 -0.66,0.288 -0.912,0.504 -0.252,0.216 -0.444,0.48 -0.588,0.768 -0.144,0.288 -0.204,0.612 -0.204,0.948 v 0.072 c 0,0.42 0.072,0.768 0.216,1.056 0.144,0.288 0.336,0.528 0.6,0.72 0.264,0.192 0.564,0.348 0.924,0.468 0.348,0.12 0.732,0.204 1.164,0.276 0.312,0.06 0.576,0.132 0.792,0.204 0.204,0.084 0.372,0.18 0.492,0.276 0.12,0.096 0.204,0.216 0.252,0.336 0.048,0.12 0.072,0.252 0.072,0.384 0,0.288 -0.12,0.54 -0.348,0.744 -0.24,0.216 -0.588,0.312 -1.068,0.312 -0.624,0 -1.08,-0.144 -1.368,-0.444 -0.288,-0.3 -0.432,-0.708 -0.432,-1.212 v -0.288 h -1.584 v 0.36 c 0,0.444 0.072,0.852 0.216,1.224 0.144,0.372 0.348,0.696 0.636,0.972 0.276,0.276 0.624,0.492 1.044,0.648 0.42,0.156 0.912,0.228 1.464,0.228 0.468,0 0.888,-0.06 1.272,-0.18 0.372,-0.12 0.696,-0.288 0.96,-0.516 0.264,-0.216 0.456,-0.492 0.6,-0.804 0.144,-0.312 0.216,-0.672 0.216,-1.068 v -0.144 c 0,-0.732 -0.24,-1.284 -0.696,-1.668 -0.468,-0.372 -1.14,-0.636 -2.016,-0.804 -0.36,-0.06 -0.648,-0.132 -0.876,-0.204 -0.228,-0.072 -0.408,-0.144 -0.552,-0.24 -0.144,-0.096 -0.24,-0.192 -0.288,-0.312 -0.06,-0.12 -0.084,-0.252 -0.084,-0.396 0,-0.276 0.108,-0.492 0.348,-0.66 0.228,-0.168 0.54,-0.252 0.948,-0.252 0.468,0 0.828,0.132 1.092,0.372 0.264,0.252 0.396,0.54 0.396,0.876 z m 8.6399943,4.392 h -1.212 v -5.736 c 0,-0.336 -0.12,-0.624 -0.348,-0.864 -0.24,-0.24 -0.528,-0.36 -0.864,-0.36 H 9.5560059 v 1.44 h 2.4960001 c 0.216,0 0.324,0.12 0.324,0.36 v 5.16 h -1.836 v 1.44 h 4.56 z M 16.9,115.32399 v 3.168 c 0,0.48 0.06,0.888 0.204,1.248 0.144,0.348 0.336,0.636 0.576,0.864 0.24,0.24 0.528,0.408 0.864,0.516 0.288,0.108 0.648,0.156 1.068,0.156 h 2.832 v -1.44 h -2.832 c -0.408,0 -0.708,-0.108 -0.9,-0.348 -0.204,-0.24 -0.3,-0.564 -0.3,-0.996 v -3.168 z m 13.187994,3.768 -1.488,-0.372 c -0.072,0.396 -0.24,0.708 -0.48,0.936 -0.24,0.24 -0.6,0.348 -1.056,0.348 -0.216,0 -0.42,-0.024 -0.612,-0.096 -0.192,-0.072 -0.36,-0.168 -0.504,-0.312 -0.144,-0.132 -0.264,-0.3 -0.348,-0.504 -0.084,-0.204 -0.12,-0.444 -0.12,-0.708 v -0.072 c 0,-0.264 0.036,-0.492 0.12,-0.708 0.084,-0.216 0.204,-0.396 0.348,-0.54 0.144,-0.144 0.312,-0.264 0.504,-0.348 0.192,-0.072 0.396,-0.12 0.612,-0.12 0.456,0 0.816,0.132 1.08,0.384 0.252,0.264 0.408,0.564 0.456,0.912 l 1.488,-0.384 c -0.144,-0.696 -0.468,-1.272 -0.984,-1.704 -0.516,-0.432 -1.188,-0.648 -2.016,-0.648 -0.432,0 -0.84,0.072 -1.224,0.216 -0.384,0.144 -0.708,0.36 -0.996,0.624 -0.288,0.276 -0.504,0.6 -0.66,0.984 -0.168,0.384 -0.24,0.816 -0.24,1.296 v 0.144 c 0,0.48 0.072,0.912 0.24,1.284 0.156,0.384 0.372,0.696 0.66,0.948 0.276,0.264 0.6,0.456 0.984,0.588 0.384,0.144 0.792,0.204 1.236,0.204 0.84,0 1.524,-0.216 2.028,-0.648 0.504,-0.432 0.828,-0.996 0.972,-1.704 z"
         id="path5"
         style="stroke-width:4.0176" /><path
         d="m 2.2120117,125.16399 h 1.212 v 5.736 c 0,0.348 0.108,0.636 0.348,0.864 0.228,0.24 0.516,0.36 0.864,0.36 h 3.12 v -1.44 h -2.496 c -0.216,0 -0.324,-0.12 -0.324,-0.36 v -5.16 h 1.836 v -1.44 h -4.56 z m 10.7519943,-1.44 -2.208,2.184 H 9.7240059 v 1.44 h 1.1160001 c 0.228,0 0.396,0.06 0.492,0.18 0.096,0.132 0.156,0.288 0.156,0.468 v 0.744 c 0,0.288 0.084,0.504 0.252,0.672 0.168,0.18 0.396,0.264 0.672,0.264 h 2.52 v -1.44 h -1.608 c -0.216,0 -0.324,-0.12 -0.324,-0.36 v -0.264 c 0,-0.264 -0.084,-0.504 -0.252,-0.696 -0.144,-0.144 -0.312,-0.252 -0.528,-0.3 v -0.24 l 2.616,-2.58 v -0.072 z m 7.463994,1.224 c 0,-0.336 -0.12,-0.636 -0.348,-0.876 -0.24,-0.228 -0.528,-0.348 -0.864,-0.348 h -2.172 v 1.44 h 1.548 c 0.216,0 0.324,0.12 0.324,0.36 v 2.928 c 0,0.348 0.108,0.636 0.348,0.864 0.228,0.24 0.516,0.36 0.864,0.36 H 22.3 v -1.44 h -1.548 c -0.216,0 -0.324,-0.12 -0.324,-0.36 z m 7.691994,7.176 0.528,-1.392 c 0.072,-0.168 0.156,-0.348 0.264,-0.516 0.12,-0.192 0.24,-0.324 0.348,-0.396 0.096,-0.06 0.288,-0.108 0.552,-0.132 0.084,0 0.18,-0.012 0.3,-0.012 v -1.44 c -0.156,0 -0.3,0.012 -0.432,0.012 -0.504,0.048 -0.9,0.18 -1.2,0.372 -0.276,0.18 -0.54,0.456 -0.78,0.816 -0.168,0.252 -0.3,0.516 -0.396,0.78 l -0.432,1.116 h -0.12 v -6.096 h 1.776 v -1.512 h -4.608 v 1.512 h 1.248 v 6.888 z"
         id="path6"
         style="fill:#f0c021;fill-opacity:1;stroke-width:4.0176" /></g></g></svg>
